<svg width="156" height="32" viewBox="0 0 156 32" fill="none" xmlns="http://www.w3.org/2000/svg">
<g clip-path="url(#clip0_38_4114)">
<path d="M22.6078 12C24.2109 12 27 13.3594 27 15C27 16.6875 24.2109 18 22.6078 18H17.1422L12.4313 26.2453C12.1641 26.7141 11.6672 27 11.1281 27H8.49375C7.99687 27 7.63594 26.5219 7.77188 26.0438L10.0688 18H5.25L3.225 20.7C3.08438 20.8875 2.85938 21 2.625 21H0.65625C0.290625 21 0 20.7047 0 20.3438C0 20.2828 0.009375 20.2219 0.0234375 20.1609L1.5 15L0.0234375 9.83906C0.0046875 9.77812 0 9.71719 0 9.65625C0 9.29063 0.295313 9 0.65625 9H2.625C2.85938 9 3.08438 9.1125 3.225 9.3L5.25 12H10.0734L7.77656 3.95625C7.63594 3.47812 7.99687 3 8.49375 3H11.1281C11.6672 3 12.1641 3.29063 12.4313 3.75469L17.1422 12H22.6078Z" fill="#2563EB"/>
</g>
<path d="M35.8523 11.5881V8.54545H50.1875V11.5881H44.8438V26H41.196V11.5881H35.8523ZM50.6207 26V12.9091H54.1406V15.1932H54.277C54.5156 14.3807 54.9162 13.767 55.4787 13.3523C56.0412 12.9318 56.6889 12.7216 57.4219 12.7216C57.6037 12.7216 57.7997 12.733 58.0099 12.7557C58.2202 12.7784 58.4048 12.8097 58.5639 12.8494V16.071C58.3935 16.0199 58.1577 15.9744 57.8565 15.9347C57.5554 15.8949 57.2798 15.875 57.0298 15.875C56.4957 15.875 56.0185 15.9915 55.598 16.2244C55.1832 16.4517 54.8537 16.7699 54.6094 17.179C54.3707 17.5881 54.2514 18.0597 54.2514 18.5938V26H50.6207ZM63.299 26.2472C62.4638 26.2472 61.7195 26.1023 61.0661 25.8125C60.4126 25.517 59.8956 25.0824 59.5149 24.5085C59.1399 23.929 58.9524 23.2074 58.9524 22.3438C58.9524 21.6165 59.0859 21.0057 59.353 20.5114C59.62 20.017 59.9837 19.6193 60.4439 19.3182C60.9041 19.017 61.4268 18.7898 62.0121 18.6364C62.603 18.483 63.2223 18.375 63.87 18.3125C64.6314 18.233 65.245 18.1591 65.7109 18.0909C66.1768 18.017 66.5149 17.9091 66.7251 17.767C66.9354 17.625 67.0405 17.4148 67.0405 17.1364V17.0852C67.0405 16.5455 66.87 16.1278 66.5291 15.8324C66.1939 15.5369 65.7166 15.3892 65.0973 15.3892C64.4439 15.3892 63.924 15.5341 63.5376 15.8239C63.1513 16.108 62.8956 16.4659 62.7706 16.8977L59.4126 16.625C59.5831 15.8295 59.9183 15.142 60.4183 14.5625C60.9183 13.9773 61.5632 13.5284 62.353 13.2159C63.1484 12.8977 64.0689 12.7386 65.1143 12.7386C65.8416 12.7386 66.5376 12.8239 67.2024 12.9943C67.8729 13.1648 68.4666 13.429 68.9837 13.7869C69.5064 14.1449 69.9183 14.6051 70.2195 15.1676C70.5206 15.7244 70.6712 16.392 70.6712 17.1705V26H67.228V24.1847H67.1257C66.9155 24.5938 66.6342 24.9545 66.282 25.267C65.9297 25.5739 65.5064 25.8153 65.0121 25.9915C64.5178 26.1619 63.9467 26.2472 63.299 26.2472ZM64.3388 23.7415C64.8729 23.7415 65.3445 23.6364 65.7536 23.4261C66.1626 23.2102 66.4837 22.9205 66.7166 22.5568C66.9496 22.1932 67.0661 21.7812 67.0661 21.321V19.9318C66.9524 20.0057 66.7962 20.0739 66.5973 20.1364C66.4041 20.1932 66.1854 20.2472 65.9411 20.2983C65.6967 20.3437 65.4524 20.3864 65.2081 20.4261C64.9638 20.4602 64.7422 20.4915 64.5433 20.5199C64.1172 20.5824 63.745 20.6818 63.4268 20.8182C63.1087 20.9545 62.8615 21.1392 62.6854 21.3722C62.5092 21.5994 62.4212 21.8835 62.4212 22.2244C62.4212 22.7188 62.6001 23.0966 62.9581 23.358C63.3217 23.6136 63.782 23.7415 64.3388 23.7415ZM84.7237 12.9091L80.147 26H76.0561L71.4794 12.9091H75.3146L78.0334 22.2756H78.1697L80.88 12.9091H84.7237ZM91.6257 26.2557C90.2791 26.2557 89.12 25.983 88.1484 25.4375C87.1825 24.8864 86.4382 24.108 85.9155 23.1023C85.3928 22.0909 85.1314 20.8949 85.1314 19.5142C85.1314 18.1676 85.3928 16.9858 85.9155 15.9688C86.4382 14.9517 87.174 14.1591 88.1229 13.5909C89.0774 13.0227 90.1967 12.7386 91.4808 12.7386C92.3445 12.7386 93.1484 12.8778 93.8928 13.1562C94.6428 13.429 95.2962 13.8409 95.853 14.392C96.4155 14.9432 96.853 15.6364 97.1655 16.4716C97.478 17.3011 97.6342 18.2727 97.6342 19.3864V20.3835H86.5803V18.1335H94.2166C94.2166 17.6108 94.103 17.1477 93.8757 16.7443C93.6484 16.3409 93.3331 16.0256 92.9297 15.7983C92.532 15.5653 92.0689 15.4489 91.5405 15.4489C90.9893 15.4489 90.5007 15.5767 90.0746 15.8324C89.6541 16.0824 89.3246 16.4205 89.0859 16.8466C88.8473 17.267 88.7251 17.7358 88.7195 18.2528V20.392C88.7195 21.0398 88.8388 21.5994 89.0774 22.071C89.3217 22.5426 89.6655 22.9062 90.1087 23.1619C90.5518 23.4176 91.0774 23.5455 91.6854 23.5455C92.0888 23.5455 92.4581 23.4886 92.7933 23.375C93.1286 23.2614 93.4155 23.0909 93.6541 22.8636C93.8928 22.6364 94.0746 22.358 94.1996 22.0284L97.5575 22.25C97.3871 23.0568 97.0376 23.7614 96.5092 24.3636C95.9865 24.9602 95.3104 25.4261 94.4808 25.7614C93.657 26.0909 92.7053 26.2557 91.6257 26.2557ZM103.134 8.54545V26H99.5036V8.54545H103.134ZM105.611 26V8.54545H109.301V15.7472H116.793V8.54545H120.474V26H116.793V18.7898H109.301V26H105.611ZM131.344 20.4261V12.9091H134.974V26H131.489V23.6222H131.352C131.057 24.3892 130.565 25.0057 129.878 25.4716C129.196 25.9375 128.364 26.1705 127.381 26.1705C126.506 26.1705 125.736 25.9716 125.071 25.5739C124.406 25.1761 123.886 24.6108 123.511 23.8778C123.142 23.1449 122.955 22.267 122.949 21.2443V12.9091H126.58V20.5966C126.585 21.3693 126.793 21.9801 127.202 22.429C127.611 22.8778 128.159 23.1023 128.847 23.1023C129.284 23.1023 129.693 23.0028 130.074 22.804C130.455 22.5994 130.761 22.2983 130.994 21.9006C131.233 21.5028 131.349 21.0114 131.344 20.4261ZM137.447 26V8.54545H141.077V15.108H141.188C141.347 14.7557 141.577 14.3977 141.879 14.0341C142.185 13.6648 142.583 13.358 143.072 13.1136C143.566 12.8636 144.18 12.7386 144.913 12.7386C145.867 12.7386 146.748 12.9886 147.555 13.4886C148.362 13.983 149.006 14.7301 149.489 15.7301C149.972 16.7244 150.214 17.9716 150.214 19.4716C150.214 20.9318 149.978 22.1648 149.506 23.1705C149.04 24.1705 148.404 24.929 147.597 25.446C146.796 25.9574 145.898 26.2131 144.904 26.2131C144.2 26.2131 143.6 26.0966 143.106 25.8636C142.617 25.6307 142.217 25.3381 141.904 24.9858C141.592 24.6278 141.353 24.267 141.188 23.9034H141.026V26H137.447ZM141.001 19.4545C141.001 20.233 141.109 20.9119 141.325 21.4915C141.54 22.071 141.853 22.5227 142.262 22.8466C142.671 23.1648 143.168 23.3239 143.754 23.3239C144.344 23.3239 144.844 23.1619 145.254 22.8381C145.663 22.5085 145.972 22.054 146.183 21.4744C146.398 20.8892 146.506 20.2159 146.506 19.4545C146.506 18.6989 146.401 18.0341 146.191 17.4602C145.981 16.8864 145.671 16.4375 145.262 16.1136C144.853 15.7898 144.35 15.6278 143.754 15.6278C143.163 15.6278 142.663 15.7841 142.254 16.0966C141.85 16.4091 141.54 16.8523 141.325 17.4261C141.109 18 141.001 18.6761 141.001 19.4545Z" fill="#111827"/>
<defs>
<clipPath id="clip0_38_4114">
<path d="M0 3H27V27H0V3Z" fill="white"/>
</clipPath>
</defs>
</svg>
