<svg width="286" height="297" viewBox="0 0 286 297" fill="none" xmlns="http://www.w3.org/2000/svg">
<path d="M0 12C0 5.37258 5.37258 0 12 0H274C280.627 0 286 5.37258 286 12V285C286 291.627 280.627 297 274 297H12C5.37258 297 0 291.627 0 285V12Z" fill="white"/>
<path d="M0 12C0 5.37258 5.37258 0 12 0H274C280.627 0 286 5.37258 286 12V48H0V12Z" fill="#0066FF"/>
<path d="M140.375 20.3462L147.5 28.6587L154.625 20.3462H140.375Z" fill="white"/>
<path d="M63.9406 25.6797V17.625H65.4406V25.6797C65.4406 26.4297 65.287 27.0625 64.9797 27.5781C64.6724 28.0938 64.2479 28.487 63.7063 28.7578C63.1698 29.0234 62.5526 29.1562 61.8547 29.1562C61.1568 29.1562 60.537 29.0365 59.9953 28.7969C59.4536 28.5573 59.0292 28.1927 58.7219 27.7031C58.4146 27.2135 58.2609 26.5964 58.2609 25.8516H59.7688C59.7688 26.3307 59.8573 26.724 60.0344 27.0312C60.2115 27.3385 60.4563 27.5651 60.7688 27.7109C61.0865 27.8568 61.4484 27.9297 61.8547 27.9297C62.2505 27.9297 62.6047 27.8464 62.9172 27.6797C63.2349 27.5078 63.4849 27.2552 63.6672 26.9219C63.8495 26.5833 63.9406 26.1693 63.9406 25.6797ZM73.0984 27.0469V20.5469H74.5516V29H73.1688L73.0984 27.0469ZM73.3719 25.2656L73.9734 25.25C73.9734 25.8125 73.9135 26.3333 73.7938 26.8125C73.6792 27.2865 73.4917 27.6979 73.2313 28.0469C72.9708 28.3958 72.6297 28.6693 72.2078 28.8672C71.7859 29.0599 71.2729 29.1562 70.6688 29.1562C70.2573 29.1562 69.8797 29.0964 69.5359 28.9766C69.1974 28.8568 68.9057 28.6719 68.6609 28.4219C68.4161 28.1719 68.226 27.8464 68.0906 27.4453C67.9604 27.0443 67.8953 26.5625 67.8953 26V20.5469H69.3406V26.0156C69.3406 26.3958 69.3823 26.7109 69.4656 26.9609C69.5542 27.2057 69.6714 27.401 69.8172 27.5469C69.9682 27.6875 70.1349 27.7865 70.3172 27.8438C70.5047 27.901 70.6974 27.9297 70.8953 27.9297C71.5099 27.9297 71.9969 27.8125 72.3563 27.5781C72.7156 27.3385 72.9734 27.0182 73.1297 26.6172C73.2911 26.2109 73.3719 25.7604 73.3719 25.2656ZM78.35 22.3516V29H76.9047V20.5469H78.2719L78.35 22.3516ZM78.0063 24.4531L77.4047 24.4297C77.4099 23.8516 77.4958 23.3177 77.6625 22.8281C77.8292 22.3333 78.0635 21.9036 78.3656 21.5391C78.6677 21.1745 79.0271 20.8932 79.4438 20.6953C79.8656 20.4922 80.3318 20.3906 80.8422 20.3906C81.2589 20.3906 81.6339 20.4479 81.9672 20.5625C82.3005 20.6719 82.5844 20.849 82.8188 21.0938C83.0583 21.3385 83.2406 21.6562 83.3656 22.0469C83.4906 22.4323 83.5531 22.9036 83.5531 23.4609V29H82.1V23.4453C82.1 23.0026 82.0349 22.6484 81.9047 22.3828C81.7745 22.112 81.5844 21.9167 81.3344 21.7969C81.0844 21.6719 80.7771 21.6094 80.4125 21.6094C80.0531 21.6094 79.725 21.6849 79.4281 21.8359C79.1365 21.987 78.8839 22.1953 78.6703 22.4609C78.462 22.7266 78.2979 23.0312 78.1781 23.375C78.0635 23.7135 78.0063 24.0729 78.0063 24.4531ZM89.4063 29.1562C88.8177 29.1562 88.2839 29.0573 87.8047 28.8594C87.3307 28.6562 86.9219 28.3724 86.5781 28.0078C86.2396 27.6432 85.9792 27.2109 85.7969 26.7109C85.6146 26.2109 85.5234 25.6641 85.5234 25.0703V24.7422C85.5234 24.0547 85.625 23.4427 85.8281 22.9062C86.0313 22.3646 86.3073 21.9062 86.6563 21.5312C87.0052 21.1562 87.401 20.8724 87.8438 20.6797C88.2865 20.487 88.7448 20.3906 89.2188 20.3906C89.8229 20.3906 90.3438 20.4948 90.7813 20.7031C91.224 20.9115 91.5859 21.2031 91.8672 21.5781C92.1484 21.9479 92.3568 22.3854 92.4922 22.8906C92.6276 23.3906 92.6953 23.9375 92.6953 24.5312V25.1797H86.3828V24H91.25V23.8906C91.2292 23.5156 91.151 23.151 91.0156 22.7969C90.8854 22.4427 90.6771 22.151 90.3906 21.9219C90.1042 21.6927 89.7135 21.5781 89.2188 21.5781C88.8906 21.5781 88.5885 21.6484 88.3125 21.7891C88.0365 21.9245 87.7995 22.1276 87.6016 22.3984C87.4036 22.6693 87.25 23 87.1406 23.3906C87.0313 23.7812 86.9766 24.2318 86.9766 24.7422V25.0703C86.9766 25.4714 87.0313 25.849 87.1406 26.2031C87.2552 26.5521 87.4193 26.8594 87.6328 27.125C87.8516 27.3906 88.1146 27.599 88.4219 27.75C88.7344 27.901 89.0885 27.9766 89.4844 27.9766C89.9948 27.9766 90.4271 27.8724 90.7813 27.6641C91.1354 27.4557 91.4453 27.1771 91.7109 26.8281L92.5859 27.5234C92.4036 27.7995 92.1719 28.0625 91.8906 28.3125C91.6094 28.5625 91.263 28.7656 90.8516 28.9219C90.4453 29.0781 89.9635 29.1562 89.4063 29.1562ZM105.948 27.8125V29H98.5031V27.9609L102.23 23.8125C102.688 23.3021 103.042 22.8698 103.292 22.5156C103.547 22.1562 103.724 21.8359 103.823 21.5547C103.928 21.2682 103.98 20.9766 103.98 20.6797C103.98 20.3047 103.902 19.9661 103.745 19.6641C103.594 19.3568 103.37 19.112 103.073 18.9297C102.777 18.7474 102.417 18.6562 101.995 18.6562C101.49 18.6562 101.068 18.7552 100.73 18.9531C100.396 19.1458 100.146 19.4167 99.9797 19.7656C99.813 20.1146 99.7297 20.5156 99.7297 20.9688H98.2844C98.2844 20.3281 98.425 19.7422 98.7063 19.2109C98.9875 18.6797 99.4042 18.2578 99.9563 17.9453C100.508 17.6276 101.188 17.4688 101.995 17.4688C102.714 17.4688 103.329 17.5964 103.839 17.8516C104.349 18.1016 104.74 18.4557 105.011 18.9141C105.287 19.3672 105.425 19.8984 105.425 20.5078C105.425 20.8411 105.368 21.1797 105.253 21.5234C105.144 21.862 104.99 22.2005 104.792 22.5391C104.599 22.8776 104.373 23.2109 104.113 23.5391C103.857 23.8672 103.584 24.1901 103.292 24.5078L100.245 27.8125H105.948ZM114.786 22.4062V24.1406C114.786 25.0729 114.703 25.8594 114.536 26.5C114.369 27.1406 114.13 27.6562 113.817 28.0469C113.505 28.4375 113.127 28.7214 112.684 28.8984C112.247 29.0703 111.752 29.1562 111.2 29.1562C110.763 29.1562 110.359 29.1016 109.989 28.9922C109.619 28.8828 109.286 28.7083 108.989 28.4688C108.697 28.224 108.447 27.9062 108.239 27.5156C108.031 27.125 107.872 26.651 107.763 26.0938C107.653 25.5365 107.598 24.8854 107.598 24.1406V22.4062C107.598 21.474 107.682 20.6927 107.848 20.0625C108.02 19.4323 108.263 18.9271 108.575 18.5469C108.888 18.1615 109.263 17.8854 109.7 17.7188C110.143 17.5521 110.638 17.4688 111.184 17.4688C111.627 17.4688 112.033 17.5234 112.403 17.6328C112.778 17.737 113.111 17.9062 113.403 18.1406C113.695 18.3698 113.942 18.6771 114.145 19.0625C114.354 19.4427 114.513 19.9089 114.622 20.4609C114.731 21.013 114.786 21.6615 114.786 22.4062ZM113.333 24.375V22.1641C113.333 21.6536 113.302 21.2057 113.239 20.8203C113.182 20.4297 113.096 20.0964 112.981 19.8203C112.867 19.5443 112.721 19.3203 112.544 19.1484C112.372 18.9766 112.171 18.8516 111.942 18.7734C111.718 18.6901 111.466 18.6484 111.184 18.6484C110.841 18.6484 110.536 18.7135 110.27 18.8438C110.005 18.9688 109.781 19.1693 109.598 19.4453C109.421 19.7214 109.286 20.0833 109.192 20.5312C109.098 20.9792 109.052 21.5234 109.052 22.1641V24.375C109.052 24.8854 109.08 25.3359 109.138 25.7266C109.2 26.1172 109.291 26.4557 109.411 26.7422C109.531 27.0234 109.677 27.2552 109.848 27.4375C110.02 27.6198 110.218 27.7552 110.442 27.8438C110.671 27.9271 110.924 27.9688 111.2 27.9688C111.554 27.9688 111.864 27.901 112.13 27.7656C112.395 27.6302 112.617 27.4193 112.794 27.1328C112.976 26.8411 113.111 26.4688 113.2 26.0156C113.289 25.5573 113.333 25.0104 113.333 24.375ZM124.248 27.8125V29H116.803V27.9609L120.53 23.8125C120.988 23.3021 121.342 22.8698 121.592 22.5156C121.847 22.1562 122.024 21.8359 122.123 21.5547C122.228 21.2682 122.28 20.9766 122.28 20.6797C122.28 20.3047 122.202 19.9661 122.045 19.6641C121.894 19.3568 121.67 19.112 121.373 18.9297C121.077 18.7474 120.717 18.6562 120.295 18.6562C119.79 18.6562 119.368 18.7552 119.03 18.9531C118.696 19.1458 118.446 19.4167 118.28 19.7656C118.113 20.1146 118.03 20.5156 118.03 20.9688H116.584C116.584 20.3281 116.725 19.7422 117.006 19.2109C117.288 18.6797 117.704 18.2578 118.256 17.9453C118.808 17.6276 119.488 17.4688 120.295 17.4688C121.014 17.4688 121.629 17.5964 122.139 17.8516C122.649 18.1016 123.04 18.4557 123.311 18.9141C123.587 19.3672 123.725 19.8984 123.725 20.5078C123.725 20.8411 123.668 21.1797 123.553 21.5234C123.444 21.862 123.29 22.2005 123.092 22.5391C122.899 22.8776 122.673 23.2109 122.413 23.5391C122.157 23.8672 121.884 24.1901 121.592 24.5078L118.545 27.8125H124.248ZM133.398 27.8125V29H125.953V27.9609L129.68 23.8125C130.138 23.3021 130.492 22.8698 130.742 22.5156C130.997 22.1562 131.174 21.8359 131.273 21.5547C131.378 21.2682 131.43 20.9766 131.43 20.6797C131.43 20.3047 131.352 19.9661 131.195 19.6641C131.044 19.3568 130.82 19.112 130.523 18.9297C130.227 18.7474 129.867 18.6562 129.445 18.6562C128.94 18.6562 128.518 18.7552 128.18 18.9531C127.846 19.1458 127.596 19.4167 127.43 19.7656C127.263 20.1146 127.18 20.5156 127.18 20.9688H125.734C125.734 20.3281 125.875 19.7422 126.156 19.2109C126.438 18.6797 126.854 18.2578 127.406 17.9453C127.958 17.6276 128.638 17.4688 129.445 17.4688C130.164 17.4688 130.779 17.5964 131.289 17.8516C131.799 18.1016 132.19 18.4557 132.461 18.9141C132.737 19.3672 132.875 19.8984 132.875 20.5078C132.875 20.8411 132.818 21.1797 132.703 21.5234C132.594 21.862 132.44 22.2005 132.242 22.5391C132.049 22.8776 131.823 23.2109 131.562 23.5391C131.307 23.8672 131.034 24.1901 130.742 24.5078L127.695 27.8125H133.398Z" fill="white"/>
<path d="M218.172 18.6556L212.828 23.9994L218.172 29.3431" stroke="white" stroke-width="2.25" stroke-miterlimit="10" stroke-linecap="square"/>
<path d="M259.828 18.6559L265.172 23.9996L259.828 29.3434" stroke="white" stroke-width="2.25" stroke-linecap="round" stroke-linejoin="round"/>
<path d="M30.1338 79.375C30.1338 79.2064 30.1087 79.056 30.0586 78.9238C30.0085 78.7871 29.9173 78.6618 29.7852 78.5479C29.653 78.4339 29.4661 78.32 29.2246 78.2061C28.9831 78.0876 28.6663 77.9668 28.2744 77.8438C27.8278 77.6979 27.4017 77.5339 26.9961 77.3516C26.5951 77.1647 26.2373 76.9482 25.9229 76.7021C25.6084 76.4561 25.36 76.1689 25.1777 75.8408C25 75.5127 24.9111 75.1299 24.9111 74.6924C24.9111 74.2686 25.0046 73.8857 25.1914 73.5439C25.3783 73.2021 25.6403 72.9105 25.9775 72.6689C26.3148 72.4229 26.7113 72.236 27.167 72.1084C27.6227 71.9762 28.124 71.9102 28.6709 71.9102C29.4001 71.9102 30.0404 72.04 30.5918 72.2998C31.1478 72.555 31.5807 72.915 31.8906 73.3799C32.2005 73.8402 32.3555 74.3757 32.3555 74.9863H30.1406C30.1406 74.7174 30.0837 74.4805 29.9697 74.2754C29.8604 74.0658 29.6917 73.9017 29.4639 73.7832C29.2406 73.6647 28.9603 73.6055 28.623 73.6055C28.2949 73.6055 28.0192 73.6556 27.7959 73.7559C27.5771 73.8516 27.4108 73.9837 27.2969 74.1523C27.1875 74.321 27.1328 74.5055 27.1328 74.7061C27.1328 74.8656 27.1738 75.0114 27.2559 75.1436C27.3424 75.2712 27.4655 75.3919 27.625 75.5059C27.7891 75.6152 27.9896 75.7201 28.2266 75.8203C28.4635 75.9206 28.7347 76.0163 29.04 76.1074C29.5732 76.276 30.0449 76.4629 30.4551 76.668C30.8698 76.873 31.2184 77.1055 31.501 77.3652C31.7835 77.625 31.9954 77.9189 32.1367 78.2471C32.2826 78.5752 32.3555 78.9466 32.3555 79.3613C32.3555 79.8034 32.2689 80.1953 32.0957 80.5371C31.9271 80.8789 31.681 81.1706 31.3574 81.4121C31.0384 81.6491 30.6556 81.8291 30.209 81.9521C29.7624 82.0752 29.2633 82.1367 28.7119 82.1367C28.2106 82.1367 27.7161 82.0729 27.2285 81.9453C26.7409 81.8132 26.2988 81.6126 25.9023 81.3438C25.5104 81.0749 25.196 80.7331 24.959 80.3184C24.7266 79.8991 24.6104 79.4023 24.6104 78.8281H26.8389C26.8389 79.1289 26.8822 79.3841 26.9688 79.5938C27.0553 79.7988 27.1784 79.9652 27.3379 80.0928C27.502 80.2204 27.7002 80.3115 27.9326 80.3662C28.165 80.4209 28.4248 80.4482 28.7119 80.4482C29.0446 80.4482 29.3135 80.4027 29.5186 80.3115C29.7282 80.2158 29.8831 80.0859 29.9834 79.9219C30.0837 79.7578 30.1338 79.5755 30.1338 79.375Z" fill="#0066FF"/>
<path d="M63.2549 72.0469H65.1006L67.4932 79.1631L69.8789 72.0469H71.7246L68.2383 82H66.7412L63.2549 72.0469ZM62.1885 72.0469H64.0684L64.417 79.4229V82H62.1885V72.0469ZM70.9111 72.0469H72.7979V82H70.5625V79.4229L70.9111 72.0469Z" fill="#0066FF"/>
<path d="M107.573 72.0469V82H105.352V72.0469H107.573ZM110.602 72.0469V73.7764H102.385V72.0469H110.602Z" fill="#0066FF"/>
<path d="M142.567 80.7559L144.55 72.0469H145.691L146.143 73.127L144.03 82H142.779L142.567 80.7559ZM141.795 72.0469L143.456 80.7969L143.169 82H141.747L139.587 72.0469H141.795ZM147.558 80.749L149.198 72.0469H151.399L149.239 82H147.831L147.558 80.749ZM146.437 72.0469L148.446 80.8037L148.214 82H146.97L144.823 73.1201L145.295 72.0469H146.437Z" fill="#0066FF"/>
<path d="M185.573 72.0469V82H183.352V72.0469H185.573ZM188.602 72.0469V73.7764H180.385V72.0469H188.602Z" fill="#0066FF"/>
<path d="M220.214 72.0469V82H217.985V72.0469H220.214ZM224.131 76.2441V77.9668H219.592V76.2441H224.131ZM224.568 72.0469V73.7764H219.592V72.0469H224.568Z" fill="#0066FF"/>
<path d="M259.134 79.375C259.134 79.2064 259.109 79.056 259.059 78.9238C259.008 78.7871 258.917 78.6618 258.785 78.5479C258.653 78.4339 258.466 78.32 258.225 78.2061C257.983 78.0876 257.666 77.9668 257.274 77.8438C256.828 77.6979 256.402 77.5339 255.996 77.3516C255.595 77.1647 255.237 76.9482 254.923 76.7021C254.608 76.4561 254.36 76.1689 254.178 75.8408C254 75.5127 253.911 75.1299 253.911 74.6924C253.911 74.2686 254.005 73.8857 254.191 73.5439C254.378 73.2021 254.64 72.9105 254.978 72.6689C255.315 72.4229 255.711 72.236 256.167 72.1084C256.623 71.9762 257.124 71.9102 257.671 71.9102C258.4 71.9102 259.04 72.04 259.592 72.2998C260.148 72.555 260.581 72.915 260.891 73.3799C261.201 73.8402 261.355 74.3757 261.355 74.9863H259.141C259.141 74.7174 259.084 74.4805 258.97 74.2754C258.86 74.0658 258.692 73.9017 258.464 73.7832C258.241 73.6647 257.96 73.6055 257.623 73.6055C257.295 73.6055 257.019 73.6556 256.796 73.7559C256.577 73.8516 256.411 73.9837 256.297 74.1523C256.188 74.321 256.133 74.5055 256.133 74.7061C256.133 74.8656 256.174 75.0114 256.256 75.1436C256.342 75.2712 256.465 75.3919 256.625 75.5059C256.789 75.6152 256.99 75.7201 257.227 75.8203C257.464 75.9206 257.735 76.0163 258.04 76.1074C258.573 76.276 259.045 76.4629 259.455 76.668C259.87 76.873 260.218 77.1055 260.501 77.3652C260.784 77.625 260.995 77.9189 261.137 78.2471C261.283 78.5752 261.355 78.9466 261.355 79.3613C261.355 79.8034 261.269 80.1953 261.096 80.5371C260.927 80.8789 260.681 81.1706 260.357 81.4121C260.038 81.6491 259.656 81.8291 259.209 81.9521C258.762 82.0752 258.263 82.1367 257.712 82.1367C257.211 82.1367 256.716 82.0729 256.229 81.9453C255.741 81.8132 255.299 81.6126 254.902 81.3438C254.51 81.0749 254.196 80.7331 253.959 80.3184C253.727 79.8991 253.61 79.4023 253.61 78.8281H255.839C255.839 79.1289 255.882 79.3841 255.969 79.5938C256.055 79.7988 256.178 79.9652 256.338 80.0928C256.502 80.2204 256.7 80.3115 256.933 80.3662C257.165 80.4209 257.425 80.4482 257.712 80.4482C258.045 80.4482 258.313 80.4027 258.519 80.3115C258.728 80.2158 258.883 80.0859 258.983 79.9219C259.084 79.7578 259.134 79.5755 259.134 79.375Z" fill="#0066FF"/>
<path d="M61.7979 256.401H62.7002C63.1423 256.401 63.5068 256.328 63.7939 256.183C64.0856 256.032 64.3021 255.829 64.4434 255.574C64.5892 255.314 64.6621 255.023 64.6621 254.699C64.6621 254.316 64.5983 253.995 64.4707 253.735C64.3431 253.476 64.1517 253.28 63.8965 253.147C63.6413 253.015 63.3177 252.949 62.9258 252.949C62.5703 252.949 62.2559 253.02 61.9824 253.161C61.7135 253.298 61.5016 253.494 61.3467 253.749C61.1963 254.004 61.1211 254.305 61.1211 254.651H59.8564C59.8564 254.146 59.984 253.685 60.2393 253.271C60.4945 252.856 60.8522 252.525 61.3125 252.279C61.7773 252.033 62.3151 251.91 62.9258 251.91C63.5273 251.91 64.0537 252.017 64.5049 252.231C64.9561 252.441 65.307 252.756 65.5576 253.175C65.8083 253.59 65.9336 254.107 65.9336 254.727C65.9336 254.977 65.8743 255.246 65.7559 255.533C65.6419 255.816 65.4619 256.08 65.2158 256.326C64.9743 256.572 64.6598 256.775 64.2725 256.935C63.8851 257.09 63.4202 257.167 62.8779 257.167H61.7979V256.401ZM61.7979 257.44V256.682H62.8779C63.5114 256.682 64.0355 256.757 64.4502 256.907C64.8649 257.058 65.1908 257.258 65.4277 257.509C65.6693 257.759 65.8379 258.035 65.9336 258.336C66.0339 258.632 66.084 258.928 66.084 259.225C66.084 259.689 66.0042 260.102 65.8447 260.462C65.6898 260.822 65.4688 261.127 65.1816 261.378C64.8991 261.629 64.5664 261.818 64.1836 261.945C63.8008 262.073 63.3838 262.137 62.9326 262.137C62.4997 262.137 62.0918 262.075 61.709 261.952C61.3307 261.829 60.9958 261.651 60.7041 261.419C60.4124 261.182 60.1846 260.893 60.0205 260.551C59.8564 260.204 59.7744 259.81 59.7744 259.368H61.0391C61.0391 259.715 61.1143 260.018 61.2646 260.277C61.4196 260.537 61.6383 260.74 61.9209 260.886C62.208 261.027 62.5452 261.098 62.9326 261.098C63.32 261.098 63.6527 261.032 63.9307 260.899C64.2132 260.763 64.4297 260.558 64.5801 260.284C64.735 260.011 64.8125 259.667 64.8125 259.252C64.8125 258.837 64.7259 258.498 64.5527 258.233C64.3796 257.965 64.1335 257.766 63.8145 257.639C63.5 257.507 63.1286 257.44 62.7002 257.44H61.7979ZM74.0752 256.23V257.748C74.0752 258.564 74.0023 259.252 73.8564 259.812C73.7106 260.373 73.501 260.824 73.2275 261.166C72.9541 261.508 72.6237 261.756 72.2363 261.911C71.8535 262.062 71.4206 262.137 70.9375 262.137C70.5547 262.137 70.2015 262.089 69.8779 261.993C69.5544 261.897 69.2627 261.745 69.0029 261.535C68.7477 261.321 68.529 261.043 68.3467 260.701C68.1644 260.359 68.0254 259.945 67.9297 259.457C67.834 258.969 67.7861 258.4 67.7861 257.748V256.23C67.7861 255.415 67.859 254.731 68.0049 254.18C68.1553 253.628 68.3672 253.186 68.6406 252.854C68.9141 252.516 69.2422 252.275 69.625 252.129C70.0124 251.983 70.4453 251.91 70.9238 251.91C71.3112 251.91 71.6667 251.958 71.9902 252.054C72.3184 252.145 72.61 252.293 72.8652 252.498C73.1204 252.699 73.3369 252.967 73.5146 253.305C73.6969 253.637 73.8359 254.045 73.9316 254.528C74.0273 255.011 74.0752 255.579 74.0752 256.23ZM72.8037 257.953V256.019C72.8037 255.572 72.7764 255.18 72.7217 254.843C72.6715 254.501 72.5964 254.209 72.4961 253.968C72.3958 253.726 72.2682 253.53 72.1133 253.38C71.9629 253.229 71.7874 253.12 71.5869 253.052C71.391 252.979 71.1699 252.942 70.9238 252.942C70.623 252.942 70.3564 252.999 70.124 253.113C69.8916 253.223 69.6956 253.398 69.5361 253.64C69.3812 253.881 69.2627 254.198 69.1807 254.59C69.0986 254.982 69.0576 255.458 69.0576 256.019V257.953C69.0576 258.4 69.0827 258.794 69.1328 259.136C69.1875 259.478 69.2673 259.774 69.3721 260.024C69.4769 260.271 69.6045 260.473 69.7549 260.633C69.9053 260.792 70.0785 260.911 70.2744 260.988C70.4749 261.061 70.696 261.098 70.9375 261.098C71.2474 261.098 71.5186 261.038 71.751 260.92C71.9834 260.801 72.1771 260.617 72.332 260.366C72.4915 260.111 72.61 259.785 72.6875 259.389C72.765 258.988 72.8037 258.509 72.8037 257.953Z" fill="black" fill-opacity="0.87"/>
<path d="M28.4736 260.961V262H21.959V261.091L25.2197 257.461C25.6208 257.014 25.9307 256.636 26.1494 256.326C26.3727 256.012 26.5277 255.731 26.6143 255.485C26.7054 255.235 26.751 254.979 26.751 254.72C26.751 254.392 26.6826 254.095 26.5459 253.831C26.4137 253.562 26.2178 253.348 25.958 253.188C25.6982 253.029 25.3838 252.949 25.0146 252.949C24.5726 252.949 24.2035 253.036 23.9072 253.209C23.6156 253.378 23.3968 253.615 23.251 253.92C23.1051 254.225 23.0322 254.576 23.0322 254.973H21.7676C21.7676 254.412 21.8906 253.899 22.1367 253.435C22.3828 252.97 22.7474 252.601 23.2305 252.327C23.7135 252.049 24.3083 251.91 25.0146 251.91C25.6436 251.91 26.1813 252.022 26.6279 252.245C27.0745 252.464 27.4163 252.774 27.6533 253.175C27.8949 253.571 28.0156 254.036 28.0156 254.569C28.0156 254.861 27.9655 255.157 27.8652 255.458C27.7695 255.754 27.6351 256.05 27.4619 256.347C27.2933 256.643 27.0951 256.935 26.8672 257.222C26.6439 257.509 26.4046 257.791 26.1494 258.069L23.4834 260.961H28.4736ZM31.085 260.94H31.2148C31.944 260.94 32.5365 260.838 32.9922 260.633C33.4479 260.428 33.7988 260.152 34.0449 259.806C34.291 259.459 34.4596 259.07 34.5508 258.637C34.6419 258.199 34.6875 257.75 34.6875 257.29V255.766C34.6875 255.314 34.6351 254.913 34.5303 254.562C34.43 254.212 34.2887 253.918 34.1064 253.681C33.9287 253.444 33.7259 253.264 33.498 253.141C33.2702 253.018 33.0286 252.956 32.7734 252.956C32.4818 252.956 32.2197 253.015 31.9873 253.134C31.7594 253.248 31.5658 253.41 31.4062 253.619C31.2513 253.829 31.1328 254.075 31.0508 254.357C30.9688 254.64 30.9277 254.948 30.9277 255.28C30.9277 255.576 30.9642 255.864 31.0371 256.142C31.11 256.42 31.2217 256.67 31.3721 256.894C31.5225 257.117 31.7093 257.295 31.9326 257.427C32.1605 257.554 32.4271 257.618 32.7324 257.618C33.015 257.618 33.2793 257.563 33.5254 257.454C33.776 257.34 33.9971 257.188 34.1885 256.996C34.3844 256.8 34.5394 256.579 34.6533 256.333C34.7718 256.087 34.8402 255.829 34.8584 255.561H35.46C35.46 255.939 35.3848 256.312 35.2344 256.682C35.0885 257.046 34.8835 257.379 34.6191 257.68C34.3548 257.98 34.0449 258.222 33.6895 258.404C33.334 258.582 32.9466 258.671 32.5273 258.671C32.0352 258.671 31.609 258.575 31.249 258.384C30.889 258.192 30.5928 257.937 30.3604 257.618C30.1325 257.299 29.9616 256.944 29.8477 256.552C29.7383 256.155 29.6836 255.754 29.6836 255.349C29.6836 254.875 29.7497 254.43 29.8818 254.016C30.014 253.601 30.21 253.236 30.4697 252.922C30.7295 252.603 31.0508 252.354 31.4336 252.177C31.821 251.999 32.2676 251.91 32.7734 251.91C33.3431 251.91 33.8285 252.024 34.2295 252.252C34.6305 252.48 34.9564 252.785 35.207 253.168C35.4622 253.551 35.6491 253.981 35.7676 254.46C35.8861 254.938 35.9453 255.431 35.9453 255.937V256.395C35.9453 256.91 35.9111 257.434 35.8428 257.967C35.779 258.495 35.6536 259.001 35.4668 259.484C35.2845 259.967 35.0179 260.4 34.667 260.783C34.3161 261.161 33.8581 261.462 33.293 261.686C32.7324 261.904 32.0397 262.014 31.2148 262.014H31.085V260.94Z" fill="black" fill-opacity="0.87"/>
<path d="M256.474 224.961V226H249.959V225.091L253.22 221.461C253.621 221.014 253.931 220.636 254.149 220.326C254.373 220.012 254.528 219.731 254.614 219.485C254.705 219.235 254.751 218.979 254.751 218.72C254.751 218.392 254.683 218.095 254.546 217.831C254.414 217.562 254.218 217.348 253.958 217.188C253.698 217.029 253.384 216.949 253.015 216.949C252.573 216.949 252.203 217.036 251.907 217.209C251.616 217.378 251.397 217.615 251.251 217.92C251.105 218.225 251.032 218.576 251.032 218.973H249.768C249.768 218.412 249.891 217.899 250.137 217.435C250.383 216.97 250.747 216.601 251.23 216.327C251.714 216.049 252.308 215.91 253.015 215.91C253.644 215.91 254.181 216.022 254.628 216.245C255.075 216.464 255.416 216.774 255.653 217.175C255.895 217.571 256.016 218.036 256.016 218.569C256.016 218.861 255.965 219.157 255.865 219.458C255.77 219.754 255.635 220.05 255.462 220.347C255.293 220.643 255.095 220.935 254.867 221.222C254.644 221.509 254.405 221.791 254.149 222.069L251.483 224.961H256.474ZM264.103 223.307C264.103 223.913 263.961 224.428 263.679 224.852C263.401 225.271 263.022 225.59 262.544 225.809C262.07 226.027 261.535 226.137 260.938 226.137C260.34 226.137 259.803 226.027 259.324 225.809C258.846 225.59 258.467 225.271 258.189 224.852C257.911 224.428 257.772 223.913 257.772 223.307C257.772 222.91 257.848 222.548 257.998 222.22C258.153 221.887 258.369 221.598 258.647 221.352C258.93 221.105 259.263 220.916 259.646 220.784C260.033 220.647 260.459 220.579 260.924 220.579C261.535 220.579 262.079 220.698 262.558 220.935C263.036 221.167 263.412 221.488 263.686 221.898C263.964 222.309 264.103 222.778 264.103 223.307ZM262.831 223.279C262.831 222.91 262.751 222.584 262.592 222.302C262.432 222.015 262.209 221.791 261.922 221.632C261.635 221.472 261.302 221.393 260.924 221.393C260.536 221.393 260.201 221.472 259.919 221.632C259.641 221.791 259.424 222.015 259.27 222.302C259.115 222.584 259.037 222.91 259.037 223.279C259.037 223.662 259.112 223.99 259.263 224.264C259.418 224.533 259.636 224.74 259.919 224.886C260.206 225.027 260.546 225.098 260.938 225.098C261.329 225.098 261.667 225.027 261.949 224.886C262.232 224.74 262.448 224.533 262.599 224.264C262.754 223.99 262.831 223.662 262.831 223.279ZM263.87 218.638C263.87 219.121 263.743 219.556 263.487 219.943C263.232 220.331 262.883 220.636 262.441 220.859C261.999 221.083 261.498 221.194 260.938 221.194C260.368 221.194 259.86 221.083 259.413 220.859C258.971 220.636 258.625 220.331 258.374 219.943C258.123 219.556 257.998 219.121 257.998 218.638C257.998 218.059 258.123 217.567 258.374 217.161C258.629 216.756 258.978 216.446 259.42 216.231C259.862 216.017 260.366 215.91 260.931 215.91C261.5 215.91 262.006 216.017 262.448 216.231C262.89 216.446 263.237 216.756 263.487 217.161C263.743 217.567 263.87 218.059 263.87 218.638ZM262.605 218.658C262.605 218.326 262.535 218.032 262.394 217.776C262.252 217.521 262.056 217.321 261.806 217.175C261.555 217.024 261.263 216.949 260.931 216.949C260.598 216.949 260.306 217.02 260.056 217.161C259.81 217.298 259.616 217.494 259.475 217.749C259.338 218.004 259.27 218.307 259.27 218.658C259.27 219 259.338 219.299 259.475 219.554C259.616 219.809 259.812 220.007 260.062 220.148C260.313 220.29 260.605 220.36 260.938 220.36C261.27 220.36 261.56 220.29 261.806 220.148C262.056 220.007 262.252 219.809 262.394 219.554C262.535 219.299 262.605 219 262.605 218.658Z" fill="black" fill-opacity="0.87"/>
<path d="M218.474 224.961V226H211.959V225.091L215.22 221.461C215.621 221.014 215.931 220.636 216.149 220.326C216.373 220.012 216.528 219.731 216.614 219.485C216.705 219.235 216.751 218.979 216.751 218.72C216.751 218.392 216.683 218.095 216.546 217.831C216.414 217.562 216.218 217.348 215.958 217.188C215.698 217.029 215.384 216.949 215.015 216.949C214.573 216.949 214.203 217.036 213.907 217.209C213.616 217.378 213.397 217.615 213.251 217.92C213.105 218.225 213.032 218.576 213.032 218.973H211.768C211.768 218.412 211.891 217.899 212.137 217.435C212.383 216.97 212.747 216.601 213.23 216.327C213.714 216.049 214.308 215.91 215.015 215.91C215.644 215.91 216.181 216.022 216.628 216.245C217.075 216.464 217.416 216.774 217.653 217.175C217.895 217.571 218.016 218.036 218.016 218.569C218.016 218.861 217.965 219.157 217.865 219.458C217.77 219.754 217.635 220.05 217.462 220.347C217.293 220.643 217.095 220.935 216.867 221.222C216.644 221.509 216.405 221.791 216.149 222.069L213.483 224.961H218.474ZM226.26 216.047V216.758L222.138 226H220.805L224.92 217.086H219.533V216.047H226.26Z" fill="black" fill-opacity="0.87"/>
<path d="M180.474 224.961V226H173.959V225.091L177.22 221.461C177.621 221.014 177.931 220.636 178.149 220.326C178.373 220.012 178.528 219.731 178.614 219.485C178.705 219.235 178.751 218.979 178.751 218.72C178.751 218.392 178.683 218.095 178.546 217.831C178.414 217.562 178.218 217.348 177.958 217.188C177.698 217.029 177.384 216.949 177.015 216.949C176.573 216.949 176.203 217.036 175.907 217.209C175.616 217.378 175.397 217.615 175.251 217.92C175.105 218.225 175.032 218.576 175.032 218.973H173.768C173.768 218.412 173.891 217.899 174.137 217.435C174.383 216.97 174.747 216.601 175.23 216.327C175.714 216.049 176.308 215.91 177.015 215.91C177.644 215.91 178.181 216.022 178.628 216.245C179.075 216.464 179.416 216.774 179.653 217.175C179.895 217.571 180.016 218.036 180.016 218.569C180.016 218.861 179.965 219.157 179.865 219.458C179.77 219.754 179.635 220.05 179.462 220.347C179.293 220.643 179.095 220.935 178.867 221.222C178.644 221.509 178.405 221.791 178.149 222.069L175.483 224.961H180.474ZM186.681 216.033H186.79V217.106H186.681C186.011 217.106 185.45 217.216 184.999 217.435C184.548 217.649 184.19 217.938 183.926 218.303C183.661 218.663 183.47 219.068 183.352 219.52C183.238 219.971 183.181 220.429 183.181 220.894V222.356C183.181 222.799 183.233 223.19 183.338 223.532C183.443 223.869 183.586 224.154 183.769 224.387C183.951 224.619 184.156 224.795 184.384 224.913C184.616 225.032 184.858 225.091 185.108 225.091C185.4 225.091 185.66 225.036 185.888 224.927C186.116 224.813 186.307 224.656 186.462 224.455C186.621 224.25 186.742 224.008 186.824 223.73C186.906 223.452 186.947 223.147 186.947 222.814C186.947 222.518 186.911 222.233 186.838 221.96C186.765 221.682 186.653 221.436 186.503 221.222C186.353 221.003 186.163 220.832 185.936 220.709C185.712 220.581 185.446 220.518 185.136 220.518C184.785 220.518 184.457 220.604 184.151 220.777C183.851 220.946 183.602 221.169 183.406 221.447C183.215 221.721 183.105 222.019 183.078 222.343L182.408 222.336C182.472 221.826 182.59 221.39 182.764 221.03C182.941 220.666 183.16 220.369 183.42 220.142C183.684 219.909 183.978 219.741 184.302 219.636C184.63 219.526 184.976 219.472 185.341 219.472C185.838 219.472 186.266 219.565 186.626 219.752C186.986 219.939 187.282 220.189 187.515 220.504C187.747 220.814 187.918 221.165 188.027 221.557C188.141 221.944 188.198 222.343 188.198 222.753C188.198 223.222 188.132 223.662 188 224.072C187.868 224.482 187.67 224.842 187.405 225.152C187.146 225.462 186.824 225.704 186.441 225.877C186.059 226.05 185.614 226.137 185.108 226.137C184.571 226.137 184.101 226.027 183.7 225.809C183.299 225.585 182.966 225.289 182.702 224.92C182.438 224.551 182.24 224.141 182.107 223.689C181.975 223.238 181.909 222.78 181.909 222.315V221.721C181.909 221.019 181.98 220.331 182.121 219.656C182.262 218.982 182.506 218.371 182.853 217.824C183.203 217.277 183.689 216.842 184.309 216.519C184.928 216.195 185.719 216.033 186.681 216.033Z" fill="black" fill-opacity="0.87"/>
<path d="M142.474 224.961V226H135.959V225.091L139.22 221.461C139.621 221.014 139.931 220.636 140.149 220.326C140.373 220.012 140.528 219.731 140.614 219.485C140.705 219.235 140.751 218.979 140.751 218.72C140.751 218.392 140.683 218.095 140.546 217.831C140.414 217.562 140.218 217.348 139.958 217.188C139.698 217.029 139.384 216.949 139.015 216.949C138.573 216.949 138.203 217.036 137.907 217.209C137.616 217.378 137.397 217.615 137.251 217.92C137.105 218.225 137.032 218.576 137.032 218.973H135.768C135.768 218.412 135.891 217.899 136.137 217.435C136.383 216.97 136.747 216.601 137.23 216.327C137.714 216.049 138.308 215.91 139.015 215.91C139.644 215.91 140.181 216.022 140.628 216.245C141.075 216.464 141.416 216.774 141.653 217.175C141.895 217.571 142.016 218.036 142.016 218.569C142.016 218.861 141.965 219.157 141.865 219.458C141.77 219.754 141.635 220.05 141.462 220.347C141.293 220.643 141.095 220.935 140.867 221.222C140.644 221.509 140.405 221.791 140.149 222.069L137.483 224.961H142.474ZM145.427 221.263L144.415 221.003L144.914 216.047H150.021V217.216H145.987L145.687 219.923C145.869 219.818 146.099 219.72 146.377 219.629C146.66 219.538 146.983 219.492 147.348 219.492C147.808 219.492 148.22 219.572 148.585 219.731C148.95 219.886 149.259 220.11 149.515 220.401C149.774 220.693 149.973 221.044 150.109 221.454C150.246 221.864 150.314 222.322 150.314 222.828C150.314 223.307 150.248 223.746 150.116 224.147C149.989 224.549 149.795 224.899 149.535 225.2C149.275 225.496 148.947 225.727 148.551 225.891C148.159 226.055 147.696 226.137 147.163 226.137C146.762 226.137 146.382 226.082 146.021 225.973C145.666 225.859 145.347 225.688 145.064 225.46C144.786 225.228 144.559 224.94 144.381 224.599C144.208 224.252 144.098 223.847 144.053 223.382H145.256C145.311 223.756 145.42 224.07 145.584 224.325C145.748 224.58 145.962 224.774 146.227 224.906C146.495 225.034 146.808 225.098 147.163 225.098C147.464 225.098 147.73 225.045 147.963 224.94C148.195 224.836 148.391 224.685 148.551 224.489C148.71 224.293 148.831 224.056 148.913 223.778C149 223.5 149.043 223.188 149.043 222.842C149.043 222.527 149 222.236 148.913 221.967C148.826 221.698 148.697 221.463 148.523 221.263C148.355 221.062 148.147 220.907 147.901 220.798C147.655 220.684 147.373 220.627 147.054 220.627C146.63 220.627 146.309 220.684 146.09 220.798C145.876 220.912 145.655 221.067 145.427 221.263Z" fill="black" fill-opacity="0.87"/>
<path d="M104.474 224.961V226H97.959V225.091L101.22 221.461C101.621 221.014 101.931 220.636 102.149 220.326C102.373 220.012 102.528 219.731 102.614 219.485C102.705 219.235 102.751 218.979 102.751 218.72C102.751 218.392 102.683 218.095 102.546 217.831C102.414 217.562 102.218 217.348 101.958 217.188C101.698 217.029 101.384 216.949 101.015 216.949C100.573 216.949 100.203 217.036 99.9072 217.209C99.6156 217.378 99.3968 217.615 99.251 217.92C99.1051 218.225 99.0322 218.576 99.0322 218.973H97.7676C97.7676 218.412 97.8906 217.899 98.1367 217.435C98.3828 216.97 98.7474 216.601 99.2305 216.327C99.7135 216.049 100.308 215.91 101.015 215.91C101.644 215.91 102.181 216.022 102.628 216.245C103.075 216.464 103.416 216.774 103.653 217.175C103.895 217.571 104.016 218.036 104.016 218.569C104.016 218.861 103.965 219.157 103.865 219.458C103.77 219.754 103.635 220.05 103.462 220.347C103.293 220.643 103.095 220.935 102.867 221.222C102.644 221.509 102.405 221.791 102.149 222.069L99.4834 224.961H104.474ZM112.554 222.65V223.689H105.362V222.944L109.819 216.047H110.852L109.744 218.043L106.798 222.65H112.554ZM111.166 216.047V226H109.901V216.047H111.166Z" fill="black" fill-opacity="0.87"/>
<path d="M66.4736 224.961V226H59.959V225.091L63.2197 221.461C63.6208 221.014 63.9307 220.636 64.1494 220.326C64.3727 220.012 64.5277 219.731 64.6143 219.485C64.7054 219.235 64.751 218.979 64.751 218.72C64.751 218.392 64.6826 218.095 64.5459 217.831C64.4137 217.562 64.2178 217.348 63.958 217.188C63.6982 217.029 63.3838 216.949 63.0146 216.949C62.5726 216.949 62.2035 217.036 61.9072 217.209C61.6156 217.378 61.3968 217.615 61.251 217.92C61.1051 218.225 61.0322 218.576 61.0322 218.973H59.7676C59.7676 218.412 59.8906 217.899 60.1367 217.435C60.3828 216.97 60.7474 216.601 61.2305 216.327C61.7135 216.049 62.3083 215.91 63.0146 215.91C63.6436 215.91 64.1813 216.022 64.6279 216.245C65.0745 216.464 65.4163 216.774 65.6533 217.175C65.8949 217.571 66.0156 218.036 66.0156 218.569C66.0156 218.861 65.9655 219.157 65.8652 219.458C65.7695 219.754 65.6351 220.05 65.4619 220.347C65.2933 220.643 65.0951 220.935 64.8672 221.222C64.6439 221.509 64.4046 221.791 64.1494 222.069L61.4834 224.961H66.4736ZM69.6729 220.401H70.5752C71.0173 220.401 71.3818 220.328 71.6689 220.183C71.9606 220.032 72.1771 219.829 72.3184 219.574C72.4642 219.314 72.5371 219.023 72.5371 218.699C72.5371 218.316 72.4733 217.995 72.3457 217.735C72.2181 217.476 72.0267 217.28 71.7715 217.147C71.5163 217.015 71.1927 216.949 70.8008 216.949C70.4453 216.949 70.1309 217.02 69.8574 217.161C69.5885 217.298 69.3766 217.494 69.2217 217.749C69.0713 218.004 68.9961 218.305 68.9961 218.651H67.7314C67.7314 218.146 67.859 217.685 68.1143 217.271C68.3695 216.856 68.7272 216.525 69.1875 216.279C69.6523 216.033 70.1901 215.91 70.8008 215.91C71.4023 215.91 71.9287 216.017 72.3799 216.231C72.8311 216.441 73.182 216.756 73.4326 217.175C73.6833 217.59 73.8086 218.107 73.8086 218.727C73.8086 218.977 73.7493 219.246 73.6309 219.533C73.5169 219.816 73.3369 220.08 73.0908 220.326C72.8493 220.572 72.5348 220.775 72.1475 220.935C71.7601 221.09 71.2952 221.167 70.7529 221.167H69.6729V220.401ZM69.6729 221.44V220.682H70.7529C71.3864 220.682 71.9105 220.757 72.3252 220.907C72.7399 221.058 73.0658 221.258 73.3027 221.509C73.5443 221.759 73.7129 222.035 73.8086 222.336C73.9089 222.632 73.959 222.928 73.959 223.225C73.959 223.689 73.8792 224.102 73.7197 224.462C73.5648 224.822 73.3438 225.127 73.0566 225.378C72.7741 225.629 72.4414 225.818 72.0586 225.945C71.6758 226.073 71.2588 226.137 70.8076 226.137C70.3747 226.137 69.9668 226.075 69.584 225.952C69.2057 225.829 68.8708 225.651 68.5791 225.419C68.2874 225.182 68.0596 224.893 67.8955 224.551C67.7314 224.204 67.6494 223.81 67.6494 223.368H68.9141C68.9141 223.715 68.9893 224.018 69.1396 224.277C69.2946 224.537 69.5133 224.74 69.7959 224.886C70.083 225.027 70.4202 225.098 70.8076 225.098C71.195 225.098 71.5277 225.032 71.8057 224.899C72.0882 224.763 72.3047 224.558 72.4551 224.284C72.61 224.011 72.6875 223.667 72.6875 223.252C72.6875 222.837 72.6009 222.498 72.4277 222.233C72.2546 221.965 72.0085 221.766 71.6895 221.639C71.375 221.507 71.0036 221.44 70.5752 221.44H69.6729Z" fill="black" fill-opacity="0.87"/>
<path d="M28.4736 224.961V226H21.959V225.091L25.2197 221.461C25.6208 221.014 25.9307 220.636 26.1494 220.326C26.3727 220.012 26.5277 219.731 26.6143 219.485C26.7054 219.235 26.751 218.979 26.751 218.72C26.751 218.392 26.6826 218.095 26.5459 217.831C26.4137 217.562 26.2178 217.348 25.958 217.188C25.6982 217.029 25.3838 216.949 25.0146 216.949C24.5726 216.949 24.2035 217.036 23.9072 217.209C23.6156 217.378 23.3968 217.615 23.251 217.92C23.1051 218.225 23.0322 218.576 23.0322 218.973H21.7676C21.7676 218.412 21.8906 217.899 22.1367 217.435C22.3828 216.97 22.7474 216.601 23.2305 216.327C23.7135 216.049 24.3083 215.91 25.0146 215.91C25.6436 215.91 26.1813 216.022 26.6279 216.245C27.0745 216.464 27.4163 216.774 27.6533 217.175C27.8949 217.571 28.0156 218.036 28.0156 218.569C28.0156 218.861 27.9655 219.157 27.8652 219.458C27.7695 219.754 27.6351 220.05 27.4619 220.347C27.2933 220.643 27.0951 220.935 26.8672 221.222C26.6439 221.509 26.4046 221.791 26.1494 222.069L23.4834 224.961H28.4736ZM36.3486 224.961V226H29.834V225.091L33.0947 221.461C33.4958 221.014 33.8057 220.636 34.0244 220.326C34.2477 220.012 34.4027 219.731 34.4893 219.485C34.5804 219.235 34.626 218.979 34.626 218.72C34.626 218.392 34.5576 218.095 34.4209 217.831C34.2887 217.562 34.0928 217.348 33.833 217.188C33.5732 217.029 33.2588 216.949 32.8896 216.949C32.4476 216.949 32.0785 217.036 31.7822 217.209C31.4906 217.378 31.2718 217.615 31.126 217.92C30.9801 218.225 30.9072 218.576 30.9072 218.973H29.6426C29.6426 218.412 29.7656 217.899 30.0117 217.435C30.2578 216.97 30.6224 216.601 31.1055 216.327C31.5885 216.049 32.1833 215.91 32.8896 215.91C33.5186 215.91 34.0563 216.022 34.5029 216.245C34.9495 216.464 35.2913 216.774 35.5283 217.175C35.7699 217.571 35.8906 218.036 35.8906 218.569C35.8906 218.861 35.8405 219.157 35.7402 219.458C35.6445 219.754 35.5101 220.05 35.3369 220.347C35.1683 220.643 34.9701 220.935 34.7422 221.222C34.5189 221.509 34.2796 221.791 34.0244 222.069L31.3584 224.961H36.3486Z" fill="black" fill-opacity="0.87"/>
<path d="M256.474 188.961V190H249.959V189.091L253.22 185.461C253.621 185.014 253.931 184.636 254.149 184.326C254.373 184.012 254.528 183.731 254.614 183.485C254.705 183.235 254.751 182.979 254.751 182.72C254.751 182.392 254.683 182.095 254.546 181.831C254.414 181.562 254.218 181.348 253.958 181.188C253.698 181.029 253.384 180.949 253.015 180.949C252.573 180.949 252.203 181.036 251.907 181.209C251.616 181.378 251.397 181.615 251.251 181.92C251.105 182.225 251.032 182.576 251.032 182.973H249.768C249.768 182.412 249.891 181.899 250.137 181.435C250.383 180.97 250.747 180.601 251.23 180.327C251.714 180.049 252.308 179.91 253.015 179.91C253.644 179.91 254.181 180.022 254.628 180.245C255.075 180.464 255.416 180.774 255.653 181.175C255.895 181.571 256.016 182.036 256.016 182.569C256.016 182.861 255.965 183.157 255.865 183.458C255.77 183.754 255.635 184.05 255.462 184.347C255.293 184.643 255.095 184.935 254.867 185.222C254.644 185.509 254.405 185.791 254.149 186.069L251.483 188.961H256.474ZM261.983 179.992V190H260.719V181.571L258.169 182.501V181.359L261.785 179.992H261.983Z" fill="black" fill-opacity="0.87"/>
<path d="M218.474 188.961V190H211.959V189.091L215.22 185.461C215.621 185.014 215.931 184.636 216.149 184.326C216.373 184.012 216.528 183.731 216.614 183.485C216.705 183.235 216.751 182.979 216.751 182.72C216.751 182.392 216.683 182.095 216.546 181.831C216.414 181.562 216.218 181.348 215.958 181.188C215.698 181.029 215.384 180.949 215.015 180.949C214.573 180.949 214.203 181.036 213.907 181.209C213.616 181.378 213.397 181.615 213.251 181.92C213.105 182.225 213.032 182.576 213.032 182.973H211.768C211.768 182.412 211.891 181.899 212.137 181.435C212.383 180.97 212.747 180.601 213.23 180.327C213.714 180.049 214.308 179.91 215.015 179.91C215.644 179.91 216.181 180.022 216.628 180.245C217.075 180.464 217.416 180.774 217.653 181.175C217.895 181.571 218.016 182.036 218.016 182.569C218.016 182.861 217.965 183.157 217.865 183.458C217.77 183.754 217.635 184.05 217.462 184.347C217.293 184.643 217.095 184.935 216.867 185.222C216.644 185.509 216.405 185.791 216.149 186.069L213.483 188.961H218.474ZM226.075 184.23V185.748C226.075 186.564 226.002 187.252 225.856 187.812C225.711 188.373 225.501 188.824 225.228 189.166C224.954 189.508 224.624 189.756 224.236 189.911C223.854 190.062 223.421 190.137 222.938 190.137C222.555 190.137 222.201 190.089 221.878 189.993C221.554 189.897 221.263 189.745 221.003 189.535C220.748 189.321 220.529 189.043 220.347 188.701C220.164 188.359 220.025 187.945 219.93 187.457C219.834 186.969 219.786 186.4 219.786 185.748V184.23C219.786 183.415 219.859 182.731 220.005 182.18C220.155 181.628 220.367 181.186 220.641 180.854C220.914 180.516 221.242 180.275 221.625 180.129C222.012 179.983 222.445 179.91 222.924 179.91C223.311 179.91 223.667 179.958 223.99 180.054C224.318 180.145 224.61 180.293 224.865 180.498C225.12 180.699 225.337 180.967 225.515 181.305C225.697 181.637 225.836 182.045 225.932 182.528C226.027 183.011 226.075 183.579 226.075 184.23ZM224.804 185.953V184.019C224.804 183.572 224.776 183.18 224.722 182.843C224.672 182.501 224.596 182.209 224.496 181.968C224.396 181.726 224.268 181.53 224.113 181.38C223.963 181.229 223.787 181.12 223.587 181.052C223.391 180.979 223.17 180.942 222.924 180.942C222.623 180.942 222.356 180.999 222.124 181.113C221.892 181.223 221.696 181.398 221.536 181.64C221.381 181.881 221.263 182.198 221.181 182.59C221.099 182.982 221.058 183.458 221.058 184.019V185.953C221.058 186.4 221.083 186.794 221.133 187.136C221.188 187.478 221.267 187.774 221.372 188.024C221.477 188.271 221.604 188.473 221.755 188.633C221.905 188.792 222.078 188.911 222.274 188.988C222.475 189.061 222.696 189.098 222.938 189.098C223.247 189.098 223.519 189.038 223.751 188.92C223.983 188.801 224.177 188.617 224.332 188.366C224.492 188.111 224.61 187.785 224.688 187.389C224.765 186.988 224.804 186.509 224.804 185.953Z" fill="black" fill-opacity="0.87"/>
<path d="M178.108 179.992V190H176.844V181.571L174.294 182.501V181.359L177.91 179.992H178.108ZM183.085 188.94H183.215C183.944 188.94 184.536 188.838 184.992 188.633C185.448 188.428 185.799 188.152 186.045 187.806C186.291 187.459 186.46 187.07 186.551 186.637C186.642 186.199 186.688 185.75 186.688 185.29V183.766C186.688 183.314 186.635 182.913 186.53 182.562C186.43 182.212 186.289 181.918 186.106 181.681C185.929 181.444 185.726 181.264 185.498 181.141C185.27 181.018 185.029 180.956 184.773 180.956C184.482 180.956 184.22 181.015 183.987 181.134C183.759 181.248 183.566 181.41 183.406 181.619C183.251 181.829 183.133 182.075 183.051 182.357C182.969 182.64 182.928 182.948 182.928 183.28C182.928 183.576 182.964 183.864 183.037 184.142C183.11 184.42 183.222 184.67 183.372 184.894C183.522 185.117 183.709 185.295 183.933 185.427C184.16 185.554 184.427 185.618 184.732 185.618C185.015 185.618 185.279 185.563 185.525 185.454C185.776 185.34 185.997 185.188 186.188 184.996C186.384 184.8 186.539 184.579 186.653 184.333C186.772 184.087 186.84 183.829 186.858 183.561H187.46C187.46 183.939 187.385 184.312 187.234 184.682C187.089 185.046 186.883 185.379 186.619 185.68C186.355 185.98 186.045 186.222 185.689 186.404C185.334 186.582 184.947 186.671 184.527 186.671C184.035 186.671 183.609 186.575 183.249 186.384C182.889 186.192 182.593 185.937 182.36 185.618C182.132 185.299 181.962 184.944 181.848 184.552C181.738 184.155 181.684 183.754 181.684 183.349C181.684 182.875 181.75 182.43 181.882 182.016C182.014 181.601 182.21 181.236 182.47 180.922C182.729 180.603 183.051 180.354 183.434 180.177C183.821 179.999 184.268 179.91 184.773 179.91C185.343 179.91 185.828 180.024 186.229 180.252C186.631 180.48 186.956 180.785 187.207 181.168C187.462 181.551 187.649 181.981 187.768 182.46C187.886 182.938 187.945 183.431 187.945 183.937V184.395C187.945 184.91 187.911 185.434 187.843 185.967C187.779 186.495 187.654 187.001 187.467 187.484C187.285 187.967 187.018 188.4 186.667 188.783C186.316 189.161 185.858 189.462 185.293 189.686C184.732 189.904 184.04 190.014 183.215 190.014H183.085V188.94Z" fill="black" fill-opacity="0.87"/>
<path d="M140.108 179.992V190H138.844V181.571L136.294 182.501V181.359L139.91 179.992H140.108ZM150.103 187.307C150.103 187.913 149.961 188.428 149.679 188.852C149.401 189.271 149.022 189.59 148.544 189.809C148.07 190.027 147.535 190.137 146.938 190.137C146.34 190.137 145.803 190.027 145.324 189.809C144.846 189.59 144.467 189.271 144.189 188.852C143.911 188.428 143.772 187.913 143.772 187.307C143.772 186.91 143.848 186.548 143.998 186.22C144.153 185.887 144.369 185.598 144.647 185.352C144.93 185.105 145.263 184.916 145.646 184.784C146.033 184.647 146.459 184.579 146.924 184.579C147.535 184.579 148.079 184.698 148.558 184.935C149.036 185.167 149.412 185.488 149.686 185.898C149.964 186.309 150.103 186.778 150.103 187.307ZM148.831 187.279C148.831 186.91 148.751 186.584 148.592 186.302C148.432 186.015 148.209 185.791 147.922 185.632C147.635 185.472 147.302 185.393 146.924 185.393C146.536 185.393 146.201 185.472 145.919 185.632C145.641 185.791 145.424 186.015 145.27 186.302C145.115 186.584 145.037 186.91 145.037 187.279C145.037 187.662 145.112 187.99 145.263 188.264C145.418 188.533 145.636 188.74 145.919 188.886C146.206 189.027 146.546 189.098 146.938 189.098C147.329 189.098 147.667 189.027 147.949 188.886C148.232 188.74 148.448 188.533 148.599 188.264C148.754 187.99 148.831 187.662 148.831 187.279ZM149.87 182.638C149.87 183.121 149.743 183.556 149.487 183.943C149.232 184.331 148.883 184.636 148.441 184.859C147.999 185.083 147.498 185.194 146.938 185.194C146.368 185.194 145.86 185.083 145.413 184.859C144.971 184.636 144.625 184.331 144.374 183.943C144.123 183.556 143.998 183.121 143.998 182.638C143.998 182.059 144.123 181.567 144.374 181.161C144.629 180.756 144.978 180.446 145.42 180.231C145.862 180.017 146.366 179.91 146.931 179.91C147.5 179.91 148.006 180.017 148.448 180.231C148.89 180.446 149.237 180.756 149.487 181.161C149.743 181.567 149.87 182.059 149.87 182.638ZM148.605 182.658C148.605 182.326 148.535 182.032 148.394 181.776C148.252 181.521 148.056 181.321 147.806 181.175C147.555 181.024 147.263 180.949 146.931 180.949C146.598 180.949 146.306 181.02 146.056 181.161C145.81 181.298 145.616 181.494 145.475 181.749C145.338 182.004 145.27 182.307 145.27 182.658C145.27 183 145.338 183.299 145.475 183.554C145.616 183.809 145.812 184.007 146.062 184.148C146.313 184.29 146.605 184.36 146.938 184.36C147.27 184.36 147.56 184.29 147.806 184.148C148.056 184.007 148.252 183.809 148.394 183.554C148.535 183.299 148.605 183 148.605 182.658Z" fill="black" fill-opacity="0.87"/>
<path d="M102.108 179.992V190H100.844V181.571L98.2939 182.501V181.359L101.91 179.992H102.108ZM112.26 180.047V180.758L108.138 190H106.805L110.92 181.086H105.533V180.047H112.26Z" fill="black" fill-opacity="0.87"/>
<path d="M64.1084 179.992V190H62.8438V181.571L60.2939 182.501V181.359L63.9102 179.992H64.1084ZM72.6807 180.033H72.79V181.106H72.6807C72.0107 181.106 71.4502 181.216 70.999 181.435C70.5479 181.649 70.1901 181.938 69.9258 182.303C69.6615 182.663 69.4701 183.068 69.3516 183.52C69.2376 183.971 69.1807 184.429 69.1807 184.894V186.356C69.1807 186.799 69.2331 187.19 69.3379 187.532C69.4427 187.869 69.5863 188.154 69.7686 188.387C69.9508 188.619 70.1559 188.795 70.3838 188.913C70.6162 189.032 70.8577 189.091 71.1084 189.091C71.4001 189.091 71.6598 189.036 71.8877 188.927C72.1156 188.813 72.307 188.656 72.4619 188.455C72.6214 188.25 72.7422 188.008 72.8242 187.73C72.9062 187.452 72.9473 187.147 72.9473 186.814C72.9473 186.518 72.9108 186.233 72.8379 185.96C72.765 185.682 72.6533 185.436 72.5029 185.222C72.3525 185.003 72.1634 184.832 71.9355 184.709C71.7122 184.581 71.4456 184.518 71.1357 184.518C70.7848 184.518 70.4567 184.604 70.1514 184.777C69.8506 184.946 69.6022 185.169 69.4062 185.447C69.2148 185.721 69.1055 186.019 69.0781 186.343L68.4082 186.336C68.472 185.826 68.5905 185.39 68.7637 185.03C68.9414 184.666 69.1602 184.369 69.4199 184.142C69.6842 183.909 69.9782 183.741 70.3018 183.636C70.6299 183.526 70.9762 183.472 71.3408 183.472C71.8376 183.472 72.266 183.565 72.626 183.752C72.986 183.939 73.2822 184.189 73.5146 184.504C73.7471 184.814 73.918 185.165 74.0273 185.557C74.1413 185.944 74.1982 186.343 74.1982 186.753C74.1982 187.222 74.1322 187.662 74 188.072C73.8678 188.482 73.6696 188.842 73.4053 189.152C73.1455 189.462 72.8242 189.704 72.4414 189.877C72.0586 190.05 71.6143 190.137 71.1084 190.137C70.5706 190.137 70.1012 190.027 69.7002 189.809C69.2992 189.585 68.9665 189.289 68.7021 188.92C68.4378 188.551 68.2396 188.141 68.1074 187.689C67.9753 187.238 67.9092 186.78 67.9092 186.315V185.721C67.9092 185.019 67.9798 184.331 68.1211 183.656C68.2624 182.982 68.5062 182.371 68.8525 181.824C69.2035 181.277 69.6888 180.842 70.3086 180.519C70.9284 180.195 71.7191 180.033 72.6807 180.033Z" fill="black" fill-opacity="0.87"/>
<path d="M26.1084 179.992V190H24.8438V181.571L22.2939 182.501V181.359L25.9102 179.992H26.1084ZM31.4268 185.263L30.415 185.003L30.9141 180.047H36.0205V181.216H31.9873L31.6865 183.923C31.8688 183.818 32.099 183.72 32.377 183.629C32.6595 183.538 32.9831 183.492 33.3477 183.492C33.8079 183.492 34.2204 183.572 34.585 183.731C34.9495 183.886 35.2594 184.11 35.5146 184.401C35.7744 184.693 35.9727 185.044 36.1094 185.454C36.2461 185.864 36.3145 186.322 36.3145 186.828C36.3145 187.307 36.2484 187.746 36.1162 188.147C35.9886 188.549 35.7949 188.899 35.5352 189.2C35.2754 189.496 34.9473 189.727 34.5508 189.891C34.1589 190.055 33.6963 190.137 33.1631 190.137C32.762 190.137 32.3815 190.082 32.0215 189.973C31.666 189.859 31.347 189.688 31.0645 189.46C30.7865 189.228 30.5586 188.94 30.3809 188.599C30.2077 188.252 30.0983 187.847 30.0527 187.382H31.2559C31.3105 187.756 31.4199 188.07 31.584 188.325C31.748 188.58 31.9622 188.774 32.2266 188.906C32.4954 189.034 32.8076 189.098 33.1631 189.098C33.4639 189.098 33.7305 189.045 33.9629 188.94C34.1953 188.836 34.3913 188.685 34.5508 188.489C34.7103 188.293 34.8311 188.056 34.9131 187.778C34.9997 187.5 35.043 187.188 35.043 186.842C35.043 186.527 34.9997 186.236 34.9131 185.967C34.8265 185.698 34.6966 185.463 34.5234 185.263C34.3548 185.062 34.1475 184.907 33.9014 184.798C33.6553 184.684 33.3727 184.627 33.0537 184.627C32.6299 184.627 32.3086 184.684 32.0898 184.798C31.8757 184.912 31.6546 185.067 31.4268 185.263Z" fill="black" fill-opacity="0.87"/>
<path d="M254.108 143.992V154H252.844V145.571L250.294 146.501V145.359L253.91 143.992H254.108ZM264.554 150.65V151.689H257.362V150.944L261.819 144.047H262.852L261.744 146.043L258.798 150.65H264.554ZM263.166 144.047V154H261.901V144.047H263.166Z" fill="black" fill-opacity="0.87"/>
<path d="M216.108 143.992V154H214.844V145.571L212.294 146.501V145.359L215.91 143.992H216.108ZM221.673 148.401H222.575C223.017 148.401 223.382 148.328 223.669 148.183C223.961 148.032 224.177 147.829 224.318 147.574C224.464 147.314 224.537 147.023 224.537 146.699C224.537 146.316 224.473 145.995 224.346 145.735C224.218 145.476 224.027 145.28 223.771 145.147C223.516 145.015 223.193 144.949 222.801 144.949C222.445 144.949 222.131 145.02 221.857 145.161C221.589 145.298 221.377 145.494 221.222 145.749C221.071 146.004 220.996 146.305 220.996 146.651H219.731C219.731 146.146 219.859 145.685 220.114 145.271C220.369 144.856 220.727 144.525 221.188 144.279C221.652 144.033 222.19 143.91 222.801 143.91C223.402 143.91 223.929 144.017 224.38 144.231C224.831 144.441 225.182 144.756 225.433 145.175C225.683 145.59 225.809 146.107 225.809 146.727C225.809 146.977 225.749 147.246 225.631 147.533C225.517 147.816 225.337 148.08 225.091 148.326C224.849 148.572 224.535 148.775 224.147 148.935C223.76 149.09 223.295 149.167 222.753 149.167H221.673V148.401ZM221.673 149.44V148.682H222.753C223.386 148.682 223.91 148.757 224.325 148.907C224.74 149.058 225.066 149.258 225.303 149.509C225.544 149.759 225.713 150.035 225.809 150.336C225.909 150.632 225.959 150.928 225.959 151.225C225.959 151.689 225.879 152.102 225.72 152.462C225.565 152.822 225.344 153.127 225.057 153.378C224.774 153.629 224.441 153.818 224.059 153.945C223.676 154.073 223.259 154.137 222.808 154.137C222.375 154.137 221.967 154.075 221.584 153.952C221.206 153.829 220.871 153.651 220.579 153.419C220.287 153.182 220.06 152.893 219.896 152.551C219.731 152.204 219.649 151.81 219.649 151.368H220.914C220.914 151.715 220.989 152.018 221.14 152.277C221.295 152.537 221.513 152.74 221.796 152.886C222.083 153.027 222.42 153.098 222.808 153.098C223.195 153.098 223.528 153.032 223.806 152.899C224.088 152.763 224.305 152.558 224.455 152.284C224.61 152.011 224.688 151.667 224.688 151.252C224.688 150.837 224.601 150.498 224.428 150.233C224.255 149.965 224.008 149.766 223.689 149.639C223.375 149.507 223.004 149.44 222.575 149.44H221.673Z" fill="black" fill-opacity="0.87"/>
<path d="M178.108 143.992V154H176.844V145.571L174.294 146.501V145.359L177.91 143.992H178.108ZM188.349 152.961V154H181.834V153.091L185.095 149.461C185.496 149.014 185.806 148.636 186.024 148.326C186.248 148.012 186.403 147.731 186.489 147.485C186.58 147.235 186.626 146.979 186.626 146.72C186.626 146.392 186.558 146.095 186.421 145.831C186.289 145.562 186.093 145.348 185.833 145.188C185.573 145.029 185.259 144.949 184.89 144.949C184.448 144.949 184.078 145.036 183.782 145.209C183.491 145.378 183.272 145.615 183.126 145.92C182.98 146.225 182.907 146.576 182.907 146.973H181.643C181.643 146.412 181.766 145.899 182.012 145.435C182.258 144.97 182.622 144.601 183.105 144.327C183.589 144.049 184.183 143.91 184.89 143.91C185.519 143.91 186.056 144.022 186.503 144.245C186.95 144.464 187.291 144.774 187.528 145.175C187.77 145.571 187.891 146.036 187.891 146.569C187.891 146.861 187.84 147.157 187.74 147.458C187.645 147.754 187.51 148.05 187.337 148.347C187.168 148.643 186.97 148.935 186.742 149.222C186.519 149.509 186.28 149.791 186.024 150.069L183.358 152.961H188.349Z" fill="black" fill-opacity="0.87"/>
<path d="M124 149C124 139.059 132.059 131 142 131H144C153.941 131 162 139.059 162 149C162 158.941 153.941 167 144 167H142C132.059 167 124 158.941 124 149Z" fill="#0066FF"/>
<path d="M140.443 144.026V154H138.475V146.296L136.109 147.048V145.496L140.231 144.026H140.443ZM148.482 144.026V154H146.514V146.296L144.148 147.048V145.496L148.271 144.026H148.482Z" fill="white" fill-opacity="0.87"/>
<path d="M102.108 143.992V154H100.844V145.571L98.2939 146.501V145.359L101.91 143.992H102.108ZM112.075 148.23V149.748C112.075 150.564 112.002 151.252 111.856 151.812C111.711 152.373 111.501 152.824 111.228 153.166C110.954 153.508 110.624 153.756 110.236 153.911C109.854 154.062 109.421 154.137 108.938 154.137C108.555 154.137 108.201 154.089 107.878 153.993C107.554 153.897 107.263 153.745 107.003 153.535C106.748 153.321 106.529 153.043 106.347 152.701C106.164 152.359 106.025 151.945 105.93 151.457C105.834 150.969 105.786 150.4 105.786 149.748V148.23C105.786 147.415 105.859 146.731 106.005 146.18C106.155 145.628 106.367 145.186 106.641 144.854C106.914 144.516 107.242 144.275 107.625 144.129C108.012 143.983 108.445 143.91 108.924 143.91C109.311 143.91 109.667 143.958 109.99 144.054C110.318 144.145 110.61 144.293 110.865 144.498C111.12 144.699 111.337 144.967 111.515 145.305C111.697 145.637 111.836 146.045 111.932 146.528C112.027 147.011 112.075 147.579 112.075 148.23ZM110.804 149.953V148.019C110.804 147.572 110.776 147.18 110.722 146.843C110.672 146.501 110.596 146.209 110.496 145.968C110.396 145.726 110.268 145.53 110.113 145.38C109.963 145.229 109.787 145.12 109.587 145.052C109.391 144.979 109.17 144.942 108.924 144.942C108.623 144.942 108.356 144.999 108.124 145.113C107.892 145.223 107.696 145.398 107.536 145.64C107.381 145.881 107.263 146.198 107.181 146.59C107.099 146.982 107.058 147.458 107.058 148.019V149.953C107.058 150.4 107.083 150.794 107.133 151.136C107.188 151.478 107.267 151.774 107.372 152.024C107.477 152.271 107.604 152.473 107.755 152.633C107.905 152.792 108.078 152.911 108.274 152.988C108.475 153.061 108.696 153.098 108.938 153.098C109.247 153.098 109.519 153.038 109.751 152.92C109.983 152.801 110.177 152.617 110.332 152.366C110.492 152.111 110.61 151.785 110.688 151.389C110.765 150.988 110.804 150.509 110.804 149.953Z" fill="black" fill-opacity="0.87"/>
<path d="M65.1475 152.94H65.2773C66.0065 152.94 66.599 152.838 67.0547 152.633C67.5104 152.428 67.8613 152.152 68.1074 151.806C68.3535 151.459 68.5221 151.07 68.6133 150.637C68.7044 150.199 68.75 149.75 68.75 149.29V147.766C68.75 147.314 68.6976 146.913 68.5928 146.562C68.4925 146.212 68.3512 145.918 68.1689 145.681C67.9912 145.444 67.7884 145.264 67.5605 145.141C67.3327 145.018 67.0911 144.956 66.8359 144.956C66.5443 144.956 66.2822 145.015 66.0498 145.134C65.8219 145.248 65.6283 145.41 65.4688 145.619C65.3138 145.829 65.1953 146.075 65.1133 146.357C65.0312 146.64 64.9902 146.948 64.9902 147.28C64.9902 147.576 65.0267 147.864 65.0996 148.142C65.1725 148.42 65.2842 148.67 65.4346 148.894C65.585 149.117 65.7718 149.295 65.9951 149.427C66.223 149.554 66.4896 149.618 66.7949 149.618C67.0775 149.618 67.3418 149.563 67.5879 149.454C67.8385 149.34 68.0596 149.188 68.251 148.996C68.4469 148.8 68.6019 148.579 68.7158 148.333C68.8343 148.087 68.9027 147.829 68.9209 147.561H69.5225C69.5225 147.939 69.4473 148.312 69.2969 148.682C69.151 149.046 68.946 149.379 68.6816 149.68C68.4173 149.98 68.1074 150.222 67.752 150.404C67.3965 150.582 67.0091 150.671 66.5898 150.671C66.0977 150.671 65.6715 150.575 65.3115 150.384C64.9515 150.192 64.6553 149.937 64.4229 149.618C64.195 149.299 64.0241 148.944 63.9102 148.552C63.8008 148.155 63.7461 147.754 63.7461 147.349C63.7461 146.875 63.8122 146.43 63.9443 146.016C64.0765 145.601 64.2725 145.236 64.5322 144.922C64.792 144.603 65.1133 144.354 65.4961 144.177C65.8835 143.999 66.3301 143.91 66.8359 143.91C67.4056 143.91 67.891 144.024 68.292 144.252C68.693 144.48 69.0189 144.785 69.2695 145.168C69.5247 145.551 69.7116 145.981 69.8301 146.46C69.9486 146.938 70.0078 147.431 70.0078 147.937V148.395C70.0078 148.91 69.9736 149.434 69.9053 149.967C69.8415 150.495 69.7161 151.001 69.5293 151.484C69.347 151.967 69.0804 152.4 68.7295 152.783C68.3786 153.161 67.9206 153.462 67.3555 153.686C66.7949 153.904 66.1022 154.014 65.2773 154.014H65.1475V152.94Z" fill="black" fill-opacity="0.87"/>
<path d="M32.165 151.307C32.165 151.913 32.0238 152.428 31.7412 152.852C31.4632 153.271 31.085 153.59 30.6064 153.809C30.1325 154.027 29.597 154.137 29 154.137C28.403 154.137 27.8652 154.027 27.3867 153.809C26.9082 153.59 26.5299 153.271 26.252 152.852C25.974 152.428 25.835 151.913 25.835 151.307C25.835 150.91 25.9102 150.548 26.0605 150.22C26.2155 149.887 26.432 149.598 26.71 149.352C26.9925 149.105 27.3252 148.916 27.708 148.784C28.0954 148.647 28.5215 148.579 28.9863 148.579C29.597 148.579 30.1416 148.698 30.6201 148.935C31.0986 149.167 31.4746 149.488 31.748 149.898C32.026 150.309 32.165 150.778 32.165 151.307ZM30.8936 151.279C30.8936 150.91 30.8138 150.584 30.6543 150.302C30.4948 150.015 30.2715 149.791 29.9844 149.632C29.6973 149.472 29.3646 149.393 28.9863 149.393C28.599 149.393 28.264 149.472 27.9814 149.632C27.7035 149.791 27.487 150.015 27.332 150.302C27.1771 150.584 27.0996 150.91 27.0996 151.279C27.0996 151.662 27.1748 151.99 27.3252 152.264C27.4801 152.533 27.6989 152.74 27.9814 152.886C28.2686 153.027 28.6081 153.098 29 153.098C29.3919 153.098 29.7292 153.027 30.0117 152.886C30.2943 152.74 30.5107 152.533 30.6611 152.264C30.8161 151.99 30.8936 151.662 30.8936 151.279ZM31.9326 146.638C31.9326 147.121 31.805 147.556 31.5498 147.943C31.2946 148.331 30.946 148.636 30.5039 148.859C30.0618 149.083 29.5605 149.194 29 149.194C28.4303 149.194 27.9222 149.083 27.4756 148.859C27.0335 148.636 26.6872 148.331 26.4365 147.943C26.1859 147.556 26.0605 147.121 26.0605 146.638C26.0605 146.059 26.1859 145.567 26.4365 145.161C26.6917 144.756 27.0404 144.446 27.4824 144.231C27.9245 144.017 28.4281 143.91 28.9932 143.91C29.5628 143.91 30.0687 144.017 30.5107 144.231C30.9528 144.446 31.2992 144.756 31.5498 145.161C31.805 145.567 31.9326 146.059 31.9326 146.638ZM30.668 146.658C30.668 146.326 30.5973 146.032 30.4561 145.776C30.3148 145.521 30.1188 145.321 29.8682 145.175C29.6175 145.024 29.3258 144.949 28.9932 144.949C28.6605 144.949 28.3688 145.02 28.1182 145.161C27.8721 145.298 27.6784 145.494 27.5371 145.749C27.4004 146.004 27.332 146.307 27.332 146.658C27.332 147 27.4004 147.299 27.5371 147.554C27.6784 147.809 27.8743 148.007 28.125 148.148C28.3757 148.29 28.6673 148.36 29 148.36C29.3327 148.36 29.6221 148.29 29.8682 148.148C30.1188 148.007 30.3148 147.809 30.4561 147.554C30.5973 147.299 30.668 147 30.668 146.658Z" fill="black" fill-opacity="0.87"/>
<path d="M260.322 108.047V108.758L256.2 118H254.867L258.982 109.086H253.596V108.047H260.322Z" fill="black" fill-opacity="0.87"/>
<path d="M220.743 108.033H220.853V109.106H220.743C220.073 109.106 219.513 109.216 219.062 109.435C218.61 109.649 218.253 109.938 217.988 110.303C217.724 110.663 217.533 111.068 217.414 111.52C217.3 111.971 217.243 112.429 217.243 112.894V114.356C217.243 114.799 217.296 115.19 217.4 115.532C217.505 115.869 217.649 116.154 217.831 116.387C218.013 116.619 218.218 116.795 218.446 116.913C218.679 117.032 218.92 117.091 219.171 117.091C219.463 117.091 219.722 117.036 219.95 116.927C220.178 116.813 220.369 116.656 220.524 116.455C220.684 116.25 220.805 116.008 220.887 115.73C220.969 115.452 221.01 115.147 221.01 114.814C221.01 114.518 220.973 114.233 220.9 113.96C220.827 113.682 220.716 113.436 220.565 113.222C220.415 113.003 220.226 112.832 219.998 112.709C219.775 112.581 219.508 112.518 219.198 112.518C218.847 112.518 218.519 112.604 218.214 112.777C217.913 112.946 217.665 113.169 217.469 113.447C217.277 113.721 217.168 114.019 217.141 114.343L216.471 114.336C216.535 113.826 216.653 113.39 216.826 113.03C217.004 112.666 217.223 112.369 217.482 112.142C217.747 111.909 218.041 111.741 218.364 111.636C218.692 111.526 219.039 111.472 219.403 111.472C219.9 111.472 220.328 111.565 220.688 111.752C221.049 111.939 221.345 112.189 221.577 112.504C221.81 112.814 221.98 113.165 222.09 113.557C222.204 113.944 222.261 114.343 222.261 114.753C222.261 115.222 222.195 115.662 222.062 116.072C221.93 116.482 221.732 116.842 221.468 117.152C221.208 117.462 220.887 117.704 220.504 117.877C220.121 118.05 219.677 118.137 219.171 118.137C218.633 118.137 218.164 118.027 217.763 117.809C217.362 117.585 217.029 117.289 216.765 116.92C216.5 116.551 216.302 116.141 216.17 115.689C216.038 115.238 215.972 114.78 215.972 114.315V113.721C215.972 113.019 216.042 112.331 216.184 111.656C216.325 110.982 216.569 110.371 216.915 109.824C217.266 109.277 217.751 108.842 218.371 108.519C218.991 108.195 219.782 108.033 220.743 108.033Z" fill="black" fill-opacity="0.87"/>
<path d="M179.489 113.263L178.478 113.003L178.977 108.047H184.083V109.216H180.05L179.749 111.923C179.931 111.818 180.161 111.72 180.439 111.629C180.722 111.538 181.046 111.492 181.41 111.492C181.87 111.492 182.283 111.572 182.647 111.731C183.012 111.886 183.322 112.11 183.577 112.401C183.837 112.693 184.035 113.044 184.172 113.454C184.309 113.864 184.377 114.322 184.377 114.828C184.377 115.307 184.311 115.746 184.179 116.147C184.051 116.549 183.857 116.899 183.598 117.2C183.338 117.496 183.01 117.727 182.613 117.891C182.221 118.055 181.759 118.137 181.226 118.137C180.825 118.137 180.444 118.082 180.084 117.973C179.729 117.859 179.41 117.688 179.127 117.46C178.849 117.228 178.621 116.94 178.443 116.599C178.27 116.252 178.161 115.847 178.115 115.382H179.318C179.373 115.756 179.482 116.07 179.646 116.325C179.811 116.58 180.025 116.774 180.289 116.906C180.558 117.034 180.87 117.098 181.226 117.098C181.526 117.098 181.793 117.045 182.025 116.94C182.258 116.836 182.454 116.685 182.613 116.489C182.773 116.293 182.894 116.056 182.976 115.778C183.062 115.5 183.105 115.188 183.105 114.842C183.105 114.527 183.062 114.236 182.976 113.967C182.889 113.698 182.759 113.463 182.586 113.263C182.417 113.062 182.21 112.907 181.964 112.798C181.718 112.684 181.435 112.627 181.116 112.627C180.692 112.627 180.371 112.684 180.152 112.798C179.938 112.912 179.717 113.067 179.489 113.263Z" fill="black" fill-opacity="0.87"/>
<path d="M146.616 114.65V115.689H139.425V114.944L143.882 108.047H144.914L143.807 110.043L140.86 114.65H146.616ZM145.229 108.047V118H143.964V108.047H145.229Z" fill="black" fill-opacity="0.87"/>
<path d="M103.735 112.401H104.638C105.08 112.401 105.444 112.328 105.731 112.183C106.023 112.032 106.24 111.829 106.381 111.574C106.527 111.314 106.6 111.023 106.6 110.699C106.6 110.316 106.536 109.995 106.408 109.735C106.281 109.476 106.089 109.28 105.834 109.147C105.579 109.015 105.255 108.949 104.863 108.949C104.508 108.949 104.193 109.02 103.92 109.161C103.651 109.298 103.439 109.494 103.284 109.749C103.134 110.004 103.059 110.305 103.059 110.651H101.794C101.794 110.146 101.922 109.685 102.177 109.271C102.432 108.856 102.79 108.525 103.25 108.279C103.715 108.033 104.253 107.91 104.863 107.91C105.465 107.91 105.991 108.017 106.442 108.231C106.894 108.441 107.244 108.756 107.495 109.175C107.746 109.59 107.871 110.107 107.871 110.727C107.871 110.977 107.812 111.246 107.693 111.533C107.579 111.816 107.399 112.08 107.153 112.326C106.912 112.572 106.597 112.775 106.21 112.935C105.823 113.09 105.358 113.167 104.815 113.167H103.735V112.401ZM103.735 113.44V112.682H104.815C105.449 112.682 105.973 112.757 106.388 112.907C106.802 113.058 107.128 113.258 107.365 113.509C107.607 113.759 107.775 114.035 107.871 114.336C107.971 114.632 108.021 114.928 108.021 115.225C108.021 115.689 107.942 116.102 107.782 116.462C107.627 116.822 107.406 117.127 107.119 117.378C106.837 117.629 106.504 117.818 106.121 117.945C105.738 118.073 105.321 118.137 104.87 118.137C104.437 118.137 104.029 118.075 103.646 117.952C103.268 117.829 102.933 117.651 102.642 117.419C102.35 117.182 102.122 116.893 101.958 116.551C101.794 116.204 101.712 115.81 101.712 115.368H102.977C102.977 115.715 103.052 116.018 103.202 116.277C103.357 116.537 103.576 116.74 103.858 116.886C104.146 117.027 104.483 117.098 104.87 117.098C105.257 117.098 105.59 117.032 105.868 116.899C106.151 116.763 106.367 116.558 106.518 116.284C106.673 116.011 106.75 115.667 106.75 115.252C106.75 114.837 106.663 114.498 106.49 114.233C106.317 113.965 106.071 113.766 105.752 113.639C105.438 113.507 105.066 113.44 104.638 113.44H103.735Z" fill="black" fill-opacity="0.87"/>
<path d="M70.4111 116.961V118H63.8965V117.091L67.1572 113.461C67.5583 113.014 67.8682 112.636 68.0869 112.326C68.3102 112.012 68.4652 111.731 68.5518 111.485C68.6429 111.235 68.6885 110.979 68.6885 110.72C68.6885 110.392 68.6201 110.095 68.4834 109.831C68.3512 109.562 68.1553 109.348 67.8955 109.188C67.6357 109.029 67.3213 108.949 66.9521 108.949C66.5101 108.949 66.141 109.036 65.8447 109.209C65.5531 109.378 65.3343 109.615 65.1885 109.92C65.0426 110.225 64.9697 110.576 64.9697 110.973H63.7051C63.7051 110.412 63.8281 109.899 64.0742 109.435C64.3203 108.97 64.6849 108.601 65.168 108.327C65.651 108.049 66.2458 107.91 66.9521 107.91C67.5811 107.91 68.1188 108.022 68.5654 108.245C69.012 108.464 69.3538 108.774 69.5908 109.175C69.8324 109.571 69.9531 110.036 69.9531 110.569C69.9531 110.861 69.903 111.157 69.8027 111.458C69.707 111.754 69.5726 112.05 69.3994 112.347C69.2308 112.643 69.0326 112.935 68.8047 113.222C68.5814 113.509 68.3421 113.791 68.0869 114.069L65.4209 116.961H70.4111Z" fill="black" fill-opacity="0.87"/>
<path d="M30.0459 107.992V118H28.7812V109.571L26.2314 110.501V109.359L29.8477 107.992H30.0459Z" fill="black" fill-opacity="0.87"/>
</svg>
