<svg width="1124" height="328" viewBox="0 0 1124 328" fill="none" xmlns="http://www.w3.org/2000/svg">
<g filter="url(#filter0_d_38_2176)">
<path d="M50 41C50 32.1634 57.1634 25 66 25H1058C1066.84 25 1074 32.1634 1074 41V237C1074 245.837 1066.84 253 1058 253H66C57.1634 253 50 245.837 50 237V41Z" fill="white"/>
<path d="M1042 137H82V57H1042V137Z" stroke="#E5E7EB"/>
<path d="M456.391 137H82V59H456.391V137Z" stroke="#E5E7EB"/>
<path d="M456.391 79H82V59H456.391V79Z" stroke="#E5E7EB"/>
<path d="M86.4148 74H83.1186V63.8182H86.5192C87.5168 63.8182 88.3736 64.022 89.0895 64.4297C89.8054 64.834 90.3539 65.4157 90.7351 66.1747C91.1196 66.9304 91.3118 67.8369 91.3118 68.8942C91.3118 69.9548 91.1179 70.8662 90.7301 71.6286C90.3456 72.3909 89.7888 72.9775 89.0597 73.3885C88.3305 73.7962 87.4489 74 86.4148 74ZM84.6548 72.6577H86.3303C87.1058 72.6577 87.7505 72.5118 88.2642 72.2202C88.7779 71.9252 89.1624 71.4993 89.4176 70.9425C89.6728 70.3823 89.8004 69.6996 89.8004 68.8942C89.8004 68.0954 89.6728 67.4176 89.4176 66.8608C89.1657 66.304 88.7895 65.8814 88.2891 65.593C87.7886 65.3047 87.1671 65.1605 86.4247 65.1605H84.6548V72.6577ZM95.894 74.1541C95.1416 74.1541 94.4937 73.9934 93.9501 73.6719C93.4099 73.3471 92.9922 72.8913 92.6973 72.3047C92.4056 71.7147 92.2598 71.0237 92.2598 70.2315C92.2598 69.4493 92.4056 68.7599 92.6973 68.1634C92.9922 67.5668 93.4032 67.1011 93.9302 66.7663C94.4605 66.4316 95.0803 66.2642 95.7896 66.2642C96.2205 66.2642 96.6381 66.3355 97.0424 66.478C97.4468 66.6205 97.8097 66.8442 98.1312 67.1491C98.4527 67.4541 98.7063 67.8501 98.8919 68.3374C99.0775 68.8213 99.1703 69.4096 99.1703 70.1023V70.6293H93.1V69.5156H97.7136C97.7136 69.1245 97.6341 68.7782 97.475 68.4766C97.3159 68.1716 97.0922 67.9313 96.8038 67.7557C96.5188 67.58 96.184 67.4922 95.7995 67.4922C95.3819 67.4922 95.0173 67.5949 94.7058 67.8004C94.3975 68.0026 94.1589 68.2678 93.9899 68.5959C93.8242 68.9207 93.7413 69.2737 93.7413 69.6548V70.5249C93.7413 71.0353 93.8308 71.4695 94.0098 71.8274C94.1921 72.1854 94.4456 72.4588 94.7704 72.6477C95.0952 72.8333 95.4747 72.9261 95.9089 72.9261C96.1906 72.9261 96.4475 72.8864 96.6795 72.8068C96.9115 72.724 97.112 72.6013 97.2811 72.4389C97.4501 72.2765 97.5794 72.076 97.6689 71.8374L99.0758 72.0909C98.9631 72.5052 98.7609 72.8681 98.4693 73.1797C98.1809 73.4879 97.818 73.7282 97.3805 73.9006C96.9463 74.0696 96.4508 74.1541 95.894 74.1541ZM106.042 68.228L104.695 68.4666C104.638 68.2943 104.549 68.1302 104.426 67.9744C104.307 67.8187 104.144 67.6911 103.939 67.5916C103.733 67.4922 103.477 67.4425 103.168 67.4425C102.747 67.4425 102.396 67.5369 102.114 67.7259C101.833 67.9115 101.692 68.1518 101.692 68.4467C101.692 68.7019 101.786 68.9074 101.975 69.0632C102.164 69.219 102.469 69.3466 102.89 69.446L104.103 69.7244C104.806 69.8868 105.329 70.1371 105.674 70.4751C106.019 70.8132 106.191 71.2524 106.191 71.7926C106.191 72.25 106.058 72.6577 105.793 73.0156C105.531 73.3703 105.165 73.6487 104.695 73.8509C104.227 74.053 103.685 74.1541 103.069 74.1541C102.214 74.1541 101.516 73.9718 100.976 73.6072C100.436 73.2393 100.104 72.7173 99.9815 72.0412L101.418 71.8224C101.508 72.197 101.692 72.4804 101.97 72.6726C102.249 72.8615 102.612 72.956 103.059 72.956C103.546 72.956 103.936 72.8549 104.227 72.6527C104.519 72.4472 104.665 72.197 104.665 71.902C104.665 71.6634 104.575 71.4628 104.396 71.3004C104.221 71.138 103.951 71.0154 103.586 70.9325L102.293 70.6491C101.581 70.4867 101.054 70.2282 100.712 69.8736C100.374 69.5189 100.205 69.0698 100.205 68.5263C100.205 68.0755 100.331 67.6811 100.583 67.343C100.835 67.005 101.183 66.7415 101.627 66.5526C102.071 66.3603 102.58 66.2642 103.153 66.2642C103.979 66.2642 104.628 66.4432 105.102 66.8011C105.576 67.1558 105.889 67.6314 106.042 68.228ZM110.89 66.3636V67.5568H106.719V66.3636H110.89ZM107.838 64.5341H109.324V71.7578C109.324 72.0462 109.367 72.2633 109.453 72.4091C109.539 72.5516 109.651 72.6494 109.786 72.7024C109.926 72.7521 110.076 72.777 110.239 72.777C110.358 72.777 110.463 72.7687 110.552 72.7521C110.642 72.7356 110.711 72.7223 110.761 72.7124L111.029 73.9403C110.943 73.9735 110.82 74.0066 110.661 74.0398C110.502 74.0762 110.303 74.0961 110.065 74.0994C109.674 74.1061 109.309 74.0365 108.971 73.8906C108.633 73.7448 108.36 73.5194 108.151 73.2145C107.942 72.9096 107.838 72.5268 107.838 72.0661V64.5341ZM112.034 74V66.3636H113.521V74H112.034ZM112.785 65.1854C112.527 65.1854 112.305 65.0992 112.119 64.9268C111.937 64.7512 111.846 64.5424 111.846 64.3004C111.846 64.0552 111.937 63.8464 112.119 63.674C112.305 63.4983 112.527 63.4105 112.785 63.4105C113.044 63.4105 113.264 63.4983 113.446 63.674C113.632 63.8464 113.725 64.0552 113.725 64.3004C113.725 64.5424 113.632 64.7512 113.446 64.9268C113.264 65.0992 113.044 65.1854 112.785 65.1854ZM116.507 69.4659V74H115.021V66.3636H116.448V67.6065H116.542C116.718 67.2022 116.993 66.8774 117.367 66.6321C117.745 66.3868 118.221 66.2642 118.794 66.2642C119.315 66.2642 119.77 66.3736 120.161 66.5923C120.552 66.8078 120.856 67.1293 121.071 67.5568C121.287 67.9844 121.394 68.513 121.394 69.1428V74H119.908V69.3217C119.908 68.7682 119.764 68.3357 119.475 68.0241C119.187 67.7093 118.791 67.5518 118.287 67.5518C117.942 67.5518 117.636 67.6264 117.367 67.7756C117.102 67.9247 116.892 68.1435 116.736 68.4318C116.584 68.7169 116.507 69.0616 116.507 69.4659ZM125.11 74.169C124.626 74.169 124.189 74.0795 123.798 73.9006C123.407 73.7183 123.097 73.4548 122.868 73.1101C122.643 72.7654 122.53 72.3428 122.53 71.8423C122.53 71.4115 122.613 71.0568 122.779 70.7784C122.944 70.5 123.168 70.2796 123.45 70.1172C123.731 69.9548 124.046 69.8321 124.394 69.7493C124.742 69.6664 125.097 69.6035 125.458 69.5604C125.916 69.5073 126.287 69.4643 126.572 69.4311C126.857 69.3946 127.064 69.3366 127.193 69.2571C127.323 69.1776 127.387 69.0483 127.387 68.8693V68.8345C127.387 68.4003 127.265 68.0639 127.019 67.8253C126.777 67.5866 126.416 67.4673 125.936 67.4673C125.435 67.4673 125.041 67.5784 124.752 67.8004C124.467 68.0192 124.27 68.2628 124.161 68.5312L122.764 68.2131C122.929 67.7491 123.171 67.3745 123.49 67.0895C123.811 66.8011 124.181 66.5923 124.598 66.4631C125.016 66.3305 125.455 66.2642 125.916 66.2642C126.221 66.2642 126.544 66.3007 126.885 66.3736C127.23 66.4432 127.551 66.5724 127.85 66.7614C128.151 66.9503 128.398 67.2204 128.59 67.5717C128.783 67.9197 128.879 68.3722 128.879 68.929V74H127.427V72.956H127.367C127.271 73.1482 127.127 73.3371 126.935 73.5227C126.743 73.7083 126.496 73.8625 126.194 73.9851C125.892 74.1077 125.531 74.169 125.11 74.169ZM125.433 72.9759C125.844 72.9759 126.196 72.8946 126.487 72.7322C126.782 72.5698 127.006 72.3577 127.159 72.0959C127.314 71.8307 127.392 71.5473 127.392 71.2457V70.2614C127.339 70.3144 127.236 70.3641 127.084 70.4105C126.935 70.4536 126.764 70.4917 126.572 70.5249C126.38 70.5547 126.192 70.5829 126.01 70.6094C125.828 70.6326 125.675 70.6525 125.553 70.669C125.264 70.7055 125.001 70.7668 124.762 70.853C124.527 70.9392 124.338 71.0634 124.195 71.2259C124.056 71.3849 123.987 71.5971 123.987 71.8622C123.987 72.2301 124.123 72.5085 124.394 72.6974C124.666 72.883 125.012 72.9759 125.433 72.9759ZM133.923 66.3636V67.5568H129.752V66.3636H133.923ZM130.871 64.5341H132.357V71.7578C132.357 72.0462 132.4 72.2633 132.487 72.4091C132.573 72.5516 132.684 72.6494 132.82 72.7024C132.959 72.7521 133.11 72.777 133.272 72.777C133.391 72.777 133.496 72.7687 133.585 72.7521C133.675 72.7356 133.744 72.7223 133.794 72.7124L134.062 73.9403C133.976 73.9735 133.854 74.0066 133.695 74.0398C133.536 74.0762 133.337 74.0961 133.098 74.0994C132.707 74.1061 132.342 74.0365 132.004 73.8906C131.666 73.7448 131.393 73.5194 131.184 73.2145C130.975 72.9096 130.871 72.5268 130.871 72.0661V64.5341ZM135.068 74V66.3636H136.554V74H135.068ZM135.818 65.1854C135.56 65.1854 135.338 65.0992 135.152 64.9268C134.97 64.7512 134.879 64.5424 134.879 64.3004C134.879 64.0552 134.97 63.8464 135.152 63.674C135.338 63.4983 135.56 63.4105 135.818 63.4105C136.077 63.4105 136.297 63.4983 136.48 63.674C136.665 63.8464 136.758 64.0552 136.758 64.3004C136.758 64.5424 136.665 64.7512 136.48 64.9268C136.297 65.0992 136.077 65.1854 135.818 65.1854ZM141.271 74.1541C140.555 74.1541 139.93 73.9901 139.396 73.6619C138.863 73.3338 138.448 72.8748 138.153 72.2848C137.858 71.6948 137.711 71.0054 137.711 70.2166C137.711 69.4245 137.858 68.7318 138.153 68.1385C138.448 67.5452 138.863 67.0845 139.396 66.7564C139.93 66.4283 140.555 66.2642 141.271 66.2642C141.987 66.2642 142.611 66.4283 143.145 66.7564C143.679 67.0845 144.093 67.5452 144.388 68.1385C144.683 68.7318 144.83 69.4245 144.83 70.2166C144.83 71.0054 144.683 71.6948 144.388 72.2848C144.093 72.8748 143.679 73.3338 143.145 73.6619C142.611 73.9901 141.987 74.1541 141.271 74.1541ZM141.276 72.9062C141.74 72.9062 142.124 72.7836 142.429 72.5384C142.734 72.2931 142.959 71.9666 143.105 71.5589C143.254 71.1513 143.329 70.7022 143.329 70.2116C143.329 69.7244 143.254 69.277 143.105 68.8693C142.959 68.4583 142.734 68.1286 142.429 67.88C142.124 67.6314 141.74 67.5071 141.276 67.5071C140.808 67.5071 140.42 67.6314 140.112 67.88C139.807 68.1286 139.58 68.4583 139.431 68.8693C139.285 69.277 139.212 69.7244 139.212 70.2116C139.212 70.7022 139.285 71.1513 139.431 71.5589C139.58 71.9666 139.807 72.2931 140.112 72.5384C140.42 72.7836 140.808 72.9062 141.276 72.9062ZM147.476 69.4659V74H145.99V66.3636H147.416V67.6065H147.511C147.686 67.2022 147.962 66.8774 148.336 66.6321C148.714 66.3868 149.19 66.2642 149.763 66.2642C150.283 66.2642 150.739 66.3736 151.13 66.5923C151.521 66.8078 151.825 67.1293 152.04 67.5568C152.255 67.9844 152.363 68.513 152.363 69.1428V74H150.877V69.3217C150.877 68.7682 150.732 68.3357 150.444 68.0241C150.156 67.7093 149.76 67.5518 149.256 67.5518C148.911 67.5518 148.605 67.6264 148.336 67.7756C148.071 67.9247 147.86 68.1435 147.705 68.4318C147.552 68.7169 147.476 69.0616 147.476 69.4659Z" fill="#374151"/>
<path d="M456.391 137H82V87H456.391V137Z" stroke="#E5E7EB"/>
<path d="M90 87.5H448.391C452.533 87.5 455.891 90.8579 455.891 95V129C455.891 133.142 452.533 136.5 448.391 136.5H90C85.8579 136.5 82.5 133.142 82.5 129V95C82.5 90.8579 85.8579 87.5 90 87.5Z" fill="white"/>
<path d="M90 87.5H448.391C452.533 87.5 455.891 90.8579 455.891 95V129C455.891 133.142 452.533 136.5 448.391 136.5H90C85.8579 136.5 82.5 133.142 82.5 129V95C82.5 90.8579 85.8579 87.5 90 87.5Z" stroke="#D1D5DB"/>
<path d="M125.523 118L122.341 106.364H123.773L126.205 115.841H126.318L128.795 106.364H130.386L132.864 115.841H132.977L135.409 106.364H136.841L133.659 118H132.205L129.636 108.727H129.545L126.977 118H125.523ZM139.256 112.75V118H137.915V106.364H139.256V110.636H139.369C139.574 110.186 139.881 109.828 140.29 109.562C140.703 109.294 141.252 109.159 141.938 109.159C142.532 109.159 143.053 109.278 143.5 109.517C143.947 109.752 144.294 110.114 144.54 110.602C144.79 111.087 144.915 111.705 144.915 112.455V118H143.574V112.545C143.574 111.852 143.394 111.316 143.034 110.938C142.678 110.555 142.184 110.364 141.551 110.364C141.112 110.364 140.718 110.456 140.369 110.642C140.025 110.828 139.752 111.098 139.551 111.455C139.354 111.811 139.256 112.242 139.256 112.75ZM150.527 118.182C149.686 118.182 148.961 117.996 148.351 117.625C147.745 117.25 147.277 116.727 146.947 116.057C146.622 115.383 146.459 114.598 146.459 113.705C146.459 112.811 146.622 112.023 146.947 111.341C147.277 110.655 147.735 110.121 148.322 109.739C148.913 109.352 149.603 109.159 150.391 109.159C150.845 109.159 151.294 109.235 151.737 109.386C152.18 109.538 152.584 109.784 152.947 110.125C153.311 110.462 153.601 110.909 153.817 111.466C154.033 112.023 154.141 112.708 154.141 113.523V114.091H147.413V112.932H152.777C152.777 112.439 152.679 112 152.482 111.614C152.288 111.227 152.012 110.922 151.652 110.699C151.296 110.475 150.875 110.364 150.391 110.364C149.857 110.364 149.394 110.496 149.004 110.761C148.618 111.023 148.321 111.364 148.112 111.784C147.904 112.205 147.8 112.655 147.8 113.136V113.909C147.8 114.568 147.913 115.127 148.141 115.585C148.372 116.04 148.692 116.386 149.101 116.625C149.51 116.86 149.985 116.977 150.527 116.977C150.879 116.977 151.197 116.928 151.482 116.83C151.769 116.727 152.018 116.576 152.226 116.375C152.434 116.17 152.595 115.917 152.709 115.614L154.004 115.977C153.868 116.417 153.639 116.803 153.317 117.136C152.995 117.466 152.597 117.723 152.124 117.909C151.65 118.091 151.118 118.182 150.527 118.182ZM155.68 118V109.273H156.976V110.591H157.067C157.226 110.159 157.514 109.809 157.93 109.54C158.347 109.271 158.817 109.136 159.339 109.136C159.438 109.136 159.561 109.138 159.709 109.142C159.857 109.146 159.968 109.152 160.044 109.159V110.523C159.999 110.511 159.894 110.494 159.732 110.472C159.572 110.445 159.404 110.432 159.226 110.432C158.802 110.432 158.423 110.521 158.089 110.699C157.76 110.873 157.499 111.116 157.305 111.426C157.116 111.733 157.021 112.083 157.021 112.477V118H155.68ZM164.527 118.182C163.686 118.182 162.961 117.996 162.351 117.625C161.745 117.25 161.277 116.727 160.947 116.057C160.622 115.383 160.459 114.598 160.459 113.705C160.459 112.811 160.622 112.023 160.947 111.341C161.277 110.655 161.735 110.121 162.322 109.739C162.913 109.352 163.603 109.159 164.391 109.159C164.845 109.159 165.294 109.235 165.737 109.386C166.18 109.538 166.584 109.784 166.947 110.125C167.311 110.462 167.601 110.909 167.817 111.466C168.033 112.023 168.141 112.708 168.141 113.523V114.091H161.413V112.932H166.777C166.777 112.439 166.679 112 166.482 111.614C166.288 111.227 166.012 110.922 165.652 110.699C165.296 110.475 164.875 110.364 164.391 110.364C163.857 110.364 163.394 110.496 163.004 110.761C162.618 111.023 162.321 111.364 162.112 111.784C161.904 112.205 161.8 112.655 161.8 113.136V113.909C161.8 114.568 161.913 115.127 162.141 115.585C162.372 116.04 162.692 116.386 163.101 116.625C163.51 116.86 163.985 116.977 164.527 116.977C164.879 116.977 165.197 116.928 165.482 116.83C165.769 116.727 166.018 116.576 166.226 116.375C166.434 116.17 166.595 115.917 166.709 115.614L168.004 115.977C167.868 116.417 167.639 116.803 167.317 117.136C166.995 117.466 166.597 117.723 166.124 117.909C165.65 118.091 165.118 118.182 164.527 118.182ZM176.249 118.205C175.696 118.205 175.194 118.1 174.743 117.892C174.292 117.68 173.934 117.375 173.669 116.977C173.404 116.576 173.271 116.091 173.271 115.523C173.271 115.023 173.37 114.617 173.567 114.307C173.764 113.992 174.027 113.746 174.357 113.568C174.686 113.39 175.05 113.258 175.447 113.17C175.849 113.08 176.252 113.008 176.658 112.955C177.188 112.886 177.618 112.835 177.947 112.801C178.281 112.763 178.523 112.701 178.675 112.614C178.83 112.527 178.908 112.375 178.908 112.159V112.114C178.908 111.553 178.754 111.117 178.447 110.807C178.144 110.496 177.684 110.341 177.067 110.341C176.427 110.341 175.925 110.481 175.561 110.761C175.197 111.042 174.942 111.341 174.794 111.659L173.521 111.205C173.749 110.674 174.052 110.261 174.43 109.966C174.813 109.667 175.23 109.458 175.68 109.341C176.135 109.22 176.582 109.159 177.021 109.159C177.302 109.159 177.624 109.193 177.987 109.261C178.355 109.326 178.709 109.46 179.05 109.665C179.394 109.869 179.68 110.178 179.908 110.591C180.135 111.004 180.249 111.557 180.249 112.25V118H178.908V116.818H178.839C178.749 117.008 178.597 117.21 178.385 117.426C178.173 117.642 177.891 117.826 177.538 117.977C177.186 118.129 176.756 118.205 176.249 118.205ZM176.453 117C176.983 117 177.43 116.896 177.794 116.688C178.161 116.479 178.438 116.21 178.624 115.881C178.813 115.551 178.908 115.205 178.908 114.841V113.614C178.851 113.682 178.726 113.744 178.533 113.801C178.343 113.854 178.124 113.902 177.874 113.943C177.627 113.981 177.387 114.015 177.152 114.045C176.921 114.072 176.733 114.095 176.589 114.114C176.241 114.159 175.915 114.233 175.612 114.335C175.313 114.434 175.071 114.583 174.885 114.784C174.703 114.981 174.612 115.25 174.612 115.591C174.612 116.057 174.785 116.409 175.129 116.648C175.478 116.883 175.919 117 176.453 117ZM182.196 118V109.273H183.491V110.591H183.582C183.741 110.159 184.029 109.809 184.446 109.54C184.863 109.271 185.332 109.136 185.855 109.136C185.954 109.136 186.077 109.138 186.224 109.142C186.372 109.146 186.484 109.152 186.56 109.159V110.523C186.514 110.511 186.41 110.494 186.247 110.472C186.088 110.445 185.92 110.432 185.741 110.432C185.317 110.432 184.938 110.521 184.605 110.699C184.276 110.873 184.014 111.116 183.821 111.426C183.632 111.733 183.537 112.083 183.537 112.477V118H182.196ZM191.043 118.182C190.202 118.182 189.476 117.996 188.866 117.625C188.26 117.25 187.793 116.727 187.463 116.057C187.137 115.383 186.974 114.598 186.974 113.705C186.974 112.811 187.137 112.023 187.463 111.341C187.793 110.655 188.251 110.121 188.838 109.739C189.429 109.352 190.118 109.159 190.906 109.159C191.361 109.159 191.81 109.235 192.253 109.386C192.696 109.538 193.099 109.784 193.463 110.125C193.827 110.462 194.116 110.909 194.332 111.466C194.548 112.023 194.656 112.708 194.656 113.523V114.091H187.929V112.932H193.293C193.293 112.439 193.194 112 192.997 111.614C192.804 111.227 192.527 110.922 192.168 110.699C191.812 110.475 191.391 110.364 190.906 110.364C190.372 110.364 189.91 110.496 189.52 110.761C189.134 111.023 188.836 111.364 188.628 111.784C188.42 112.205 188.315 112.655 188.315 113.136V113.909C188.315 114.568 188.429 115.127 188.656 115.585C188.887 116.04 189.207 116.386 189.616 116.625C190.026 116.86 190.501 116.977 191.043 116.977C191.395 116.977 191.713 116.928 191.997 116.83C192.285 116.727 192.533 116.576 192.741 116.375C192.95 116.17 193.111 115.917 193.224 115.614L194.52 115.977C194.384 116.417 194.154 116.803 193.832 117.136C193.51 117.466 193.113 117.723 192.639 117.909C192.166 118.091 191.634 118.182 191.043 118.182ZM201.06 121.273C200.832 121.273 200.63 121.254 200.452 121.216C200.274 121.182 200.151 121.148 200.082 121.114L200.423 119.932C200.749 120.015 201.037 120.045 201.287 120.023C201.537 120 201.759 119.888 201.952 119.688C202.149 119.491 202.329 119.17 202.491 118.727L202.741 118.045L199.514 109.273H200.969L203.378 116.227H203.469L205.878 109.273H207.332L203.628 119.273C203.461 119.723 203.255 120.097 203.009 120.392C202.762 120.691 202.476 120.913 202.151 121.057C201.829 121.201 201.465 121.273 201.06 121.273ZM211.835 118.182C211.047 118.182 210.356 117.994 209.761 117.619C209.17 117.244 208.708 116.72 208.375 116.045C208.045 115.371 207.881 114.583 207.881 113.682C207.881 112.773 208.045 111.979 208.375 111.301C208.708 110.623 209.17 110.097 209.761 109.722C210.356 109.347 211.047 109.159 211.835 109.159C212.623 109.159 213.313 109.347 213.903 109.722C214.498 110.097 214.96 110.623 215.29 111.301C215.623 111.979 215.79 112.773 215.79 113.682C215.79 114.583 215.623 115.371 215.29 116.045C214.96 116.72 214.498 117.244 213.903 117.619C213.313 117.994 212.623 118.182 211.835 118.182ZM211.835 116.977C212.434 116.977 212.926 116.824 213.312 116.517C213.699 116.21 213.985 115.807 214.17 115.307C214.356 114.807 214.449 114.265 214.449 113.682C214.449 113.098 214.356 112.555 214.17 112.051C213.985 111.547 213.699 111.14 213.312 110.83C212.926 110.519 212.434 110.364 211.835 110.364C211.237 110.364 210.744 110.519 210.358 110.83C209.972 111.14 209.686 111.547 209.5 112.051C209.314 112.555 209.222 113.098 209.222 113.682C209.222 114.265 209.314 114.807 209.5 115.307C209.686 115.807 209.972 116.21 210.358 116.517C210.744 116.824 211.237 116.977 211.835 116.977ZM222.837 114.432V109.273H224.178V118H222.837V116.523H222.746C222.541 116.966 222.223 117.343 221.791 117.653C221.359 117.96 220.814 118.114 220.155 118.114C219.609 118.114 219.125 117.994 218.7 117.756C218.276 117.513 217.943 117.15 217.7 116.665C217.458 116.176 217.337 115.561 217.337 114.818V109.273H218.678V114.727C218.678 115.364 218.856 115.871 219.212 116.25C219.571 116.629 220.03 116.818 220.587 116.818C220.92 116.818 221.259 116.733 221.604 116.562C221.952 116.392 222.244 116.131 222.479 115.778C222.717 115.426 222.837 114.977 222.837 114.432ZM233.656 121.455C233.009 121.455 232.452 121.371 231.986 121.205C231.52 121.042 231.132 120.826 230.821 120.557C230.514 120.292 230.27 120.008 230.088 119.705L231.156 118.955C231.277 119.114 231.431 119.295 231.616 119.5C231.802 119.708 232.056 119.888 232.378 120.04C232.704 120.195 233.13 120.273 233.656 120.273C234.361 120.273 234.942 120.102 235.401 119.761C235.859 119.42 236.088 118.886 236.088 118.159V116.386H235.974C235.876 116.545 235.736 116.742 235.554 116.977C235.376 117.208 235.118 117.415 234.781 117.597C234.448 117.775 233.997 117.864 233.429 117.864C232.724 117.864 232.092 117.697 231.531 117.364C230.974 117.03 230.533 116.545 230.207 115.909C229.885 115.273 229.724 114.5 229.724 113.591C229.724 112.697 229.882 111.919 230.196 111.256C230.51 110.589 230.948 110.074 231.509 109.71C232.069 109.343 232.717 109.159 233.452 109.159C234.02 109.159 234.471 109.254 234.804 109.443C235.141 109.629 235.399 109.841 235.577 110.08C235.759 110.314 235.899 110.508 235.997 110.659H236.134V109.273H237.429V118.25C237.429 119 237.259 119.61 236.918 120.08C236.58 120.553 236.126 120.9 235.554 121.119C234.986 121.343 234.353 121.455 233.656 121.455ZM233.611 116.659C234.149 116.659 234.603 116.536 234.974 116.29C235.346 116.044 235.628 115.689 235.821 115.227C236.014 114.765 236.111 114.212 236.111 113.568C236.111 112.939 236.016 112.384 235.827 111.903C235.637 111.422 235.357 111.045 234.986 110.773C234.615 110.5 234.156 110.364 233.611 110.364C233.043 110.364 232.569 110.508 232.19 110.795C231.815 111.083 231.533 111.47 231.344 111.955C231.158 112.439 231.065 112.977 231.065 113.568C231.065 114.174 231.16 114.71 231.349 115.176C231.543 115.638 231.827 116.002 232.202 116.267C232.58 116.528 233.05 116.659 233.611 116.659ZM242.929 118.182C242.141 118.182 241.45 117.994 240.855 117.619C240.264 117.244 239.802 116.72 239.469 116.045C239.139 115.371 238.974 114.583 238.974 113.682C238.974 112.773 239.139 111.979 239.469 111.301C239.802 110.623 240.264 110.097 240.855 109.722C241.45 109.347 242.141 109.159 242.929 109.159C243.717 109.159 244.406 109.347 244.997 109.722C245.592 110.097 246.054 110.623 246.384 111.301C246.717 111.979 246.884 112.773 246.884 113.682C246.884 114.583 246.717 115.371 246.384 116.045C246.054 116.72 245.592 117.244 244.997 117.619C244.406 117.994 243.717 118.182 242.929 118.182ZM242.929 116.977C243.527 116.977 244.02 116.824 244.406 116.517C244.793 116.21 245.079 115.807 245.264 115.307C245.45 114.807 245.543 114.265 245.543 113.682C245.543 113.098 245.45 112.555 245.264 112.051C245.079 111.547 244.793 111.14 244.406 110.83C244.02 110.519 243.527 110.364 242.929 110.364C242.33 110.364 241.838 110.519 241.452 110.83C241.065 111.14 240.779 111.547 240.594 112.051C240.408 112.555 240.315 113.098 240.315 113.682C240.315 114.265 240.408 114.807 240.594 115.307C240.779 115.807 241.065 116.21 241.452 116.517C241.838 116.824 242.33 116.977 242.929 116.977ZM248.43 118V109.273H249.771V118H248.43ZM249.112 107.818C248.851 107.818 248.625 107.729 248.436 107.551C248.25 107.373 248.158 107.159 248.158 106.909C248.158 106.659 248.25 106.445 248.436 106.267C248.625 106.089 248.851 106 249.112 106C249.374 106 249.597 106.089 249.783 106.267C249.972 106.445 250.067 106.659 250.067 106.909C250.067 107.159 249.972 107.373 249.783 107.551C249.597 107.729 249.374 107.818 249.112 107.818ZM253.068 112.75V118H251.727V109.273H253.023V110.636H253.136C253.341 110.193 253.652 109.837 254.068 109.568C254.485 109.295 255.023 109.159 255.682 109.159C256.273 109.159 256.79 109.28 257.233 109.523C257.676 109.761 258.021 110.125 258.267 110.614C258.513 111.098 258.636 111.712 258.636 112.455V118H257.295V112.545C257.295 111.86 257.117 111.326 256.761 110.943C256.405 110.557 255.917 110.364 255.295 110.364C254.867 110.364 254.485 110.456 254.148 110.642C253.814 110.828 253.551 111.098 253.358 111.455C253.165 111.811 253.068 112.242 253.068 112.75ZM264.109 121.455C263.462 121.455 262.905 121.371 262.439 121.205C261.973 121.042 261.585 120.826 261.274 120.557C260.967 120.292 260.723 120.008 260.541 119.705L261.609 118.955C261.731 119.114 261.884 119.295 262.07 119.5C262.255 119.708 262.509 119.888 262.831 120.04C263.157 120.195 263.583 120.273 264.109 120.273C264.814 120.273 265.395 120.102 265.854 119.761C266.312 119.42 266.541 118.886 266.541 118.159V116.386H266.428C266.329 116.545 266.189 116.742 266.007 116.977C265.829 117.208 265.571 117.415 265.234 117.597C264.901 117.775 264.45 117.864 263.882 117.864C263.178 117.864 262.545 117.697 261.984 117.364C261.428 117.03 260.986 116.545 260.661 115.909C260.339 115.273 260.178 114.5 260.178 113.591C260.178 112.697 260.335 111.919 260.649 111.256C260.964 110.589 261.401 110.074 261.962 109.71C262.522 109.343 263.17 109.159 263.905 109.159C264.473 109.159 264.924 109.254 265.257 109.443C265.594 109.629 265.852 109.841 266.03 110.08C266.212 110.314 266.352 110.508 266.45 110.659H266.587V109.273H267.882V118.25C267.882 119 267.712 119.61 267.371 120.08C267.034 120.553 266.579 120.9 266.007 121.119C265.439 121.343 264.806 121.455 264.109 121.455ZM264.064 116.659C264.602 116.659 265.056 116.536 265.428 116.29C265.799 116.044 266.081 115.689 266.274 115.227C266.467 114.765 266.564 114.212 266.564 113.568C266.564 112.939 266.469 112.384 266.28 111.903C266.09 111.422 265.81 111.045 265.439 110.773C265.068 110.5 264.609 110.364 264.064 110.364C263.496 110.364 263.022 110.508 262.643 110.795C262.268 111.083 261.986 111.47 261.797 111.955C261.611 112.439 261.518 112.977 261.518 113.568C261.518 114.174 261.613 114.71 261.803 115.176C261.996 115.638 262.28 116.002 262.655 116.267C263.034 116.528 263.503 116.659 264.064 116.659ZM271.587 114.727V114.659C271.594 113.936 271.67 113.36 271.814 112.932C271.958 112.504 272.162 112.157 272.428 111.892C272.693 111.627 273.011 111.383 273.382 111.159C273.606 111.023 273.806 110.862 273.984 110.676C274.162 110.487 274.303 110.269 274.405 110.023C274.511 109.777 274.564 109.504 274.564 109.205C274.564 108.833 274.477 108.511 274.303 108.239C274.128 107.966 273.895 107.756 273.604 107.608C273.312 107.46 272.988 107.386 272.632 107.386C272.321 107.386 272.022 107.451 271.734 107.58C271.446 107.708 271.206 107.911 271.013 108.188C270.82 108.464 270.708 108.826 270.678 109.273H269.246C269.276 108.629 269.443 108.078 269.746 107.619C270.053 107.161 270.456 106.811 270.956 106.568C271.46 106.326 272.018 106.205 272.632 106.205C273.299 106.205 273.878 106.337 274.371 106.602C274.867 106.867 275.25 107.231 275.518 107.693C275.791 108.155 275.928 108.682 275.928 109.273C275.928 109.689 275.863 110.066 275.734 110.403C275.609 110.741 275.428 111.042 275.189 111.307C274.954 111.572 274.67 111.807 274.337 112.011C274.003 112.22 273.736 112.439 273.536 112.67C273.335 112.898 273.189 113.169 273.098 113.483C273.007 113.797 272.958 114.189 272.95 114.659V114.727H271.587ZM272.314 118.091C272.034 118.091 271.793 117.991 271.592 117.79C271.392 117.589 271.291 117.348 271.291 117.068C271.291 116.788 271.392 116.547 271.592 116.347C271.793 116.146 272.034 116.045 272.314 116.045C272.594 116.045 272.835 116.146 273.036 116.347C273.236 116.547 273.337 116.788 273.337 117.068C273.337 117.254 273.289 117.424 273.195 117.58C273.104 117.735 272.981 117.86 272.825 117.955C272.674 118.045 272.503 118.091 272.314 118.091Z" fill="#111827" fill-opacity="0.5"/>
<path d="M106 124H94V100H106V124Z" stroke="#E5E7EB"/>
<g clip-path="url(#clip0_38_2176)">
<path d="M100.741 119.6C102.344 117.594 106 112.731 106 110C106 106.688 103.312 104 100 104C96.6875 104 94 106.688 94 110C94 112.731 97.6562 117.594 99.2594 119.6C99.6438 120.078 100.356 120.078 100.741 119.6ZM100 108C100.53 108 101.039 108.211 101.414 108.586C101.789 108.961 102 109.47 102 110C102 110.53 101.789 111.039 101.414 111.414C101.039 111.789 100.53 112 100 112C99.4696 112 98.9609 111.789 98.5858 111.414C98.2107 111.039 98 110.53 98 110C98 109.47 98.2107 108.961 98.5858 108.586C98.9609 108.211 99.4696 108 100 108Z" fill="#9CA3AF"/>
</g>
<path d="M651.594 137H472.391V57H651.594V137Z" stroke="#E5E7EB"/>
<path d="M651.594 77H472.391V57H651.594V77Z" stroke="#E5E7EB"/>
<path d="M481.966 65.1293H480.415C480.355 64.7978 480.244 64.5062 480.082 64.2543C479.919 64.0024 479.72 63.7886 479.485 63.6129C479.25 63.4373 478.986 63.3047 478.695 63.2152C478.406 63.1257 478.1 63.081 477.775 63.081C477.188 63.081 476.663 63.2285 476.199 63.5234C475.738 63.8184 475.374 64.2509 475.105 64.821C474.84 65.3911 474.707 66.0871 474.707 66.9091C474.707 67.7377 474.84 68.437 475.105 69.0071C475.374 69.5772 475.74 70.008 476.204 70.2997C476.668 70.5914 477.19 70.7372 477.77 70.7372C478.091 70.7372 478.396 70.6941 478.685 70.608C478.976 70.5185 479.24 70.3875 479.475 70.2152C479.71 70.0429 479.909 69.8324 480.072 69.5838C480.237 69.3319 480.352 69.0436 480.415 68.7188L481.966 68.7237C481.883 69.2242 481.722 69.6849 481.484 70.1058C481.248 70.5234 480.945 70.8847 480.574 71.1896C480.206 71.4912 479.785 71.7249 479.311 71.8906C478.837 72.0563 478.32 72.1392 477.76 72.1392C476.878 72.1392 476.093 71.9304 475.403 71.5128C474.714 71.0919 474.17 70.4903 473.773 69.7081C473.378 68.9259 473.181 67.9929 473.181 66.9091C473.181 65.822 473.38 64.889 473.778 64.1101C474.175 63.3279 474.719 62.728 475.408 62.3104C476.098 61.8894 476.882 61.679 477.76 61.679C478.3 61.679 478.804 61.7569 479.271 61.9126C479.742 62.0651 480.165 62.2905 480.539 62.5888C480.914 62.8838 481.223 63.245 481.469 63.6726C481.714 64.0968 481.88 64.5824 481.966 65.1293ZM484.671 67.4659V72H483.185V61.8182H484.651V65.6065H484.746C484.925 65.1955 485.198 64.8691 485.566 64.6271C485.934 64.3852 486.415 64.2642 487.008 64.2642C487.532 64.2642 487.989 64.3719 488.38 64.5874C488.775 64.8028 489.079 65.1243 489.295 65.5518C489.514 65.9761 489.623 66.5064 489.623 67.1428V72H488.137V67.3217C488.137 66.7616 487.992 66.3274 487.704 66.0192C487.416 65.7076 487.015 65.5518 486.501 65.5518C486.15 65.5518 485.835 65.6264 485.556 65.7756C485.281 65.9247 485.064 66.1435 484.905 66.4318C484.749 66.7169 484.671 67.0616 484.671 67.4659ZM494.398 72.1541C493.646 72.1541 492.998 71.9934 492.454 71.6719C491.914 71.3471 491.496 70.8913 491.201 70.3047C490.91 69.7147 490.764 69.0237 490.764 68.2315C490.764 67.4493 490.91 66.7599 491.201 66.1634C491.496 65.5668 491.907 65.1011 492.434 64.7663C492.964 64.4316 493.584 64.2642 494.294 64.2642C494.724 64.2642 495.142 64.3355 495.546 64.478C495.951 64.6205 496.314 64.8442 496.635 65.1491C496.957 65.4541 497.21 65.8501 497.396 66.3374C497.581 66.8213 497.674 67.4096 497.674 68.1023V68.6293H491.604V67.5156H496.218C496.218 67.1245 496.138 66.7782 495.979 66.4766C495.82 66.1716 495.596 65.9313 495.308 65.7557C495.023 65.58 494.688 65.4922 494.303 65.4922C493.886 65.4922 493.521 65.5949 493.21 65.8004C492.901 66.0026 492.663 66.2678 492.494 66.5959C492.328 66.9207 492.245 67.2737 492.245 67.6548V68.5249C492.245 69.0353 492.335 69.4695 492.514 69.8274C492.696 70.1854 492.95 70.4588 493.274 70.6477C493.599 70.8333 493.979 70.9261 494.413 70.9261C494.695 70.9261 494.951 70.8864 495.183 70.8068C495.415 70.724 495.616 70.6013 495.785 70.4389C495.954 70.2765 496.083 70.076 496.173 69.8374L497.58 70.0909C497.467 70.5052 497.265 70.8681 496.973 71.1797C496.685 71.4879 496.322 71.7282 495.884 71.9006C495.45 72.0696 494.955 72.1541 494.398 72.1541ZM502.04 72.1541C501.301 72.1541 500.665 71.9867 500.131 71.652C499.601 71.3139 499.193 70.8482 498.908 70.255C498.623 69.6617 498.48 68.9822 498.48 68.2166C498.48 67.4411 498.626 66.7566 498.918 66.1634C499.21 65.5668 499.621 65.1011 500.151 64.7663C500.681 64.4316 501.306 64.2642 502.025 64.2642C502.605 64.2642 503.122 64.3719 503.576 64.5874C504.03 64.7995 504.397 65.0978 504.675 65.4822C504.957 65.8667 505.124 66.3158 505.177 66.8295H503.73C503.651 66.4716 503.469 66.1634 503.184 65.9048C502.902 65.6463 502.524 65.517 502.05 65.517C501.636 65.517 501.273 65.6264 500.961 65.8452C500.653 66.0606 500.413 66.3688 500.24 66.7699C500.068 67.1676 499.982 67.6383 499.982 68.1818C499.982 68.7386 500.066 69.2192 500.235 69.6236C500.404 70.0279 500.643 70.3411 500.951 70.5632C501.263 70.7853 501.629 70.8963 502.05 70.8963C502.332 70.8963 502.587 70.8449 502.816 70.7422C503.048 70.6361 503.242 70.4853 503.397 70.2898C503.556 70.0942 503.667 69.8589 503.73 69.5838H505.177C505.124 70.0777 504.963 70.5185 504.695 70.9062C504.426 71.294 504.067 71.599 503.616 71.821C503.169 72.0431 502.643 72.1541 502.04 72.1541ZM507.634 69.4098L507.624 67.5952H507.883L510.925 64.3636H512.705L509.235 68.0426H509.001L507.634 69.4098ZM506.267 72V61.8182H507.753V72H506.267ZM511.089 72L508.355 68.3707L509.379 67.3317L512.914 72H511.089ZM517.54 67.0533V68.3409H513.025V67.0533H517.54ZM519.021 72V64.3636H520.507V72H519.021ZM519.771 63.1854C519.513 63.1854 519.291 63.0992 519.105 62.9268C518.923 62.7512 518.832 62.5424 518.832 62.3004C518.832 62.0552 518.923 61.8464 519.105 61.674C519.291 61.4983 519.513 61.4105 519.771 61.4105C520.03 61.4105 520.25 61.4983 520.433 61.674C520.618 61.8464 520.711 62.0552 520.711 62.3004C520.711 62.5424 520.618 62.7512 520.433 62.9268C520.25 63.0992 520.03 63.1854 519.771 63.1854ZM523.494 67.4659V72H522.007V64.3636H523.434V65.6065H523.528C523.704 65.2022 523.979 64.8774 524.354 64.6321C524.732 64.3868 525.207 64.2642 525.781 64.2642C526.301 64.2642 526.757 64.3736 527.148 64.5923C527.539 64.8078 527.842 65.1293 528.058 65.5568C528.273 65.9844 528.381 66.513 528.381 67.1428V72H526.894V67.3217C526.894 66.7682 526.75 66.3357 526.462 66.0241C526.173 65.7093 525.777 65.5518 525.273 65.5518C524.929 65.5518 524.622 65.6264 524.354 65.7756C524.089 65.9247 523.878 66.1435 523.722 66.4318C523.57 66.7169 523.494 67.0616 523.494 67.4659Z" fill="#374151"/>
<path d="M651.203 137H472V85H651.203V137Z" stroke="#E5E7EB"/>
<path d="M480 85.5H643.203C647.345 85.5 650.703 88.8579 650.703 93V129C650.703 133.142 647.345 136.5 643.203 136.5H480C475.858 136.5 472.5 133.142 472.5 129V93C472.5 88.8579 475.858 85.5 480 85.5Z" fill="white"/>
<path d="M480 85.5H643.203C647.345 85.5 650.703 88.8579 650.703 93V129C650.703 133.142 647.345 136.5 643.203 136.5H480C475.858 136.5 472.5 133.142 472.5 129V93C472.5 88.8579 475.858 85.5 480 85.5Z" stroke="#D1D5DB"/>
<rect width="132" height="19" transform="translate(511.609 101)" fill="white"/>
<path d="M512.99 120V110.182H514.447V111.716H514.575C514.78 111.192 515.11 110.785 515.566 110.495C516.022 110.201 516.57 110.054 517.209 110.054C517.857 110.054 518.396 110.201 518.826 110.495C519.261 110.785 519.599 111.192 519.842 111.716H519.945C520.196 111.209 520.573 110.806 521.076 110.508C521.579 110.205 522.182 110.054 522.885 110.054C523.763 110.054 524.481 110.329 525.039 110.879C525.597 111.424 525.876 112.274 525.876 113.429V120H524.368V113.429C524.368 112.705 524.17 112.187 523.773 111.876C523.377 111.565 522.911 111.409 522.374 111.409C521.683 111.409 521.148 111.618 520.769 112.036C520.39 112.449 520.2 112.973 520.2 113.608V120H518.666V113.276C518.666 112.717 518.485 112.268 518.123 111.927C517.761 111.582 517.294 111.409 516.723 111.409C516.331 111.409 515.964 111.513 515.624 111.722C515.287 111.931 515.014 112.221 514.805 112.592C514.601 112.958 514.499 113.382 514.499 113.864V120H512.99ZM528.135 120V110.182H529.592V111.716H529.72C529.924 111.192 530.255 110.785 530.711 110.495C531.167 110.201 531.714 110.054 532.353 110.054C533.001 110.054 533.54 110.201 533.971 110.495C534.405 110.785 534.744 111.192 534.987 111.716H535.089C535.341 111.209 535.718 110.806 536.221 110.508C536.723 110.205 537.326 110.054 538.029 110.054C538.907 110.054 539.625 110.329 540.184 110.879C540.742 111.424 541.021 112.274 541.021 113.429V120H539.512V113.429C539.512 112.705 539.314 112.187 538.918 111.876C538.522 111.565 538.055 111.409 537.518 111.409C536.828 111.409 536.293 111.618 535.914 112.036C535.534 112.449 535.345 112.973 535.345 113.608V120H533.811V113.276C533.811 112.717 533.63 112.268 533.267 111.927C532.905 111.582 532.439 111.409 531.868 111.409C531.475 111.409 531.109 111.513 530.768 111.722C530.431 111.931 530.159 112.221 529.95 112.592C529.745 112.958 529.643 113.382 529.643 113.864V120H528.135ZM547.907 106.295L543.688 121.969H542.308L546.526 106.295H547.907ZM552.903 120.205C552.084 120.205 551.362 119.998 550.736 119.585C550.109 119.167 549.619 118.579 549.265 117.82C548.912 117.058 548.735 116.156 548.735 115.116C548.735 114.085 548.912 113.19 549.265 112.432C549.619 111.673 550.111 111.087 550.742 110.674C551.373 110.261 552.101 110.054 552.928 110.054C553.567 110.054 554.072 110.161 554.443 110.374C554.818 110.582 555.104 110.821 555.3 111.089C555.5 111.354 555.655 111.571 555.766 111.741H555.894V106.909H557.403V120H555.945V118.491H555.766C555.655 118.67 555.498 118.896 555.293 119.169C555.089 119.437 554.797 119.678 554.417 119.891C554.038 120.1 553.533 120.205 552.903 120.205ZM553.107 118.849C553.712 118.849 554.224 118.692 554.641 118.376C555.059 118.057 555.376 117.616 555.594 117.053C555.811 116.487 555.92 115.832 555.92 115.091C555.92 114.358 555.813 113.717 555.6 113.167C555.387 112.613 555.072 112.183 554.654 111.876C554.236 111.565 553.721 111.409 553.107 111.409C552.468 111.409 551.935 111.573 551.509 111.901C551.087 112.225 550.77 112.666 550.557 113.224C550.348 113.778 550.243 114.401 550.243 115.091C550.243 115.79 550.35 116.425 550.563 116.996C550.78 117.562 551.1 118.014 551.522 118.351C551.948 118.683 552.476 118.849 553.107 118.849ZM563.582 120.205C562.764 120.205 562.042 119.998 561.415 119.585C560.789 119.167 560.299 118.579 559.945 117.82C559.591 117.058 559.415 116.156 559.415 115.116C559.415 114.085 559.591 113.19 559.945 112.432C560.299 111.673 560.791 111.087 561.422 110.674C562.052 110.261 562.781 110.054 563.608 110.054C564.247 110.054 564.752 110.161 565.123 110.374C565.498 110.582 565.783 110.821 565.979 111.089C566.18 111.354 566.335 111.571 566.446 111.741H566.574V106.909H568.082V120H566.625V118.491H566.446C566.335 118.67 566.177 118.896 565.973 119.169C565.768 119.437 565.476 119.678 565.097 119.891C564.718 120.1 564.213 120.205 563.582 120.205ZM563.787 118.849C564.392 118.849 564.903 118.692 565.321 118.376C565.738 118.057 566.056 117.616 566.273 117.053C566.491 116.487 566.599 115.832 566.599 115.091C566.599 114.358 566.493 113.717 566.28 113.167C566.067 112.613 565.751 112.183 565.334 111.876C564.916 111.565 564.4 111.409 563.787 111.409C563.148 111.409 562.615 111.573 562.189 111.901C561.767 112.225 561.449 112.666 561.236 113.224C561.028 113.778 560.923 114.401 560.923 115.091C560.923 115.79 561.03 116.425 561.243 116.996C561.46 117.562 561.78 118.014 562.202 118.351C562.628 118.683 563.156 118.849 563.787 118.849ZM575.182 106.295L570.964 121.969H569.583L573.802 106.295H575.182ZM577.442 123.682C577.186 123.682 576.958 123.661 576.758 123.618C576.558 123.58 576.419 123.541 576.343 123.503L576.726 122.173C577.093 122.267 577.417 122.301 577.698 122.276C577.979 122.25 578.228 122.124 578.446 121.898C578.667 121.677 578.87 121.317 579.053 120.818L579.334 120.051L575.703 110.182H577.34L580.05 118.006H580.152L582.863 110.182H584.499L580.331 121.432C580.144 121.939 579.912 122.359 579.635 122.691C579.358 123.028 579.036 123.277 578.669 123.439C578.307 123.601 577.898 123.682 577.442 123.682ZM586.962 123.682C586.706 123.682 586.478 123.661 586.278 123.618C586.077 123.58 585.939 123.541 585.862 123.503L586.246 122.173C586.612 122.267 586.936 122.301 587.217 122.276C587.499 122.25 587.748 122.124 587.965 121.898C588.187 121.677 588.389 121.317 588.572 120.818L588.854 120.051L585.223 110.182H586.859L589.57 118.006H589.672L592.382 110.182H594.018L589.851 121.432C589.663 121.939 589.431 122.359 589.154 122.691C588.877 123.028 588.555 123.277 588.189 123.439C587.827 123.601 587.418 123.682 586.962 123.682ZM596.481 123.682C596.225 123.682 595.998 123.661 595.797 123.618C595.597 123.58 595.458 123.541 595.382 123.503L595.765 122.173C596.132 122.267 596.456 122.301 596.737 122.276C597.018 122.25 597.267 122.124 597.485 121.898C597.706 121.677 597.909 121.317 598.092 120.818L598.373 120.051L594.743 110.182H596.379L599.089 118.006H599.191L601.902 110.182H603.538L599.37 121.432C599.183 121.939 598.951 122.359 598.674 122.691C598.397 123.028 598.075 123.277 597.708 123.439C597.346 123.601 596.937 123.682 596.481 123.682ZM606.001 123.682C605.745 123.682 605.517 123.661 605.317 123.618C605.116 123.58 604.978 123.541 604.901 123.503L605.285 122.173C605.651 122.267 605.975 122.301 606.256 122.276C606.538 122.25 606.787 122.124 607.004 121.898C607.226 121.677 607.428 121.317 607.612 120.818L607.893 120.051L604.262 110.182H605.898L608.609 118.006H608.711L611.421 110.182H613.058L608.89 121.432C608.702 121.939 608.47 122.359 608.193 122.691C607.916 123.028 607.594 123.277 607.228 123.439C606.866 123.601 606.457 123.682 606.001 123.682Z" fill="black"/>
<path d="M498 123H484V99H498V123Z" stroke="#E5E7EB"/>
<g clip-path="url(#clip1_38_2176)">
<path d="M487 104V105H485.5C484.672 105 484 105.672 484 106.5V108H498V106.5C498 105.672 497.328 105 496.5 105H495V104C495 103.447 494.553 103 494 103C493.447 103 493 103.447 493 104V105H489V104C489 103.447 488.553 103 488 103C487.447 103 487 103.447 487 104ZM498 109H484V117.5C484 118.328 484.672 119 485.5 119H496.5C497.328 119 498 118.328 498 117.5V109Z" fill="#9CA3AF"/>
</g>
<path d="M846.797 137H667.594V57H846.797V137Z" stroke="#E5E7EB"/>
<path d="M846.797 77H667.594V57H846.797V77Z" stroke="#E5E7EB"/>
<path d="M677.169 65.1293H675.618C675.558 64.7978 675.447 64.5062 675.285 64.2543C675.122 64.0024 674.924 63.7886 674.688 63.6129C674.453 63.4373 674.189 63.3047 673.898 63.2152C673.609 63.1257 673.303 63.081 672.978 63.081C672.391 63.081 671.866 63.2285 671.402 63.5234C670.941 63.8184 670.577 64.2509 670.308 64.821C670.043 65.3911 669.911 66.0871 669.911 66.9091C669.911 67.7377 670.043 68.437 670.308 69.0071C670.577 69.5772 670.943 70.008 671.407 70.2997C671.871 70.5914 672.393 70.7372 672.973 70.7372C673.295 70.7372 673.599 70.6941 673.888 70.608C674.179 70.5185 674.443 70.3875 674.678 70.2152C674.914 70.0429 675.112 69.8324 675.275 69.5838C675.441 69.3319 675.555 69.0436 675.618 68.7188L677.169 68.7237C677.086 69.2242 676.925 69.6849 676.687 70.1058C676.451 70.5234 676.148 70.8847 675.777 71.1896C675.409 71.4912 674.988 71.7249 674.514 71.8906C674.04 72.0563 673.523 72.1392 672.963 72.1392C672.081 72.1392 671.296 71.9304 670.607 71.5128C669.917 71.0919 669.374 70.4903 668.976 69.7081C668.581 68.9259 668.384 67.9929 668.384 66.9091C668.384 65.822 668.583 64.889 668.981 64.1101C669.379 63.3279 669.922 62.728 670.612 62.3104C671.301 61.8894 672.085 61.679 672.963 61.679C673.503 61.679 674.007 61.7569 674.474 61.9126C674.945 62.0651 675.368 62.2905 675.742 62.5888C676.117 62.8838 676.427 63.245 676.672 63.6726C676.917 64.0968 677.083 64.5824 677.169 65.1293ZM679.874 67.4659V72H678.388V61.8182H679.855V65.6065H679.949C680.128 65.1955 680.401 64.8691 680.769 64.6271C681.137 64.3852 681.618 64.2642 682.211 64.2642C682.735 64.2642 683.192 64.3719 683.583 64.5874C683.978 64.8028 684.283 65.1243 684.498 65.5518C684.717 65.9761 684.826 66.5064 684.826 67.1428V72H683.34V67.3217C683.34 66.7616 683.195 66.3274 682.907 66.0192C682.619 65.7076 682.218 65.5518 681.704 65.5518C681.353 65.5518 681.038 65.6264 680.759 65.7756C680.484 65.9247 680.267 66.1435 680.108 66.4318C679.952 66.7169 679.874 67.0616 679.874 67.4659ZM689.601 72.1541C688.849 72.1541 688.201 71.9934 687.657 71.6719C687.117 71.3471 686.699 70.8913 686.404 70.3047C686.113 69.7147 685.967 69.0237 685.967 68.2315C685.967 67.4493 686.113 66.7599 686.404 66.1634C686.699 65.5668 687.11 65.1011 687.637 64.7663C688.168 64.4316 688.787 64.2642 689.497 64.2642C689.927 64.2642 690.345 64.3355 690.749 64.478C691.154 64.6205 691.517 64.8442 691.838 65.1491C692.16 65.4541 692.413 65.8501 692.599 66.3374C692.785 66.8213 692.877 67.4096 692.877 68.1023V68.6293H686.807V67.5156H691.421C691.421 67.1245 691.341 66.7782 691.182 66.4766C691.023 66.1716 690.799 65.9313 690.511 65.7557C690.226 65.58 689.891 65.4922 689.507 65.4922C689.089 65.4922 688.724 65.5949 688.413 65.8004C688.105 66.0026 687.866 66.2678 687.697 66.5959C687.531 66.9207 687.448 67.2737 687.448 67.6548V68.5249C687.448 69.0353 687.538 69.4695 687.717 69.8274C687.899 70.1854 688.153 70.4588 688.477 70.6477C688.802 70.8333 689.182 70.9261 689.616 70.9261C689.898 70.9261 690.155 70.8864 690.387 70.8068C690.619 70.724 690.819 70.6013 690.988 70.4389C691.157 70.2765 691.286 70.076 691.376 69.8374L692.783 70.0909C692.67 70.5052 692.468 70.8681 692.176 71.1797C691.888 71.4879 691.525 71.7282 691.088 71.9006C690.653 72.0696 690.158 72.1541 689.601 72.1541ZM697.243 72.1541C696.504 72.1541 695.868 71.9867 695.334 71.652C694.804 71.3139 694.396 70.8482 694.111 70.255C693.826 69.6617 693.684 68.9822 693.684 68.2166C693.684 67.4411 693.829 66.7566 694.121 66.1634C694.413 65.5668 694.824 65.1011 695.354 64.7663C695.884 64.4316 696.509 64.2642 697.228 64.2642C697.808 64.2642 698.325 64.3719 698.779 64.5874C699.234 64.7995 699.6 65.0978 699.878 65.4822C700.16 65.8667 700.327 66.3158 700.38 66.8295H698.934C698.854 66.4716 698.672 66.1634 698.387 65.9048C698.105 65.6463 697.727 65.517 697.253 65.517C696.839 65.517 696.476 65.6264 696.164 65.8452C695.856 66.0606 695.616 66.3688 695.444 66.7699C695.271 67.1676 695.185 67.6383 695.185 68.1818C695.185 68.7386 695.27 69.2192 695.439 69.6236C695.608 70.0279 695.846 70.3411 696.154 70.5632C696.466 70.7853 696.832 70.8963 697.253 70.8963C697.535 70.8963 697.79 70.8449 698.019 70.7422C698.251 70.6361 698.445 70.4853 698.6 70.2898C698.76 70.0942 698.871 69.8589 698.934 69.5838H700.38C700.327 70.0777 700.167 70.5185 699.898 70.9062C699.63 71.294 699.27 71.599 698.819 71.821C698.372 72.0431 697.846 72.1541 697.243 72.1541ZM702.837 69.4098L702.827 67.5952H703.086L706.128 64.3636H707.908L704.438 68.0426H704.204L702.837 69.4098ZM701.47 72V61.8182H702.956V72H701.47ZM706.292 72L703.558 68.3707L704.582 67.3317L708.117 72H706.292ZM712.743 67.0533V68.3409H708.229V67.0533H712.743ZM717.441 72.1541C716.725 72.1541 716.1 71.9901 715.566 71.6619C715.033 71.3338 714.618 70.8748 714.323 70.2848C714.028 69.6948 713.881 69.0054 713.881 68.2166C713.881 67.4245 714.028 66.7318 714.323 66.1385C714.618 65.5452 715.033 65.0845 715.566 64.7564C716.1 64.4283 716.725 64.2642 717.441 64.2642C718.156 64.2642 718.781 64.4283 719.315 64.7564C719.848 65.0845 720.263 65.5452 720.558 66.1385C720.853 66.7318 721 67.4245 721 68.2166C721 69.0054 720.853 69.6948 720.558 70.2848C720.263 70.8748 719.848 71.3338 719.315 71.6619C718.781 71.9901 718.156 72.1541 717.441 72.1541ZM717.445 70.9062C717.91 70.9062 718.294 70.7836 718.599 70.5384C718.904 70.2931 719.129 69.9666 719.275 69.5589C719.424 69.1513 719.499 68.7022 719.499 68.2116C719.499 67.7244 719.424 67.277 719.275 66.8693C719.129 66.4583 718.904 66.1286 718.599 65.88C718.294 65.6314 717.91 65.5071 717.445 65.5071C716.978 65.5071 716.59 65.6314 716.282 65.88C715.977 66.1286 715.75 66.4583 715.601 66.8693C715.455 67.277 715.382 67.7244 715.382 68.2116C715.382 68.7022 715.455 69.1513 715.601 69.5589C715.75 69.9666 715.977 70.2931 716.282 70.5384C716.59 70.7836 716.978 70.9062 717.445 70.9062ZM726.997 68.8331V64.3636H728.488V72H727.027V70.6776H726.947C726.771 71.0852 726.49 71.425 726.102 71.6967C725.717 71.9652 725.239 72.0994 724.665 72.0994C724.175 72.0994 723.74 71.9917 723.363 71.7763C722.988 71.5575 722.693 71.2344 722.478 70.8068C722.266 70.3793 722.159 69.8506 722.159 69.2209V64.3636H723.646V69.0419C723.646 69.5623 723.79 69.9766 724.078 70.2848C724.367 70.593 724.741 70.7472 725.202 70.7472C725.48 70.7472 725.757 70.6776 726.032 70.5384C726.311 70.3991 726.541 70.1887 726.723 69.907C726.909 69.6252 727 69.2673 726.997 68.8331ZM733.55 64.3636V65.5568H729.379V64.3636H733.55ZM730.498 62.5341H731.984V69.7578C731.984 70.0462 732.027 70.2633 732.113 70.4091C732.2 70.5516 732.311 70.6494 732.447 70.7024C732.586 70.7521 732.737 70.777 732.899 70.777C733.018 70.777 733.123 70.7687 733.212 70.7521C733.302 70.7356 733.371 70.7223 733.421 70.7124L733.689 71.9403C733.603 71.9735 733.481 72.0066 733.322 72.0398C733.162 72.0762 732.964 72.0961 732.725 72.0994C732.334 72.1061 731.969 72.0365 731.631 71.8906C731.293 71.7448 731.02 71.5194 730.811 71.2145C730.602 70.9096 730.498 70.5268 730.498 70.0661V62.5341Z" fill="#374151"/>
<path d="M847.203 137H668V85H847.203V137Z" stroke="#E5E7EB"/>
<path d="M676 85.5H839.203C843.345 85.5 846.703 88.8579 846.703 93V129C846.703 133.142 843.345 136.5 839.203 136.5H676C671.858 136.5 668.5 133.142 668.5 129V93C668.5 88.8579 671.858 85.5 676 85.5Z" fill="white"/>
<path d="M676 85.5H839.203C843.345 85.5 846.703 88.8579 846.703 93V129C846.703 133.142 843.345 136.5 839.203 136.5H676C671.858 136.5 668.5 133.142 668.5 129V93C668.5 88.8579 671.858 85.5 676 85.5Z" stroke="#D1D5DB"/>
<rect width="132" height="19" transform="translate(707.609 101)" fill="white"/>
<path d="M708.99 120V110.182H710.447V111.716H710.575C710.78 111.192 711.11 110.785 711.566 110.495C712.022 110.201 712.57 110.054 713.209 110.054C713.857 110.054 714.396 110.201 714.826 110.495C715.261 110.785 715.599 111.192 715.842 111.716H715.945C716.196 111.209 716.573 110.806 717.076 110.508C717.579 110.205 718.182 110.054 718.885 110.054C719.763 110.054 720.481 110.329 721.039 110.879C721.597 111.424 721.876 112.274 721.876 113.429V120H720.368V113.429C720.368 112.705 720.17 112.187 719.773 111.876C719.377 111.565 718.911 111.409 718.374 111.409C717.683 111.409 717.148 111.618 716.769 112.036C716.39 112.449 716.2 112.973 716.2 113.608V120H714.666V113.276C714.666 112.717 714.485 112.268 714.123 111.927C713.761 111.582 713.294 111.409 712.723 111.409C712.331 111.409 711.964 111.513 711.624 111.722C711.287 111.931 711.014 112.221 710.805 112.592C710.601 112.958 710.499 113.382 710.499 113.864V120H708.99ZM724.135 120V110.182H725.592V111.716H725.72C725.924 111.192 726.255 110.785 726.711 110.495C727.167 110.201 727.714 110.054 728.353 110.054C729.001 110.054 729.54 110.201 729.971 110.495C730.405 110.785 730.744 111.192 730.987 111.716H731.089C731.341 111.209 731.718 110.806 732.221 110.508C732.723 110.205 733.326 110.054 734.029 110.054C734.907 110.054 735.625 110.329 736.184 110.879C736.742 111.424 737.021 112.274 737.021 113.429V120H735.512V113.429C735.512 112.705 735.314 112.187 734.918 111.876C734.522 111.565 734.055 111.409 733.518 111.409C732.828 111.409 732.293 111.618 731.914 112.036C731.534 112.449 731.345 112.973 731.345 113.608V120H729.811V113.276C729.811 112.717 729.63 112.268 729.267 111.927C728.905 111.582 728.439 111.409 727.868 111.409C727.475 111.409 727.109 111.513 726.768 111.722C726.431 111.931 726.159 112.221 725.95 112.592C725.745 112.958 725.643 113.382 725.643 113.864V120H724.135ZM743.907 106.295L739.688 121.969H738.308L742.526 106.295H743.907ZM748.903 120.205C748.084 120.205 747.362 119.998 746.736 119.585C746.109 119.167 745.619 118.579 745.265 117.82C744.912 117.058 744.735 116.156 744.735 115.116C744.735 114.085 744.912 113.19 745.265 112.432C745.619 111.673 746.111 111.087 746.742 110.674C747.373 110.261 748.101 110.054 748.928 110.054C749.567 110.054 750.072 110.161 750.443 110.374C750.818 110.582 751.104 110.821 751.3 111.089C751.5 111.354 751.655 111.571 751.766 111.741H751.894V106.909H753.403V120H751.945V118.491H751.766C751.655 118.67 751.498 118.896 751.293 119.169C751.089 119.437 750.797 119.678 750.417 119.891C750.038 120.1 749.533 120.205 748.903 120.205ZM749.107 118.849C749.712 118.849 750.224 118.692 750.641 118.376C751.059 118.057 751.376 117.616 751.594 117.053C751.811 116.487 751.92 115.832 751.92 115.091C751.92 114.358 751.813 113.717 751.6 113.167C751.387 112.613 751.072 112.183 750.654 111.876C750.236 111.565 749.721 111.409 749.107 111.409C748.468 111.409 747.935 111.573 747.509 111.901C747.087 112.225 746.77 112.666 746.557 113.224C746.348 113.778 746.243 114.401 746.243 115.091C746.243 115.79 746.35 116.425 746.563 116.996C746.78 117.562 747.1 118.014 747.522 118.351C747.948 118.683 748.476 118.849 749.107 118.849ZM759.582 120.205C758.764 120.205 758.042 119.998 757.415 119.585C756.789 119.167 756.299 118.579 755.945 117.82C755.591 117.058 755.415 116.156 755.415 115.116C755.415 114.085 755.591 113.19 755.945 112.432C756.299 111.673 756.791 111.087 757.422 110.674C758.052 110.261 758.781 110.054 759.608 110.054C760.247 110.054 760.752 110.161 761.123 110.374C761.498 110.582 761.783 110.821 761.979 111.089C762.18 111.354 762.335 111.571 762.446 111.741H762.574V106.909H764.082V120H762.625V118.491H762.446C762.335 118.67 762.177 118.896 761.973 119.169C761.768 119.437 761.476 119.678 761.097 119.891C760.718 120.1 760.213 120.205 759.582 120.205ZM759.787 118.849C760.392 118.849 760.903 118.692 761.321 118.376C761.738 118.057 762.056 117.616 762.273 117.053C762.491 116.487 762.599 115.832 762.599 115.091C762.599 114.358 762.493 113.717 762.28 113.167C762.067 112.613 761.751 112.183 761.334 111.876C760.916 111.565 760.4 111.409 759.787 111.409C759.148 111.409 758.615 111.573 758.189 111.901C757.767 112.225 757.449 112.666 757.236 113.224C757.028 113.778 756.923 114.401 756.923 115.091C756.923 115.79 757.03 116.425 757.243 116.996C757.46 117.562 757.78 118.014 758.202 118.351C758.628 118.683 759.156 118.849 759.787 118.849ZM771.182 106.295L766.964 121.969H765.583L769.802 106.295H771.182ZM773.442 123.682C773.186 123.682 772.958 123.661 772.758 123.618C772.558 123.58 772.419 123.541 772.343 123.503L772.726 122.173C773.093 122.267 773.417 122.301 773.698 122.276C773.979 122.25 774.228 122.124 774.446 121.898C774.667 121.677 774.87 121.317 775.053 120.818L775.334 120.051L771.703 110.182H773.34L776.05 118.006H776.152L778.863 110.182H780.499L776.331 121.432C776.144 121.939 775.912 122.359 775.635 122.691C775.358 123.028 775.036 123.277 774.669 123.439C774.307 123.601 773.898 123.682 773.442 123.682ZM782.962 123.682C782.706 123.682 782.478 123.661 782.278 123.618C782.077 123.58 781.939 123.541 781.862 123.503L782.246 122.173C782.612 122.267 782.936 122.301 783.217 122.276C783.499 122.25 783.748 122.124 783.965 121.898C784.187 121.677 784.389 121.317 784.572 120.818L784.854 120.051L781.223 110.182H782.859L785.57 118.006H785.672L788.382 110.182H790.018L785.851 121.432C785.663 121.939 785.431 122.359 785.154 122.691C784.877 123.028 784.555 123.277 784.189 123.439C783.827 123.601 783.418 123.682 782.962 123.682ZM792.481 123.682C792.225 123.682 791.998 123.661 791.797 123.618C791.597 123.58 791.458 123.541 791.382 123.503L791.765 122.173C792.132 122.267 792.456 122.301 792.737 122.276C793.018 122.25 793.267 122.124 793.485 121.898C793.706 121.677 793.909 121.317 794.092 120.818L794.373 120.051L790.743 110.182H792.379L795.089 118.006H795.191L797.902 110.182H799.538L795.37 121.432C795.183 121.939 794.951 122.359 794.674 122.691C794.397 123.028 794.075 123.277 793.708 123.439C793.346 123.601 792.937 123.682 792.481 123.682ZM802.001 123.682C801.745 123.682 801.517 123.661 801.317 123.618C801.116 123.58 800.978 123.541 800.901 123.503L801.285 122.173C801.651 122.267 801.975 122.301 802.256 122.276C802.538 122.25 802.787 122.124 803.004 121.898C803.226 121.677 803.428 121.317 803.612 120.818L803.893 120.051L800.262 110.182H801.898L804.609 118.006H804.711L807.421 110.182H809.058L804.89 121.432C804.702 121.939 804.47 122.359 804.193 122.691C803.916 123.028 803.594 123.277 803.228 123.439C802.866 123.601 802.457 123.682 802.001 123.682Z" fill="black"/>
<path d="M694 123H680V99H694V123Z" stroke="#E5E7EB"/>
<g clip-path="url(#clip2_38_2176)">
<path d="M683 104V105H681.5C680.672 105 680 105.672 680 106.5V108H694V106.5C694 105.672 693.328 105 692.5 105H691V104C691 103.447 690.553 103 690 103C689.447 103 689 103.447 689 104V105H685V104C685 103.447 684.553 103 684 103C683.447 103 683 103.447 683 104ZM694 109H680V117.5C680 118.328 680.672 119 681.5 119H692.5C693.328 119 694 118.328 694 117.5V109Z" fill="#9CA3AF"/>
</g>
<path d="M1041.98 137H862.797V59H1041.98V137Z" stroke="#E5E7EB"/>
<path d="M1041.98 79H862.797V59H1041.98V79Z" stroke="#E5E7EB"/>
<path d="M870.806 67.0348C870.71 66.7332 870.581 66.4631 870.418 66.2244C870.259 65.9825 870.069 65.777 869.847 65.608C869.625 65.4356 869.371 65.3047 869.086 65.2152C868.804 65.1257 868.494 65.081 868.156 65.081C867.583 65.081 867.066 65.2285 866.605 65.5234C866.144 65.8184 865.78 66.2509 865.511 66.821C865.246 67.3878 865.114 68.0821 865.114 68.9041C865.114 69.7294 865.248 70.4271 865.516 70.9972C865.785 71.5672 866.153 71.9998 866.62 72.2947C867.087 72.5897 867.619 72.7372 868.216 72.7372C868.769 72.7372 869.252 72.6245 869.663 72.3991C870.077 72.1738 870.397 71.8556 870.622 71.4446C870.851 71.0303 870.965 70.5431 870.965 69.983L871.363 70.0575H868.45V68.7898H872.452V69.9482C872.452 70.8033 872.269 71.5457 871.905 72.1754C871.544 72.8018 871.043 73.2857 870.403 73.6271C869.767 73.9685 869.038 74.1392 868.216 74.1392C867.295 74.1392 866.486 73.9271 865.79 73.5028C865.097 73.0786 864.557 72.477 864.169 71.6982C863.781 70.916 863.587 69.9879 863.587 68.9141C863.587 68.102 863.7 67.3729 863.925 66.7266C864.151 66.0803 864.467 65.5317 864.875 65.081C865.286 64.6269 865.768 64.2805 866.322 64.0419C866.879 63.8 867.487 63.679 868.146 63.679C868.696 63.679 869.209 63.7602 869.683 63.9226C870.16 64.085 870.584 64.3153 870.955 64.6136C871.33 64.9119 871.64 65.2666 871.885 65.6776C872.13 66.0852 872.296 66.5376 872.382 67.0348H870.806ZM878.62 70.8331V66.3636H880.111V74H878.65V72.6776H878.57C878.394 73.0852 878.113 73.425 877.725 73.6967C877.34 73.9652 876.862 74.0994 876.288 74.0994C875.798 74.0994 875.363 73.9917 874.986 73.7763C874.611 73.5575 874.316 73.2344 874.101 72.8068C873.889 72.3793 873.782 71.8506 873.782 71.2209V66.3636H875.269V71.0419C875.269 71.5623 875.413 71.9766 875.702 72.2848C875.99 72.593 876.364 72.7472 876.825 72.7472C877.104 72.7472 877.38 72.6776 877.655 72.5384C877.934 72.3991 878.164 72.1887 878.346 71.907C878.532 71.6252 878.623 71.2673 878.62 70.8331ZM884.9 74.1541C884.147 74.1541 883.5 73.9934 882.956 73.6719C882.416 73.3471 881.998 72.8913 881.703 72.3047C881.411 71.7147 881.266 71.0237 881.266 70.2315C881.266 69.4493 881.411 68.7599 881.703 68.1634C881.998 67.5668 882.409 67.1011 882.936 66.7663C883.466 66.4316 884.086 66.2642 884.795 66.2642C885.226 66.2642 885.644 66.3355 886.048 66.478C886.453 66.6205 886.816 66.8442 887.137 67.1491C887.459 67.4541 887.712 67.8501 887.898 68.3374C888.083 68.8213 888.176 69.4096 888.176 70.1023V70.6293H882.106V69.5156H886.719C886.719 69.1245 886.64 68.7782 886.481 68.4766C886.322 68.1716 886.098 67.9313 885.81 67.7557C885.525 67.58 885.19 67.4922 884.805 67.4922C884.388 67.4922 884.023 67.5949 883.712 67.8004C883.403 68.0026 883.165 68.2678 882.996 68.5959C882.83 68.9207 882.747 69.2737 882.747 69.6548V70.5249C882.747 71.0353 882.837 71.4695 883.016 71.8274C883.198 72.1854 883.451 72.4588 883.776 72.6477C884.101 72.8333 884.481 72.9261 884.915 72.9261C885.196 72.9261 885.453 72.8864 885.685 72.8068C885.917 72.724 886.118 72.6013 886.287 72.4389C886.456 72.2765 886.585 72.076 886.675 71.8374L888.082 72.0909C887.969 72.5052 887.767 72.8681 887.475 73.1797C887.187 73.4879 886.824 73.7282 886.386 73.9006C885.952 74.0696 885.457 74.1541 884.9 74.1541ZM895.048 68.228L893.7 68.4666C893.644 68.2943 893.555 68.1302 893.432 67.9744C893.313 67.8187 893.15 67.6911 892.945 67.5916C892.739 67.4922 892.482 67.4425 892.174 67.4425C891.753 67.4425 891.402 67.5369 891.12 67.7259C890.838 67.9115 890.698 68.1518 890.698 68.4467C890.698 68.7019 890.792 68.9074 890.981 69.0632C891.17 69.219 891.475 69.3466 891.896 69.446L893.109 69.7244C893.811 69.8868 894.335 70.1371 894.68 70.4751C895.025 70.8132 895.197 71.2524 895.197 71.7926C895.197 72.25 895.064 72.6577 894.799 73.0156C894.537 73.3703 894.171 73.6487 893.7 73.8509C893.233 74.053 892.691 74.1541 892.075 74.1541C891.22 74.1541 890.522 73.9718 889.982 73.6072C889.441 73.2393 889.11 72.7173 888.987 72.0412L890.424 71.8224C890.514 72.197 890.698 72.4804 890.976 72.6726C891.254 72.8615 891.617 72.956 892.065 72.956C892.552 72.956 892.941 72.8549 893.233 72.6527C893.525 72.4472 893.671 72.197 893.671 71.902C893.671 71.6634 893.581 71.4628 893.402 71.3004C893.227 71.138 892.956 71.0154 892.592 70.9325L891.299 70.6491C890.587 70.4867 890.06 70.2282 889.718 69.8736C889.38 69.5189 889.211 69.0698 889.211 68.5263C889.211 68.0755 889.337 67.6811 889.589 67.343C889.841 67.005 890.189 66.7415 890.633 66.5526C891.077 66.3603 891.586 66.2642 892.159 66.2642C892.985 66.2642 893.634 66.4432 894.108 66.8011C894.582 67.1558 894.895 67.6314 895.048 68.228ZM899.896 66.3636V67.5568H895.725V66.3636H899.896ZM896.843 64.5341H898.33V71.7578C898.33 72.0462 898.373 72.2633 898.459 72.4091C898.545 72.5516 898.656 72.6494 898.792 72.7024C898.931 72.7521 899.082 72.777 899.245 72.777C899.364 72.777 899.468 72.7687 899.558 72.7521C899.647 72.7356 899.717 72.7223 899.767 72.7124L900.035 73.9403C899.949 73.9735 899.826 74.0066 899.667 74.0398C899.508 74.0762 899.309 74.0961 899.071 74.0994C898.68 74.1061 898.315 74.0365 897.977 73.8906C897.639 73.7448 897.365 73.5194 897.157 73.2145C896.948 72.9096 896.843 72.5268 896.843 72.0661V64.5341ZM906.64 68.228L905.292 68.4666C905.236 68.2943 905.146 68.1302 905.024 67.9744C904.904 67.8187 904.742 67.6911 904.537 67.5916C904.331 67.4922 904.074 67.4425 903.766 67.4425C903.345 67.4425 902.994 67.5369 902.712 67.7259C902.43 67.9115 902.289 68.1518 902.289 68.4467C902.289 68.7019 902.384 68.9074 902.573 69.0632C902.762 69.219 903.067 69.3466 903.488 69.446L904.701 69.7244C905.403 69.8868 905.927 70.1371 906.272 70.4751C906.616 70.8132 906.789 71.2524 906.789 71.7926C906.789 72.25 906.656 72.6577 906.391 73.0156C906.129 73.3703 905.763 73.6487 905.292 73.8509C904.825 74.053 904.283 74.1541 903.667 74.1541C902.811 74.1541 902.114 73.9718 901.574 73.6072C901.033 73.2393 900.702 72.7173 900.579 72.0412L902.016 71.8224C902.105 72.197 902.289 72.4804 902.568 72.6726C902.846 72.8615 903.209 72.956 903.657 72.956C904.144 72.956 904.533 72.8549 904.825 72.6527C905.117 72.4472 905.262 72.197 905.262 71.902C905.262 71.6634 905.173 71.4628 904.994 71.3004C904.818 71.138 904.548 71.0154 904.184 70.9325L902.891 70.6491C902.178 70.4867 901.651 70.2282 901.31 69.8736C900.972 69.5189 900.803 69.0698 900.803 68.5263C900.803 68.0755 900.929 67.6811 901.181 67.343C901.433 67.005 901.781 66.7415 902.225 66.5526C902.669 66.3603 903.178 66.2642 903.751 66.2642C904.576 66.2642 905.226 66.4432 905.7 66.8011C906.174 67.1558 906.487 67.6314 906.64 68.228Z" fill="#374151"/>
<path d="M1041.98 137H862.797V87H1041.98V137Z" stroke="#E5E7EB"/>
<path d="M870.797 87.5H1033.98C1038.13 87.5 1041.48 90.8579 1041.48 95V129C1041.48 133.142 1038.13 136.5 1033.98 136.5H870.797C866.655 136.5 863.297 133.142 863.297 129V95C863.297 90.8579 866.655 87.5 870.797 87.5Z" fill="white"/>
<path d="M870.797 87.5H1033.98C1038.13 87.5 1041.48 90.8579 1041.48 95V129C1041.48 133.142 1038.13 136.5 1033.98 136.5H870.797C866.655 136.5 863.297 133.142 863.297 129V95C863.297 90.8579 866.655 87.5 870.797 87.5Z" stroke="#D1D5DB"/>
<path d="M908.092 106.364V118H906.683V107.841H906.615L903.774 109.727V108.295L906.683 106.364H908.092ZM923.098 110C922.973 109.617 922.808 109.275 922.604 108.972C922.403 108.665 922.162 108.403 921.882 108.188C921.606 107.972 921.291 107.807 920.939 107.693C920.587 107.58 920.2 107.523 919.78 107.523C919.09 107.523 918.464 107.701 917.899 108.057C917.335 108.413 916.886 108.938 916.553 109.631C916.219 110.324 916.053 111.174 916.053 112.182C916.053 113.189 916.221 114.04 916.558 114.733C916.895 115.426 917.352 115.951 917.928 116.307C918.503 116.663 919.151 116.841 919.871 116.841C920.537 116.841 921.125 116.699 921.632 116.415C922.143 116.127 922.541 115.722 922.825 115.199C923.113 114.672 923.257 114.053 923.257 113.341L923.689 113.432H920.189V112.182H924.621V113.432C924.621 114.39 924.416 115.223 924.007 115.932C923.602 116.64 923.041 117.189 922.325 117.58C921.613 117.966 920.795 118.159 919.871 118.159C918.84 118.159 917.935 117.917 917.155 117.432C916.378 116.947 915.772 116.258 915.337 115.364C914.905 114.47 914.689 113.409 914.689 112.182C914.689 111.261 914.812 110.434 915.058 109.699C915.308 108.96 915.661 108.331 916.115 107.812C916.57 107.294 917.107 106.896 917.729 106.619C918.35 106.343 919.034 106.205 919.78 106.205C920.393 106.205 920.965 106.297 921.496 106.483C922.03 106.665 922.505 106.924 922.922 107.261C923.342 107.595 923.693 107.994 923.973 108.46C924.253 108.922 924.446 109.436 924.553 110H923.098ZM931.852 114.432V109.273H933.193V118H931.852V116.523H931.761C931.557 116.966 931.239 117.343 930.807 117.653C930.375 117.96 929.83 118.114 929.17 118.114C928.625 118.114 928.14 117.994 927.716 117.756C927.292 117.513 926.958 117.15 926.716 116.665C926.473 116.176 926.352 115.561 926.352 114.818V109.273H927.693V114.727C927.693 115.364 927.871 115.871 928.227 116.25C928.587 116.629 929.045 116.818 929.602 116.818C929.936 116.818 930.275 116.733 930.619 116.562C930.968 116.392 931.259 116.131 931.494 115.778C931.733 115.426 931.852 114.977 931.852 114.432ZM938.808 118.182C937.967 118.182 937.242 117.996 936.632 117.625C936.026 117.25 935.558 116.727 935.229 116.057C934.903 115.383 934.74 114.598 934.74 113.705C934.74 112.811 934.903 112.023 935.229 111.341C935.558 110.655 936.017 110.121 936.604 109.739C937.195 109.352 937.884 109.159 938.672 109.159C939.126 109.159 939.575 109.235 940.018 109.386C940.462 109.538 940.865 109.784 941.229 110.125C941.592 110.462 941.882 110.909 942.098 111.466C942.314 112.023 942.422 112.708 942.422 113.523V114.091H935.695V112.932H941.058C941.058 112.439 940.96 112 940.763 111.614C940.57 111.227 940.293 110.922 939.933 110.699C939.577 110.475 939.157 110.364 938.672 110.364C938.138 110.364 937.676 110.496 937.286 110.761C936.899 111.023 936.602 111.364 936.393 111.784C936.185 112.205 936.081 112.655 936.081 113.136V113.909C936.081 114.568 936.195 115.127 936.422 115.585C936.653 116.04 936.973 116.386 937.382 116.625C937.791 116.86 938.267 116.977 938.808 116.977C939.161 116.977 939.479 116.928 939.763 116.83C940.051 116.727 940.299 116.576 940.507 116.375C940.715 116.17 940.876 115.917 940.99 115.614L942.286 115.977C942.149 116.417 941.92 116.803 941.598 117.136C941.276 117.466 940.878 117.723 940.405 117.909C939.931 118.091 939.399 118.182 938.808 118.182ZM950.143 111.227L948.939 111.568C948.863 111.367 948.751 111.172 948.604 110.983C948.46 110.79 948.263 110.631 948.013 110.506C947.763 110.381 947.443 110.318 947.053 110.318C946.518 110.318 946.073 110.441 945.717 110.688C945.365 110.93 945.189 111.239 945.189 111.614C945.189 111.947 945.31 112.21 945.553 112.403C945.795 112.597 946.174 112.758 946.689 112.886L947.984 113.205C948.765 113.394 949.346 113.684 949.729 114.074C950.111 114.46 950.303 114.958 950.303 115.568C950.303 116.068 950.159 116.515 949.871 116.909C949.587 117.303 949.189 117.614 948.678 117.841C948.166 118.068 947.571 118.182 946.893 118.182C946.003 118.182 945.267 117.989 944.683 117.602C944.1 117.216 943.731 116.652 943.575 115.909L944.848 115.591C944.969 116.061 945.198 116.413 945.536 116.648C945.876 116.883 946.321 117 946.871 117C947.496 117 947.992 116.867 948.359 116.602C948.731 116.333 948.916 116.011 948.916 115.636C948.916 115.333 948.81 115.08 948.598 114.875C948.386 114.667 948.06 114.511 947.621 114.409L946.166 114.068C945.367 113.879 944.78 113.585 944.405 113.188C944.034 112.786 943.848 112.284 943.848 111.682C943.848 111.189 943.986 110.754 944.263 110.375C944.543 109.996 944.924 109.699 945.405 109.483C945.89 109.267 946.439 109.159 947.053 109.159C947.916 109.159 948.594 109.348 949.087 109.727C949.583 110.106 949.935 110.606 950.143 111.227ZM955.616 109.273V110.409H951.094V109.273H955.616ZM952.412 107.182H953.753V115.5C953.753 115.879 953.808 116.163 953.918 116.352C954.031 116.538 954.175 116.663 954.349 116.727C954.527 116.788 954.715 116.818 954.912 116.818C955.06 116.818 955.181 116.811 955.276 116.795C955.37 116.777 955.446 116.761 955.503 116.75L955.776 117.955C955.685 117.989 955.558 118.023 955.395 118.057C955.232 118.095 955.026 118.114 954.776 118.114C954.397 118.114 954.026 118.032 953.662 117.869C953.302 117.706 953.003 117.458 952.764 117.125C952.529 116.792 952.412 116.371 952.412 115.864V107.182Z" fill="#111827"/>
<path d="M888.797 124H874.797V100H888.797V124Z" stroke="#E5E7EB"/>
<g clip-path="url(#clip3_38_2176)">
<path d="M881.797 112C882.858 112 883.875 111.579 884.625 110.828C885.375 110.078 885.797 109.061 885.797 108C885.797 106.939 885.375 105.922 884.625 105.172C883.875 104.421 882.858 104 881.797 104C880.736 104 879.719 104.421 878.968 105.172C878.218 105.922 877.797 106.939 877.797 108C877.797 109.061 878.218 110.078 878.968 110.828C879.719 111.579 880.736 112 881.797 112ZM880.369 113.5C877.291 113.5 874.797 115.994 874.797 119.072C874.797 119.584 875.213 120 875.725 120H887.869C888.381 120 888.797 119.584 888.797 119.072C888.797 115.994 886.303 113.5 883.225 113.5H880.369Z" fill="#9CA3AF"/>
</g>
<path d="M1029.98 124H1013.98V100H1029.98V124Z" stroke="#E5E7EB"/>
<path d="M1029.98 120H1013.98V104H1029.98V120Z" stroke="#E5E7EB"/>
<path d="M1021.28 116.706C1021.67 117.097 1022.3 117.097 1022.69 116.706L1028.69 110.706C1029.08 110.316 1029.08 109.681 1028.69 109.291C1028.3 108.9 1027.67 108.9 1027.28 109.291L1021.98 114.584L1016.69 109.294C1016.3 108.903 1015.67 108.903 1015.27 109.294C1014.88 109.684 1014.88 110.319 1015.27 110.709L1021.27 116.709L1021.28 116.706Z" fill="#9CA3AF"/>
<path d="M1042 221H82V161H1042V221Z" stroke="#E5E7EB"/>
<g filter="url(#filter1_dd_38_2176)">
<path d="M82 169C82 164.582 85.5817 161 90 161H1034C1038.42 161 1042 164.582 1042 169V213C1042 217.418 1038.42 221 1034 221H90C85.5817 221 82 217.418 82 213V169Z" fill="#2563EB"/>
<path d="M504 201H486V180H504V201Z" stroke="#E5E7EB"/>
<g clip-path="url(#clip4_38_2176)">
<path d="M500.625 188.562C500.625 190.176 500.101 191.667 499.219 192.876L503.67 197.33C504.109 197.77 504.109 198.484 503.67 198.923C503.23 199.363 502.516 199.363 502.077 198.923L497.626 194.469C496.417 195.355 494.926 195.875 493.312 195.875C489.273 195.875 486 192.602 486 188.562C486 184.523 489.273 181.25 493.312 181.25C497.352 181.25 500.625 184.523 500.625 188.562ZM493.312 193.625C493.977 193.625 494.636 193.494 495.25 193.24C495.864 192.985 496.422 192.612 496.892 192.142C497.362 191.672 497.735 191.114 497.99 190.5C498.244 189.886 498.375 189.227 498.375 188.562C498.375 187.898 498.244 187.239 497.99 186.625C497.735 186.011 497.362 185.453 496.892 184.983C496.422 184.513 495.864 184.14 495.25 183.885C494.636 183.631 493.977 183.5 493.312 183.5C492.648 183.5 491.989 183.631 491.375 183.885C490.761 184.14 490.203 184.513 489.733 184.983C489.263 185.453 488.89 186.011 488.635 186.625C488.381 187.239 488.25 187.898 488.25 188.562C488.25 189.227 488.381 189.886 488.635 190.5C488.89 191.114 489.263 191.672 489.733 192.142C490.203 192.612 490.761 192.985 491.375 193.24C491.989 193.494 492.648 193.625 493.312 193.625Z" fill="white"/>
</g>
<path d="M527.568 188.508C527.508 187.95 527.257 187.515 526.813 187.204C526.374 186.893 525.803 186.737 525.1 186.737C524.606 186.737 524.182 186.812 523.828 186.961C523.475 187.11 523.204 187.312 523.017 187.568C522.829 187.824 522.733 188.116 522.729 188.444C522.729 188.717 522.791 188.953 522.914 189.153C523.042 189.354 523.215 189.524 523.432 189.665C523.649 189.801 523.89 189.916 524.154 190.01C524.419 190.104 524.685 190.183 524.953 190.246L526.181 190.553C526.675 190.668 527.15 190.824 527.606 191.02C528.066 191.216 528.477 191.463 528.84 191.761C529.206 192.06 529.496 192.42 529.709 192.842C529.922 193.263 530.029 193.758 530.029 194.325C530.029 195.092 529.833 195.767 529.441 196.351C529.048 196.93 528.482 197.384 527.74 197.712C527.003 198.036 526.11 198.198 525.062 198.198C524.044 198.198 523.159 198.04 522.409 197.725C521.664 197.41 521.08 196.95 520.658 196.344C520.24 195.739 520.014 195.002 519.98 194.133H522.313C522.347 194.589 522.488 194.968 522.735 195.271C522.982 195.573 523.304 195.799 523.7 195.948C524.101 196.097 524.548 196.172 525.043 196.172C525.558 196.172 526.01 196.095 526.398 195.942C526.79 195.784 527.097 195.567 527.318 195.29C527.54 195.009 527.653 194.68 527.657 194.305C527.653 193.964 527.553 193.683 527.357 193.462C527.161 193.236 526.886 193.048 526.532 192.899C526.183 192.746 525.774 192.609 525.305 192.49L523.816 192.107C522.737 191.83 521.885 191.41 521.259 190.847C520.637 190.281 520.325 189.528 520.325 188.591C520.325 187.82 520.534 187.144 520.952 186.565C521.374 185.985 521.947 185.536 522.671 185.216C523.396 184.892 524.216 184.73 525.132 184.73C526.061 184.73 526.875 184.892 527.574 185.216C528.277 185.536 528.829 185.981 529.23 186.552C529.63 187.119 529.837 187.771 529.85 188.508H527.568ZM535.887 198.192C534.903 198.192 534.053 197.987 533.337 197.578C532.625 197.165 532.077 196.581 531.694 195.827C531.31 195.068 531.119 194.175 531.119 193.148C531.119 192.138 531.31 191.252 531.694 190.489C532.082 189.722 532.623 189.126 533.317 188.7C534.012 188.269 534.828 188.054 535.766 188.054C536.371 188.054 536.942 188.152 537.479 188.348C538.02 188.54 538.497 188.838 538.911 189.243C539.328 189.648 539.656 190.163 539.895 190.79C540.134 191.412 540.253 192.153 540.253 193.014V193.724H532.205V192.164H538.035C538.031 191.721 537.935 191.327 537.747 190.982C537.56 190.632 537.298 190.357 536.961 190.157C536.629 189.957 536.241 189.857 535.798 189.857C535.325 189.857 534.909 189.972 534.551 190.202C534.193 190.428 533.914 190.726 533.714 191.097C533.518 191.463 533.418 191.866 533.413 192.305V193.666C533.413 194.237 533.518 194.727 533.727 195.136C533.935 195.541 534.227 195.852 534.602 196.07C534.977 196.283 535.416 196.389 535.919 196.389C536.256 196.389 536.56 196.342 536.833 196.249C537.106 196.151 537.342 196.008 537.543 195.82C537.743 195.633 537.894 195.401 537.996 195.124L540.157 195.366C540.021 195.937 539.761 196.436 539.377 196.862C538.998 197.284 538.512 197.612 537.92 197.847C537.327 198.077 536.65 198.192 535.887 198.192ZM544.536 198.198C543.914 198.198 543.353 198.087 542.855 197.866C542.36 197.64 541.968 197.308 541.678 196.869C541.393 196.43 541.25 195.888 541.25 195.245C541.25 194.691 541.352 194.233 541.557 193.871C541.762 193.509 542.041 193.219 542.394 193.001C542.748 192.784 543.146 192.62 543.59 192.509C544.037 192.394 544.499 192.311 544.977 192.26C545.552 192.2 546.019 192.147 546.377 192.1C546.735 192.049 546.994 191.972 547.156 191.87C547.323 191.763 547.406 191.599 547.406 191.378V191.339C547.406 190.858 547.263 190.485 546.977 190.221C546.692 189.957 546.281 189.825 545.744 189.825C545.177 189.825 544.727 189.948 544.395 190.195C544.067 190.442 543.845 190.734 543.73 191.071L541.57 190.764C541.74 190.168 542.021 189.669 542.414 189.268C542.806 188.864 543.285 188.561 543.852 188.361C544.419 188.156 545.045 188.054 545.731 188.054C546.204 188.054 546.675 188.109 547.144 188.22C547.612 188.331 548.041 188.514 548.428 188.77C548.816 189.021 549.127 189.364 549.362 189.799C549.6 190.234 549.72 190.777 549.72 191.429V198H547.495V196.651H547.419C547.278 196.924 547.08 197.18 546.824 197.418C546.573 197.653 546.255 197.842 545.872 197.987C545.492 198.128 545.047 198.198 544.536 198.198ZM545.137 196.498C545.601 196.498 546.004 196.406 546.345 196.223C546.686 196.036 546.948 195.788 547.131 195.482C547.318 195.175 547.412 194.84 547.412 194.478V193.321C547.34 193.381 547.216 193.436 547.041 193.487C546.871 193.538 546.679 193.583 546.466 193.621C546.253 193.66 546.042 193.694 545.833 193.724C545.624 193.754 545.443 193.779 545.29 193.8C544.945 193.847 544.636 193.924 544.363 194.031C544.09 194.137 543.875 194.286 543.718 194.478C543.56 194.665 543.481 194.908 543.481 195.207C543.481 195.633 543.637 195.955 543.948 196.172C544.259 196.389 544.655 196.498 545.137 196.498ZM551.546 198V188.182H553.79V189.818H553.892C554.071 189.251 554.378 188.815 554.813 188.508C555.252 188.197 555.752 188.041 556.315 188.041C556.443 188.041 556.585 188.048 556.743 188.06C556.905 188.069 557.039 188.084 557.146 188.105V190.234C557.048 190.2 556.892 190.17 556.679 190.144C556.47 190.114 556.268 190.099 556.072 190.099C555.65 190.099 555.271 190.191 554.934 190.374C554.602 190.553 554.34 190.803 554.148 191.122C553.956 191.442 553.86 191.81 553.86 192.228V198H551.546ZM562.061 198.192C561.081 198.192 560.24 197.977 559.537 197.546C558.838 197.116 558.299 196.521 557.919 195.763C557.544 195 557.357 194.122 557.357 193.129C557.357 192.132 557.549 191.252 557.932 190.489C558.316 189.722 558.857 189.126 559.556 188.7C560.259 188.269 561.09 188.054 562.049 188.054C562.846 188.054 563.551 188.201 564.164 188.495C564.782 188.785 565.275 189.196 565.641 189.729C566.007 190.257 566.216 190.875 566.267 191.582H564.056C563.966 191.109 563.753 190.715 563.417 190.4C563.084 190.08 562.639 189.92 562.081 189.92C561.608 189.92 561.192 190.048 560.834 190.304C560.476 190.555 560.197 190.918 559.997 191.391C559.801 191.864 559.703 192.43 559.703 193.091C559.703 193.76 559.801 194.335 559.997 194.817C560.193 195.294 560.468 195.663 560.821 195.923C561.179 196.178 561.599 196.306 562.081 196.306C562.422 196.306 562.726 196.242 562.995 196.114C563.267 195.982 563.495 195.793 563.679 195.545C563.862 195.298 563.988 194.998 564.056 194.644H566.267C566.212 195.339 566.007 195.955 565.654 196.491C565.3 197.024 564.819 197.442 564.209 197.744C563.6 198.043 562.884 198.192 562.061 198.192ZM569.981 192.247V198H567.667V184.909H569.93V189.85H570.045C570.275 189.296 570.631 188.859 571.113 188.54C571.599 188.216 572.216 188.054 572.966 188.054C573.648 188.054 574.243 188.197 574.75 188.482C575.257 188.768 575.649 189.185 575.926 189.735C576.207 190.285 576.348 190.956 576.348 191.749V198H574.034V192.107C574.034 191.446 573.863 190.933 573.523 190.566C573.186 190.195 572.713 190.01 572.104 190.01C571.694 190.01 571.328 190.099 571.004 190.278C570.684 190.453 570.433 190.707 570.25 191.039C570.071 191.371 569.981 191.774 569.981 192.247ZM582.274 198V184.909H584.645V190.451H590.711V184.909H593.089V198H590.711V192.439H584.645V198H582.274ZM599.349 198.192C598.39 198.192 597.559 197.981 596.856 197.559C596.153 197.137 595.607 196.547 595.219 195.788C594.836 195.03 594.644 194.143 594.644 193.129C594.644 192.115 594.836 191.227 595.219 190.464C595.607 189.701 596.153 189.109 596.856 188.687C597.559 188.265 598.39 188.054 599.349 188.054C600.307 188.054 601.138 188.265 601.841 188.687C602.545 189.109 603.088 189.701 603.471 190.464C603.859 191.227 604.053 192.115 604.053 193.129C604.053 194.143 603.859 195.03 603.471 195.788C603.088 196.547 602.545 197.137 601.841 197.559C601.138 197.981 600.307 198.192 599.349 198.192ZM599.361 196.338C599.881 196.338 600.316 196.195 600.665 195.91C601.015 195.62 601.275 195.232 601.445 194.746C601.62 194.261 601.707 193.719 601.707 193.123C601.707 192.522 601.62 191.979 601.445 191.493C601.275 191.003 601.015 190.613 600.665 190.323C600.316 190.033 599.881 189.888 599.361 189.888C598.829 189.888 598.385 190.033 598.032 190.323C597.682 190.613 597.42 191.003 597.246 191.493C597.075 191.979 596.99 192.522 596.99 193.123C596.99 193.719 597.075 194.261 597.246 194.746C597.42 195.232 597.682 195.62 598.032 195.91C598.385 196.195 598.829 196.338 599.361 196.338ZM610.42 188.182V189.972H604.776V188.182H610.42ZM606.169 185.83H608.483V195.047C608.483 195.358 608.53 195.597 608.624 195.763C608.722 195.925 608.849 196.036 609.007 196.095C609.165 196.155 609.339 196.185 609.531 196.185C609.676 196.185 609.808 196.174 609.928 196.153C610.051 196.131 610.145 196.112 610.209 196.095L610.599 197.904C610.475 197.947 610.298 197.994 610.068 198.045C609.842 198.096 609.565 198.126 609.237 198.134C608.658 198.151 608.136 198.064 607.671 197.872C607.207 197.676 606.838 197.374 606.565 196.964C606.297 196.555 606.165 196.044 606.169 195.43V185.83ZM616.096 198.192C615.112 198.192 614.262 197.987 613.546 197.578C612.834 197.165 612.286 196.581 611.903 195.827C611.519 195.068 611.328 194.175 611.328 193.148C611.328 192.138 611.519 191.252 611.903 190.489C612.291 189.722 612.832 189.126 613.526 188.7C614.221 188.269 615.037 188.054 615.975 188.054C616.58 188.054 617.151 188.152 617.688 188.348C618.229 188.54 618.706 188.838 619.119 189.243C619.537 189.648 619.865 190.163 620.104 190.79C620.343 191.412 620.462 192.153 620.462 193.014V193.724H612.414V192.164H618.244C618.24 191.721 618.144 191.327 617.956 190.982C617.769 190.632 617.507 190.357 617.17 190.157C616.838 189.957 616.45 189.857 616.007 189.857C615.534 189.857 615.118 189.972 614.76 190.202C614.402 190.428 614.123 190.726 613.923 191.097C613.727 191.463 613.627 191.866 613.622 192.305V193.666C613.622 194.237 613.727 194.727 613.936 195.136C614.144 195.541 614.436 195.852 614.811 196.07C615.186 196.283 615.625 196.389 616.128 196.389C616.465 196.389 616.769 196.342 617.042 196.249C617.315 196.151 617.551 196.008 617.752 195.82C617.952 195.633 618.103 195.401 618.205 195.124L620.366 195.366C620.23 195.937 619.97 196.436 619.586 196.862C619.207 197.284 618.721 197.612 618.129 197.847C617.536 198.077 616.859 198.192 616.096 198.192ZM624.233 184.909V198H621.919V184.909H624.233ZM633.873 190.777L631.763 191.007C631.704 190.794 631.599 190.594 631.45 190.406C631.305 190.219 631.109 190.067 630.862 189.952C630.615 189.837 630.312 189.78 629.954 189.78C629.473 189.78 629.068 189.884 628.74 190.093C628.416 190.302 628.256 190.572 628.26 190.905C628.256 191.19 628.361 191.423 628.574 191.602C628.791 191.781 629.149 191.928 629.648 192.043L631.322 192.401C632.251 192.601 632.942 192.918 633.393 193.353C633.849 193.788 634.079 194.357 634.084 195.06C634.079 195.678 633.898 196.223 633.54 196.696C633.187 197.165 632.694 197.531 632.064 197.795C631.433 198.06 630.709 198.192 629.89 198.192C628.689 198.192 627.721 197.94 626.988 197.438C626.256 196.93 625.819 196.225 625.678 195.322L627.934 195.104C628.037 195.548 628.254 195.882 628.586 196.108C628.919 196.334 629.351 196.447 629.884 196.447C630.434 196.447 630.875 196.334 631.207 196.108C631.544 195.882 631.712 195.603 631.712 195.271C631.712 194.989 631.604 194.757 631.386 194.574C631.173 194.391 630.841 194.25 630.389 194.152L628.714 193.8C627.773 193.604 627.076 193.274 626.624 192.81C626.172 192.341 625.949 191.749 625.953 191.033C625.949 190.428 626.113 189.903 626.445 189.46C626.782 189.013 627.248 188.668 627.845 188.425C628.446 188.178 629.138 188.054 629.922 188.054C631.073 188.054 631.979 188.299 632.639 188.789C633.304 189.279 633.715 189.942 633.873 190.777Z" fill="white"/>
</g>
</g>
<defs>
<filter id="filter0_d_38_2176" x="0" y="0" width="1124" height="328" filterUnits="userSpaceOnUse" color-interpolation-filters="sRGB">
<feFlood flood-opacity="0" result="BackgroundImageFix"/>
<feColorMatrix in="SourceAlpha" type="matrix" values="0 0 0 0 0 0 0 0 0 0 0 0 0 0 0 0 0 0 127 0" result="hardAlpha"/>
<feOffset dy="25"/>
<feGaussianBlur stdDeviation="25"/>
<feColorMatrix type="matrix" values="0 0 0 0 0 0 0 0 0 0 0 0 0 0 0 0 0 0 0.25 0"/>
<feBlend mode="normal" in2="BackgroundImageFix" result="effect1_dropShadow_38_2176"/>
<feBlend mode="normal" in="SourceGraphic" in2="effect1_dropShadow_38_2176" result="shape"/>
</filter>
<filter id="filter1_dd_38_2176" x="67" y="156" width="990" height="90" filterUnits="userSpaceOnUse" color-interpolation-filters="sRGB">
<feFlood flood-opacity="0" result="BackgroundImageFix"/>
<feColorMatrix in="SourceAlpha" type="matrix" values="0 0 0 0 0 0 0 0 0 0 0 0 0 0 0 0 0 0 127 0" result="hardAlpha"/>
<feOffset dy="10"/>
<feGaussianBlur stdDeviation="7.5"/>
<feColorMatrix type="matrix" values="0 0 0 0 0 0 0 0 0 0 0 0 0 0 0 0 0 0 0.1 0"/>
<feBlend mode="normal" in2="BackgroundImageFix" result="effect1_dropShadow_38_2176"/>
<feColorMatrix in="SourceAlpha" type="matrix" values="0 0 0 0 0 0 0 0 0 0 0 0 0 0 0 0 0 0 127 0" result="hardAlpha"/>
<feOffset dy="4"/>
<feGaussianBlur stdDeviation="3"/>
<feColorMatrix type="matrix" values="0 0 0 0 0 0 0 0 0 0 0 0 0 0 0 0 0 0 0.1 0"/>
<feBlend mode="normal" in2="effect1_dropShadow_38_2176" result="effect2_dropShadow_38_2176"/>
<feBlend mode="normal" in="SourceGraphic" in2="effect2_dropShadow_38_2176" result="shape"/>
</filter>
<clipPath id="clip0_38_2176">
<path d="M94 104H106V120H94V104Z" fill="white"/>
</clipPath>
<clipPath id="clip1_38_2176">
<path d="M484 103H498V119H484V103Z" fill="white"/>
</clipPath>
<clipPath id="clip2_38_2176">
<path d="M680 103H694V119H680V103Z" fill="white"/>
</clipPath>
<clipPath id="clip3_38_2176">
<path d="M874.797 104H888.797V120H874.797V104Z" fill="white"/>
</clipPath>
<clipPath id="clip4_38_2176">
<path d="M486 181.25H504V199.25H486V181.25Z" fill="white"/>
</clipPath>
</defs>
</svg>
